%TF.GenerationSoftware,KiCad,Pcbnew,7.0.1*%
%TF.CreationDate,2023-06-01T23:30:30-07:00*%
%TF.ProjectId,flower,666c6f77-6572-42e6-9b69-6361645f7063,rev?*%
%TF.SameCoordinates,Original*%
%TF.FileFunction,Soldermask,Bot*%
%TF.FilePolarity,Negative*%
%FSLAX46Y46*%
G04 Gerber Fmt 4.6, Leading zero omitted, Abs format (unit mm)*
G04 Created by KiCad (PCBNEW 7.0.1) date 2023-06-01 23:30:30*
%MOMM*%
%LPD*%
G01*
G04 APERTURE LIST*
%ADD10C,0.010000*%
G04 APERTURE END LIST*
%TO.C,G\u002A\u002A\u002A*%
D10*
X50000961Y-7956554D02*
X50029845Y-7971312D01*
X50088181Y-8007274D01*
X50170989Y-8061018D01*
X50273287Y-8129121D01*
X50390096Y-8208157D01*
X50516435Y-8294705D01*
X50647325Y-8385342D01*
X50777784Y-8476642D01*
X50902832Y-8565184D01*
X51017490Y-8647544D01*
X51116776Y-8720299D01*
X51167887Y-8758668D01*
X51539986Y-9058877D01*
X51910285Y-9390915D01*
X52270605Y-9746393D01*
X52612767Y-10116918D01*
X52928591Y-10494100D01*
X53168261Y-10810932D01*
X53486122Y-11285522D01*
X53780528Y-11789636D01*
X54046930Y-12314919D01*
X54280776Y-12853018D01*
X54281848Y-12855707D01*
X54436256Y-13243209D01*
X54593406Y-13004844D01*
X54702137Y-12844252D01*
X54809096Y-12696238D01*
X54921476Y-12551738D01*
X55046470Y-12401691D01*
X55191270Y-12237037D01*
X55284260Y-12134448D01*
X55612359Y-11791104D01*
X55967021Y-11448515D01*
X56338782Y-11114993D01*
X56718177Y-10798852D01*
X57095741Y-10508404D01*
X57311231Y-10354248D01*
X57477541Y-10241364D01*
X57613450Y-10155467D01*
X57720947Y-10096285D01*
X57802021Y-10063548D01*
X57858663Y-10056987D01*
X57892861Y-10076329D01*
X57906605Y-10121306D01*
X57901884Y-10191646D01*
X57883486Y-10276442D01*
X57842910Y-10510637D01*
X57836438Y-10760103D01*
X57862967Y-11016606D01*
X57921394Y-11271911D01*
X58010615Y-11517783D01*
X58065136Y-11632122D01*
X58121979Y-11734160D01*
X58188323Y-11837986D01*
X58266648Y-11946306D01*
X58359432Y-12061825D01*
X58469155Y-12187249D01*
X58598295Y-12325284D01*
X58749332Y-12478637D01*
X58924744Y-12650013D01*
X59127012Y-12842117D01*
X59358613Y-13057657D01*
X59438974Y-13131698D01*
X59571524Y-13254199D01*
X59703493Y-13377313D01*
X59829052Y-13495519D01*
X59942369Y-13603291D01*
X60037614Y-13695108D01*
X60108957Y-13765445D01*
X60123371Y-13780042D01*
X60369907Y-14048037D01*
X60577596Y-14310203D01*
X60748632Y-14571076D01*
X60885213Y-14835191D01*
X60989536Y-15107083D01*
X61063797Y-15391287D01*
X61110193Y-15692338D01*
X61123218Y-15844288D01*
X61130519Y-15938935D01*
X61138708Y-16018872D01*
X61146629Y-16073960D01*
X61151508Y-16092525D01*
X61170136Y-16089940D01*
X61208443Y-16054251D01*
X61263614Y-15988218D01*
X61281051Y-15965525D01*
X61512922Y-15690184D01*
X61781177Y-15426111D01*
X62080657Y-15176441D01*
X62406200Y-14944310D01*
X62752647Y-14732855D01*
X63114838Y-14545211D01*
X63487611Y-14384515D01*
X63865807Y-14253902D01*
X64244265Y-14156508D01*
X64264974Y-14152180D01*
X64423566Y-14121214D01*
X64620932Y-14085702D01*
X64853817Y-14046191D01*
X65118968Y-14003228D01*
X65413133Y-13957359D01*
X65534974Y-13938807D01*
X65850844Y-13888605D01*
X66149833Y-13836308D01*
X66427820Y-13782798D01*
X66680687Y-13728961D01*
X66904314Y-13675680D01*
X67094583Y-13623837D01*
X67247374Y-13574319D01*
X67266403Y-13567298D01*
X67404146Y-13508779D01*
X67562448Y-13430456D01*
X67728877Y-13339054D01*
X67891002Y-13241299D01*
X67992968Y-13174268D01*
X68215326Y-13011001D01*
X68402561Y-12848711D01*
X68561295Y-12681343D01*
X68641735Y-12581119D01*
X68723631Y-12473512D01*
X68785315Y-12395645D01*
X68831446Y-12343002D01*
X68866682Y-12311064D01*
X68895680Y-12295315D01*
X68923099Y-12291236D01*
X68939473Y-12292363D01*
X68980442Y-12307215D01*
X69018152Y-12346931D01*
X69053053Y-12404705D01*
X69094242Y-12492955D01*
X69141783Y-12615052D01*
X69193428Y-12763395D01*
X69246929Y-12930379D01*
X69300037Y-13108402D01*
X69350505Y-13289862D01*
X69396085Y-13467155D01*
X69434528Y-13632678D01*
X69463586Y-13778828D01*
X69469257Y-13812288D01*
X69495118Y-14004012D01*
X69516927Y-14231291D01*
X69534582Y-14487533D01*
X69547984Y-14766145D01*
X69557033Y-15060534D01*
X69561627Y-15364108D01*
X69561667Y-15670273D01*
X69557052Y-15972436D01*
X69547682Y-16264006D01*
X69533456Y-16538389D01*
X69514529Y-16786205D01*
X69453294Y-17266554D01*
X69357184Y-17760156D01*
X69228442Y-18259910D01*
X69069313Y-18758717D01*
X68882044Y-19249478D01*
X68668877Y-19725094D01*
X68454678Y-20138045D01*
X68412646Y-20213527D01*
X68384728Y-20267022D01*
X68374078Y-20298443D01*
X68383847Y-20307704D01*
X68417186Y-20294719D01*
X68477249Y-20259401D01*
X68567186Y-20201665D01*
X68673857Y-20132040D01*
X68857336Y-20014137D01*
X69019619Y-19914158D01*
X69173467Y-19824746D01*
X69331640Y-19738547D01*
X69506901Y-19648207D01*
X69556640Y-19623233D01*
X70067807Y-19390132D01*
X70587467Y-19197339D01*
X71114016Y-19045191D01*
X71645852Y-18934024D01*
X72181371Y-18864179D01*
X72718968Y-18835990D01*
X73235911Y-18848459D01*
X73461370Y-18863895D01*
X73676890Y-18881525D01*
X73875837Y-18900663D01*
X74051576Y-18920623D01*
X74197471Y-18940720D01*
X74295909Y-18957975D01*
X74412020Y-19002902D01*
X74524487Y-19088908D01*
X74632616Y-19214841D01*
X74735709Y-19379549D01*
X74833069Y-19581880D01*
X74924000Y-19820683D01*
X75007805Y-20094805D01*
X75027068Y-20166828D01*
X75097746Y-20459396D01*
X75152547Y-20737646D01*
X75193252Y-21014434D01*
X75221639Y-21302617D01*
X75239489Y-21615052D01*
X75243523Y-21730763D01*
X75240605Y-22254578D01*
X75199544Y-22760935D01*
X75119802Y-23251814D01*
X75000843Y-23729196D01*
X74842130Y-24195061D01*
X74643127Y-24651389D01*
X74403297Y-25100161D01*
X74271682Y-25316372D01*
X74129997Y-25531000D01*
X73975100Y-25747396D01*
X73803511Y-25969814D01*
X73611747Y-26202513D01*
X73396329Y-26449748D01*
X73153774Y-26715778D01*
X72952384Y-26929745D01*
X72654545Y-27242538D01*
X72704423Y-27411872D01*
X72753991Y-27591190D01*
X72789079Y-27747812D01*
X72812451Y-27897700D01*
X72826873Y-28056818D01*
X72831660Y-28146375D01*
X72843472Y-28415211D01*
X73110348Y-28164194D01*
X73362692Y-27933246D01*
X73606347Y-27724449D01*
X73853761Y-27527849D01*
X74117383Y-27333495D01*
X74361474Y-27164004D01*
X74895210Y-26822796D01*
X75462977Y-26499592D01*
X76059431Y-26196848D01*
X76679226Y-25917022D01*
X77317019Y-25662571D01*
X77967465Y-25435952D01*
X78425474Y-25295762D01*
X78628813Y-25237771D01*
X78811076Y-25187881D01*
X78977481Y-25145484D01*
X79133246Y-25109972D01*
X79283588Y-25080737D01*
X79433724Y-25057171D01*
X79588872Y-25038666D01*
X79754250Y-25024615D01*
X79935075Y-25014409D01*
X80136565Y-25007441D01*
X80363937Y-25003102D01*
X80622409Y-25000786D01*
X80917198Y-24999883D01*
X80965474Y-24999832D01*
X81248203Y-24999862D01*
X81491530Y-25000706D01*
X81698382Y-25002695D01*
X81871685Y-25006159D01*
X82014367Y-25011429D01*
X82129356Y-25018834D01*
X82219580Y-25028706D01*
X82287965Y-25041374D01*
X82337439Y-25057169D01*
X82370931Y-25076420D01*
X82391366Y-25099459D01*
X82401673Y-25126616D01*
X82404779Y-25158220D01*
X82404807Y-25162237D01*
X82398611Y-25209897D01*
X82377197Y-25257636D01*
X82336322Y-25310199D01*
X82271746Y-25372330D01*
X82179225Y-25448774D01*
X82081193Y-25524211D01*
X81911594Y-25658337D01*
X81759521Y-25792935D01*
X81623436Y-25931409D01*
X81501798Y-26077166D01*
X81393068Y-26233613D01*
X81295705Y-26404154D01*
X81208170Y-26592197D01*
X81128923Y-26801147D01*
X81056423Y-27034410D01*
X80989131Y-27295392D01*
X80925507Y-27587500D01*
X80864012Y-27914139D01*
X80803104Y-28278715D01*
X80785703Y-28389624D01*
X80724467Y-28766974D01*
X80663119Y-29106139D01*
X80600238Y-29411246D01*
X80534402Y-29686421D01*
X80464188Y-29935792D01*
X80388174Y-30163488D01*
X80304938Y-30373633D01*
X80213059Y-30570358D01*
X80111114Y-30757787D01*
X79997681Y-30940049D01*
X79871338Y-31121272D01*
X79821366Y-31188448D01*
X79616686Y-31459352D01*
X79873038Y-31483398D01*
X80100485Y-31512539D01*
X80338196Y-31557050D01*
X80576059Y-31614184D01*
X80803962Y-31681189D01*
X81011794Y-31755317D01*
X81189443Y-31833818D01*
X81220508Y-31849826D01*
X81409544Y-31961745D01*
X81612465Y-32102778D01*
X81820810Y-32266082D01*
X82026119Y-32444816D01*
X82219931Y-32632137D01*
X82323681Y-32741956D01*
X82424368Y-32853373D01*
X82512554Y-32953192D01*
X82594374Y-33048876D01*
X82675964Y-33147889D01*
X82763461Y-33257693D01*
X82862999Y-33385752D01*
X82980715Y-33539528D01*
X82996905Y-33560788D01*
X83150026Y-33760765D01*
X83283413Y-33932015D01*
X83401923Y-34080264D01*
X83510419Y-34211241D01*
X83613761Y-34330672D01*
X83716808Y-34444286D01*
X83824421Y-34557809D01*
X83941462Y-34676969D01*
X83959239Y-34694790D01*
X84137025Y-34866671D01*
X84297108Y-35007700D01*
X84445345Y-35122197D01*
X84587591Y-35214484D01*
X84729701Y-35288881D01*
X84813643Y-35325244D01*
X84883939Y-35352530D01*
X84942447Y-35370991D01*
X85000549Y-35382325D01*
X85069629Y-35388232D01*
X85161069Y-35390410D01*
X85251724Y-35390617D01*
X85368999Y-35389726D01*
X85457475Y-35386016D01*
X85530682Y-35377423D01*
X85602147Y-35361880D01*
X85685398Y-35337324D01*
X85759724Y-35313071D01*
X85910065Y-35264009D01*
X86025208Y-35229019D01*
X86109776Y-35207807D01*
X86168390Y-35200081D01*
X86205673Y-35205547D01*
X86226249Y-35223911D01*
X86234741Y-35254881D01*
X86235971Y-35282844D01*
X86221193Y-35346625D01*
X86178268Y-35437354D01*
X86109304Y-35552369D01*
X86016407Y-35689006D01*
X85901685Y-35844603D01*
X85767244Y-36016497D01*
X85615191Y-36202025D01*
X85447634Y-36398525D01*
X85266680Y-36603333D01*
X85074436Y-36813787D01*
X84873008Y-37027224D01*
X84777394Y-37126139D01*
X84668661Y-37238589D01*
X84571256Y-37340920D01*
X84488656Y-37429349D01*
X84424335Y-37500097D01*
X84381769Y-37549382D01*
X84364433Y-37573424D01*
X84364644Y-37575141D01*
X84390705Y-37579507D01*
X84452004Y-37588427D01*
X84541808Y-37600962D01*
X84653379Y-37616174D01*
X84779981Y-37633125D01*
X84796640Y-37635334D01*
X85122910Y-37682264D01*
X85417829Y-37733144D01*
X85692355Y-37790441D01*
X85957445Y-37856624D01*
X86224057Y-37934163D01*
X86454023Y-38008803D01*
X86911227Y-38181666D01*
X87338325Y-38380907D01*
X87733211Y-38605523D01*
X87812890Y-38656502D01*
X88030021Y-38803983D01*
X88255284Y-38967297D01*
X88479726Y-39139378D01*
X88694395Y-39313161D01*
X88890340Y-39481581D01*
X89058607Y-39637572D01*
X89069834Y-39648546D01*
X89158189Y-39735152D01*
X89220584Y-39801219D01*
X89257977Y-39855478D01*
X89271328Y-39906660D01*
X89261599Y-39963496D01*
X89229749Y-40034716D01*
X89176738Y-40129051D01*
X89131260Y-40207122D01*
X88824945Y-40698052D01*
X88495917Y-41153478D01*
X88143373Y-41574120D01*
X87766509Y-41960696D01*
X87364520Y-42313926D01*
X86936604Y-42634530D01*
X86481955Y-42923226D01*
X85999769Y-43180734D01*
X85609494Y-43358097D01*
X85495240Y-43404345D01*
X85352443Y-43459051D01*
X85192910Y-43517870D01*
X85028449Y-43576459D01*
X84870870Y-43630473D01*
X84852069Y-43636745D01*
X84393039Y-43789347D01*
X84832965Y-43901273D01*
X85035807Y-43953579D01*
X85206213Y-43999388D01*
X85353050Y-44041492D01*
X85485185Y-44082680D01*
X85611483Y-44125743D01*
X85740812Y-44173473D01*
X85882037Y-44228659D01*
X85915029Y-44241856D01*
X86277502Y-44401474D01*
X86648526Y-44591582D01*
X87016327Y-44805537D01*
X87369128Y-45036694D01*
X87535968Y-45156456D01*
X87732669Y-45307398D01*
X87921778Y-45463792D01*
X88106619Y-45629191D01*
X88290520Y-45807148D01*
X88476804Y-46001217D01*
X88668796Y-46214952D01*
X88869824Y-46451906D01*
X89083211Y-46715631D01*
X89312284Y-47009683D01*
X89492726Y-47247397D01*
X89633615Y-47435627D01*
X89750369Y-47593885D01*
X89845070Y-47725433D01*
X89919803Y-47833536D01*
X89976649Y-47921456D01*
X90017694Y-47992457D01*
X90045020Y-48049802D01*
X90060710Y-48096756D01*
X90066849Y-48136581D01*
X90067140Y-48147152D01*
X90064667Y-48183052D01*
X90053490Y-48214748D01*
X90027972Y-48249362D01*
X89982479Y-48294014D01*
X89911374Y-48355824D01*
X89883006Y-48379788D01*
X89833587Y-48423616D01*
X89757553Y-48494010D01*
X89658314Y-48587689D01*
X89539279Y-48701375D01*
X89403858Y-48831788D01*
X89255460Y-48975648D01*
X89097494Y-49129676D01*
X88933369Y-49290592D01*
X88818891Y-49403358D01*
X88579582Y-49639131D01*
X88367305Y-49847182D01*
X88179333Y-50029896D01*
X88012935Y-50189657D01*
X87865384Y-50328849D01*
X87733950Y-50449856D01*
X87615905Y-50555063D01*
X87508520Y-50646855D01*
X87409065Y-50727614D01*
X87314813Y-50799726D01*
X87223035Y-50865575D01*
X87131001Y-50927545D01*
X87035982Y-50988021D01*
X86935251Y-51049386D01*
X86934474Y-51049852D01*
X86423867Y-51331261D01*
X85897037Y-51573614D01*
X85354494Y-51776739D01*
X84796749Y-51940466D01*
X84224313Y-52064621D01*
X83664224Y-52146112D01*
X83567281Y-52157945D01*
X83484646Y-52169884D01*
X83426212Y-52180385D01*
X83403398Y-52186787D01*
X83414058Y-52196499D01*
X83460052Y-52215093D01*
X83535770Y-52240694D01*
X83635601Y-52271427D01*
X83753935Y-52305418D01*
X83779751Y-52312559D01*
X84078790Y-52397314D01*
X84345992Y-52479120D01*
X84591324Y-52561689D01*
X84824754Y-52648735D01*
X85056252Y-52743970D01*
X85295784Y-52851109D01*
X85548057Y-52971296D01*
X86109004Y-53264392D01*
X86637670Y-53580953D01*
X87138899Y-53924105D01*
X87617538Y-54296975D01*
X87667803Y-54338919D01*
X87790311Y-54446638D01*
X87931872Y-54579066D01*
X88084650Y-54728218D01*
X88240806Y-54886109D01*
X88392503Y-55044754D01*
X88531903Y-55196167D01*
X88651167Y-55332363D01*
X88696621Y-55387103D01*
X88812752Y-55537566D01*
X88896409Y-55667426D01*
X88947600Y-55783233D01*
X88966332Y-55891537D01*
X88952609Y-55998888D01*
X88906440Y-56111834D01*
X88827830Y-56236926D01*
X88716785Y-56380712D01*
X88697616Y-56403954D01*
X88342433Y-56799056D01*
X87958532Y-57163530D01*
X87547287Y-57496528D01*
X87110067Y-57797203D01*
X86648245Y-58064707D01*
X86163191Y-58298192D01*
X85656276Y-58496809D01*
X85128873Y-58659711D01*
X84992255Y-58695188D01*
X84761374Y-58750328D01*
X84541176Y-58797067D01*
X84322809Y-58836742D01*
X84097425Y-58870684D01*
X83856172Y-58900229D01*
X83590202Y-58926710D01*
X83293807Y-58951222D01*
X83159998Y-58961604D01*
X83041349Y-58971131D01*
X82944023Y-58979283D01*
X82874185Y-58985538D01*
X82838000Y-58989375D01*
X82834341Y-58990101D01*
X82849588Y-59002086D01*
X82894421Y-59031986D01*
X82962343Y-59075582D01*
X83046853Y-59128654D01*
X83067175Y-59141275D01*
X83440661Y-59378677D01*
X83779523Y-59607037D01*
X84089307Y-59830677D01*
X84375555Y-60053919D01*
X84643814Y-60281086D01*
X84899627Y-60516501D01*
X85146061Y-60761923D01*
X85414188Y-61052069D01*
X85650027Y-61336609D01*
X85860755Y-61625261D01*
X86053546Y-61927741D01*
X86204382Y-62194954D01*
X86266290Y-62312137D01*
X86309162Y-62398002D01*
X86335175Y-62457865D01*
X86346508Y-62497040D01*
X86345339Y-62520844D01*
X86341012Y-62528329D01*
X86309327Y-62554472D01*
X86294352Y-62559122D01*
X86271063Y-62547392D01*
X86219357Y-62514825D01*
X86145147Y-62465355D01*
X86054345Y-62402916D01*
X85963569Y-62339056D01*
X85794917Y-62221654D01*
X85651526Y-62128363D01*
X85526277Y-62056021D01*
X85412053Y-62001469D01*
X85301736Y-61961545D01*
X85188206Y-61933088D01*
X85064346Y-61912938D01*
X84982883Y-61903598D01*
X84825209Y-61892857D01*
X84695647Y-61897590D01*
X84582240Y-61919606D01*
X84473029Y-61960717D01*
X84415156Y-61989587D01*
X84311750Y-62049883D01*
X84210726Y-62120301D01*
X84109711Y-62203649D01*
X84006334Y-62302737D01*
X83898220Y-62420375D01*
X83782999Y-62559370D01*
X83658296Y-62722533D01*
X83521740Y-62912673D01*
X83370957Y-63132598D01*
X83203576Y-63385117D01*
X83093862Y-63553955D01*
X82934697Y-63799235D01*
X82794852Y-64011959D01*
X82671659Y-64195748D01*
X82562452Y-64354221D01*
X82464563Y-64490999D01*
X82375324Y-64609701D01*
X82292068Y-64713948D01*
X82212127Y-64807358D01*
X82132834Y-64893552D01*
X82051521Y-64976151D01*
X82031154Y-64996090D01*
X81885154Y-65127897D01*
X81721941Y-65257608D01*
X81547210Y-65382015D01*
X81366661Y-65497910D01*
X81185990Y-65602087D01*
X81010896Y-65691337D01*
X80847075Y-65762454D01*
X80700226Y-65812228D01*
X80576046Y-65837453D01*
X80532225Y-65839955D01*
X80475178Y-65843313D01*
X80440829Y-65851817D01*
X80436307Y-65856969D01*
X80451940Y-65885973D01*
X80499520Y-65932843D01*
X80580068Y-65998386D01*
X80694603Y-66083413D01*
X80844146Y-66188733D01*
X80923140Y-66242967D01*
X81094982Y-66361608D01*
X81238636Y-66464596D01*
X81361993Y-66558422D01*
X81472946Y-66649576D01*
X81579386Y-66744549D01*
X81689206Y-66849831D01*
X81810298Y-66971913D01*
X81813505Y-66975202D01*
X81977994Y-67150948D01*
X82149783Y-67348541D01*
X82332295Y-67572142D01*
X82528955Y-67825912D01*
X82680009Y-68027983D01*
X82875912Y-68293068D01*
X83049461Y-68526902D01*
X83203109Y-68732540D01*
X83339312Y-68913035D01*
X83460521Y-69071439D01*
X83569190Y-69210807D01*
X83667774Y-69334190D01*
X83758725Y-69444644D01*
X83844498Y-69545220D01*
X83927546Y-69638972D01*
X84010322Y-69728953D01*
X84095280Y-69818216D01*
X84184874Y-69909816D01*
X84223702Y-69948942D01*
X84426316Y-70144229D01*
X84612960Y-70306074D01*
X84788551Y-70437855D01*
X84958003Y-70542950D01*
X85126234Y-70624740D01*
X85295845Y-70685903D01*
X85425309Y-70730609D01*
X85515129Y-70776236D01*
X85565890Y-70826249D01*
X85578176Y-70884119D01*
X85552572Y-70953311D01*
X85489660Y-71037295D01*
X85390026Y-71139539D01*
X85374701Y-71154075D01*
X85223722Y-71286553D01*
X85040581Y-71431081D01*
X84830996Y-71584214D01*
X84600684Y-71742510D01*
X84355362Y-71902522D01*
X84100748Y-72060806D01*
X83842557Y-72213917D01*
X83586508Y-72358412D01*
X83338317Y-72490845D01*
X83103702Y-72607772D01*
X82888379Y-72705748D01*
X82698066Y-72781329D01*
X82641508Y-72800841D01*
X82278261Y-72902079D01*
X81884234Y-72977387D01*
X81461843Y-73027103D01*
X81013502Y-73051567D01*
X80541629Y-73051117D01*
X80048638Y-73026094D01*
X79536946Y-72976837D01*
X79008968Y-72903684D01*
X78467121Y-72806976D01*
X77913819Y-72687051D01*
X77351479Y-72544249D01*
X76782517Y-72378908D01*
X76209348Y-72191369D01*
X75634388Y-71981971D01*
X75060053Y-71751052D01*
X75007057Y-71728622D01*
X74789659Y-71632973D01*
X74545046Y-71519704D01*
X74282132Y-71393263D01*
X74009832Y-71258093D01*
X73737060Y-71118640D01*
X73472730Y-70979350D01*
X73225755Y-70844666D01*
X73155408Y-70805276D01*
X73029176Y-70734652D01*
X72912111Y-70670183D01*
X72810274Y-70615125D01*
X72729726Y-70572734D01*
X72676529Y-70546269D01*
X72661063Y-70539660D01*
X72600200Y-70518443D01*
X72637394Y-70576324D01*
X72684474Y-70644079D01*
X72752382Y-70732851D01*
X72842769Y-70844645D01*
X72957285Y-70981466D01*
X73097580Y-71145318D01*
X73251165Y-71322035D01*
X73516345Y-71628232D01*
X73754291Y-71909024D01*
X73968192Y-72168444D01*
X74161234Y-72410524D01*
X74336607Y-72639298D01*
X74497498Y-72858800D01*
X74647094Y-73073062D01*
X74715143Y-73174205D01*
X75024817Y-73674863D01*
X75296924Y-74188151D01*
X75530322Y-74711475D01*
X75723870Y-75242243D01*
X75876426Y-75777862D01*
X75894144Y-75851788D01*
X75957651Y-76174894D01*
X76004493Y-76524976D01*
X76034697Y-76893568D01*
X76048291Y-77272200D01*
X76045304Y-77652404D01*
X76025763Y-78025713D01*
X75989697Y-78383659D01*
X75937135Y-78717772D01*
X75883807Y-78959926D01*
X75831265Y-79154874D01*
X75781763Y-79310941D01*
X75733556Y-79431310D01*
X75684899Y-79519162D01*
X75634048Y-79577677D01*
X75579257Y-79610039D01*
X75522106Y-79619455D01*
X75478187Y-79615959D01*
X75430321Y-79603526D01*
X75372616Y-79579239D01*
X75299180Y-79540182D01*
X75204124Y-79483438D01*
X75081557Y-79406089D01*
X75049180Y-79385287D01*
X74861656Y-79268206D01*
X74678072Y-79161830D01*
X74492076Y-79063265D01*
X74297317Y-78969618D01*
X74087443Y-78877996D01*
X73856102Y-78785503D01*
X73596943Y-78689246D01*
X73303614Y-78586332D01*
X73271390Y-78575301D01*
X72914333Y-78452239D01*
X72593841Y-78339228D01*
X72305849Y-78234442D01*
X72046288Y-78136059D01*
X71811089Y-78042256D01*
X71596186Y-77951209D01*
X71397511Y-77861094D01*
X71210995Y-77770089D01*
X71032571Y-77676370D01*
X70858171Y-77578114D01*
X70683728Y-77473498D01*
X70505173Y-77360697D01*
X70382140Y-77280246D01*
X70127354Y-77100339D01*
X69857789Y-76889116D01*
X69579265Y-76652246D01*
X69297606Y-76395395D01*
X69018633Y-76124230D01*
X68748167Y-75844419D01*
X68492032Y-75561628D01*
X68256049Y-75281525D01*
X68046040Y-75009777D01*
X68037153Y-74997644D01*
X67957303Y-74894890D01*
X67883307Y-74818322D01*
X67804972Y-74761603D01*
X67712104Y-74718397D01*
X67594510Y-74682366D01*
X67490163Y-74657609D01*
X67222728Y-74584245D01*
X66956702Y-74481618D01*
X66681792Y-74345727D01*
X66667390Y-74337857D01*
X66468732Y-74230481D01*
X66293071Y-74138924D01*
X66142637Y-74064221D01*
X66019660Y-74007406D01*
X65926368Y-73969511D01*
X65864992Y-73951570D01*
X65838589Y-73953617D01*
X65843104Y-73969025D01*
X65867142Y-74006541D01*
X65911876Y-74067667D01*
X65978481Y-74153904D01*
X66068131Y-74266756D01*
X66182001Y-74407722D01*
X66321264Y-74578305D01*
X66441940Y-74725194D01*
X66872058Y-75276340D01*
X67283151Y-75860582D01*
X67671414Y-76471515D01*
X68033042Y-77102731D01*
X68364227Y-77747823D01*
X68661165Y-78400386D01*
X68745772Y-78603455D01*
X68814186Y-78778659D01*
X68888605Y-78981932D01*
X68965844Y-79203545D01*
X69042717Y-79433772D01*
X69116036Y-79662887D01*
X69182616Y-79881160D01*
X69239271Y-80078867D01*
X69279657Y-80233288D01*
X69334796Y-80470286D01*
X69380709Y-80695833D01*
X69418093Y-80916853D01*
X69447645Y-81140267D01*
X69470063Y-81372995D01*
X69486044Y-81621961D01*
X69496285Y-81894084D01*
X69501483Y-82196288D01*
X69502493Y-82445205D01*
X69499038Y-82792261D01*
X69489160Y-83119809D01*
X69473175Y-83425396D01*
X69451400Y-83706566D01*
X69424152Y-83960868D01*
X69391746Y-84185846D01*
X69354500Y-84379047D01*
X69312730Y-84538018D01*
X69266753Y-84660305D01*
X69216884Y-84743454D01*
X69204197Y-84757489D01*
X69171649Y-84783005D01*
X69133652Y-84796503D01*
X69086627Y-84796455D01*
X69026996Y-84781332D01*
X68951180Y-84749606D01*
X68855603Y-84699749D01*
X68736684Y-84630234D01*
X68590847Y-84539530D01*
X68414513Y-84426111D01*
X68388162Y-84408967D01*
X68212783Y-84295508D01*
X68062976Y-84200693D01*
X67929451Y-84119156D01*
X67802915Y-84045528D01*
X67674077Y-83974442D01*
X67533645Y-83900530D01*
X67372327Y-83818425D01*
X67323135Y-83793730D01*
X67126956Y-83696965D01*
X66937359Y-83606874D01*
X66750326Y-83521994D01*
X66561841Y-83440863D01*
X66367886Y-83362016D01*
X66164446Y-83283993D01*
X65947504Y-83205329D01*
X65713044Y-83124562D01*
X65457048Y-83040230D01*
X65175500Y-82950869D01*
X64864384Y-82855017D01*
X64519683Y-82751210D01*
X64201474Y-82656864D01*
X63821312Y-82543768D01*
X63479567Y-82439843D01*
X63173556Y-82344125D01*
X62900592Y-82255648D01*
X62657993Y-82173448D01*
X62443073Y-82096559D01*
X62253147Y-82024016D01*
X62085532Y-81954855D01*
X61937542Y-81888111D01*
X61806494Y-81822817D01*
X61689702Y-81758010D01*
X61672057Y-81747560D01*
X61483583Y-81626745D01*
X61293250Y-81489592D01*
X61105944Y-81340735D01*
X60926553Y-81184812D01*
X60759964Y-81026457D01*
X60611064Y-80870308D01*
X60484740Y-80720999D01*
X60385879Y-80583166D01*
X60321604Y-80466525D01*
X60279335Y-80371679D01*
X60207448Y-80561775D01*
X60139784Y-80739466D01*
X60083408Y-80884113D01*
X60035339Y-81002529D01*
X59992596Y-81101528D01*
X59952198Y-81187922D01*
X59911165Y-81268524D01*
X59866515Y-81350147D01*
X59848907Y-81381225D01*
X59739612Y-81561600D01*
X59618634Y-81738831D01*
X59483416Y-81915461D01*
X59331401Y-82094034D01*
X59160032Y-82277097D01*
X58966754Y-82467193D01*
X58749009Y-82666868D01*
X58504241Y-82878665D01*
X58229893Y-83105130D01*
X57923409Y-83348806D01*
X57691597Y-83528512D01*
X57399156Y-83763164D01*
X57145799Y-83988340D01*
X56929930Y-84206277D01*
X56749952Y-84419211D01*
X56604268Y-84629381D01*
X56491284Y-84839022D01*
X56409401Y-85050372D01*
X56357023Y-85265668D01*
X56336432Y-85427463D01*
X56333155Y-85509873D01*
X56333422Y-85622536D01*
X56336968Y-85753544D01*
X56343526Y-85890989D01*
X56348466Y-85967040D01*
X56356376Y-86086824D01*
X56361923Y-86191475D01*
X56364840Y-86273890D01*
X56364862Y-86326967D01*
X56362571Y-86343579D01*
X56341805Y-86336613D01*
X56293800Y-86308859D01*
X56225429Y-86264599D01*
X56143563Y-86208113D01*
X56132576Y-86200300D01*
X55938375Y-86047636D01*
X55733588Y-85860649D01*
X55522559Y-85644627D01*
X55309632Y-85404861D01*
X55099154Y-85146639D01*
X54895466Y-84875252D01*
X54702915Y-84595988D01*
X54525845Y-84314138D01*
X54395691Y-84085622D01*
X54225835Y-83741806D01*
X54069680Y-83365369D01*
X53929689Y-82964504D01*
X53808324Y-82547404D01*
X53708047Y-82122262D01*
X53631321Y-81697270D01*
X53594752Y-81420596D01*
X53581558Y-81316443D01*
X53569386Y-81247481D01*
X53558777Y-81216263D01*
X53552030Y-81219513D01*
X53545183Y-81250130D01*
X53533461Y-81317091D01*
X53517737Y-81414797D01*
X53498882Y-81537652D01*
X53477767Y-81680056D01*
X53455265Y-81836412D01*
X53448503Y-81884288D01*
X53380658Y-82343732D01*
X53311114Y-82765123D01*
X53238397Y-83152738D01*
X53161030Y-83510858D01*
X53077537Y-83843761D01*
X52986442Y-84155725D01*
X52886268Y-84451031D01*
X52775540Y-84733957D01*
X52652781Y-85008781D01*
X52516515Y-85279784D01*
X52365267Y-85551243D01*
X52197560Y-85827438D01*
X52011917Y-86112648D01*
X51966695Y-86179723D01*
X51850594Y-86346088D01*
X51723126Y-86520177D01*
X51587107Y-86698783D01*
X51445351Y-86878696D01*
X51300672Y-87056707D01*
X51155887Y-87229608D01*
X51013810Y-87394190D01*
X50877255Y-87547244D01*
X50749037Y-87685561D01*
X50631972Y-87805933D01*
X50528874Y-87905150D01*
X50442558Y-87980005D01*
X50375839Y-88027287D01*
X50331531Y-88043788D01*
X50331492Y-88043788D01*
X50284581Y-88027565D01*
X50226808Y-87984289D01*
X50206537Y-87964413D01*
X50165540Y-87918068D01*
X50106380Y-87846718D01*
X50036261Y-87759249D01*
X49962388Y-87664547D01*
X49944818Y-87641622D01*
X49838398Y-87504088D01*
X49715201Y-87348374D01*
X49573317Y-87172137D01*
X49410836Y-86973034D01*
X49225848Y-86748722D01*
X49016445Y-86496860D01*
X48823212Y-86265788D01*
X48503346Y-85877361D01*
X48210727Y-85506958D01*
X47939521Y-85146188D01*
X47683894Y-84786658D01*
X47438012Y-84419979D01*
X47196042Y-84037759D01*
X46952149Y-83631606D01*
X46759304Y-83297163D01*
X46700340Y-83194445D01*
X46648311Y-83105971D01*
X46606853Y-83037751D01*
X46579602Y-82995796D01*
X46570559Y-82985170D01*
X46557924Y-83003222D01*
X46529475Y-83053405D01*
X46488297Y-83129973D01*
X46437475Y-83227175D01*
X46380094Y-83339263D01*
X46372386Y-83354484D01*
X46196035Y-83678758D01*
X45995920Y-84003355D01*
X45775921Y-84323859D01*
X45539920Y-84635854D01*
X45291797Y-84934925D01*
X45035433Y-85216658D01*
X44774709Y-85476638D01*
X44513506Y-85710448D01*
X44255705Y-85913674D01*
X44005187Y-86081900D01*
X43942462Y-86118939D01*
X43826541Y-86180398D01*
X43741125Y-86213715D01*
X43684807Y-86218559D01*
X43656176Y-86194601D01*
X43653824Y-86141512D01*
X43676341Y-86058961D01*
X43677097Y-86056835D01*
X43710208Y-85938204D01*
X43738509Y-85786185D01*
X43761481Y-85609503D01*
X43778608Y-85416886D01*
X43789371Y-85217058D01*
X43793253Y-85018747D01*
X43789737Y-84830679D01*
X43778305Y-84661579D01*
X43765745Y-84561872D01*
X43722421Y-84341635D01*
X43661367Y-84123572D01*
X43580818Y-83904729D01*
X43479013Y-83682148D01*
X43354189Y-83452873D01*
X43204583Y-83213950D01*
X43028432Y-82962422D01*
X42823974Y-82695334D01*
X42589446Y-82409728D01*
X42323086Y-82102650D01*
X42251040Y-82021872D01*
X41999361Y-81736439D01*
X41777414Y-81474551D01*
X41582400Y-81232656D01*
X41411525Y-81007203D01*
X41261992Y-80794642D01*
X41154506Y-80629337D01*
X41096372Y-80531309D01*
X41033165Y-80416386D01*
X40970730Y-80296041D01*
X40914914Y-80181745D01*
X40871563Y-80084970D01*
X40853352Y-80038359D01*
X40825593Y-79959846D01*
X40780074Y-80101859D01*
X40748031Y-80189768D01*
X40704054Y-80295004D01*
X40656521Y-80397752D01*
X40646158Y-80418570D01*
X40431983Y-80795321D01*
X40182609Y-81149939D01*
X39899939Y-81480677D01*
X39585877Y-81785784D01*
X39242328Y-82063514D01*
X38871194Y-82312115D01*
X38474380Y-82529841D01*
X38220605Y-82646711D01*
X37980118Y-82745172D01*
X37737942Y-82834391D01*
X37488776Y-82915721D01*
X37227318Y-82990516D01*
X36948267Y-83060128D01*
X36646322Y-83125911D01*
X36316182Y-83189218D01*
X35952544Y-83251403D01*
X35689974Y-83292739D01*
X35332801Y-83350157D01*
X35012636Y-83408231D01*
X34724168Y-83468768D01*
X34462087Y-83533574D01*
X34221082Y-83604454D01*
X33995842Y-83683216D01*
X33781057Y-83771664D01*
X33571418Y-83871604D01*
X33361612Y-83984843D01*
X33146331Y-84113186D01*
X32995615Y-84209026D01*
X32846097Y-84305313D01*
X32727261Y-84379636D01*
X32635011Y-84434170D01*
X32565249Y-84471087D01*
X32513881Y-84492562D01*
X32476809Y-84500768D01*
X32450724Y-84498134D01*
X32434151Y-84488771D01*
X32417658Y-84468626D01*
X32399702Y-84433309D01*
X32378746Y-84378429D01*
X32353248Y-84299596D01*
X32321669Y-84192420D01*
X32282468Y-84052510D01*
X32240243Y-83898084D01*
X32111108Y-83374400D01*
X32011428Y-82858721D01*
X31938329Y-82334573D01*
X31901806Y-81958372D01*
X31893317Y-81821279D01*
X31886928Y-81651278D01*
X31882643Y-81457739D01*
X31880466Y-81250035D01*
X31880399Y-81037538D01*
X31882447Y-80829620D01*
X31886614Y-80635653D01*
X31892901Y-80465009D01*
X31901196Y-80328538D01*
X31975707Y-79655270D01*
X32091712Y-78984415D01*
X32248378Y-78318860D01*
X32444867Y-77661492D01*
X32680345Y-77015197D01*
X32953977Y-76382861D01*
X33169355Y-75947038D01*
X33297568Y-75707032D01*
X33433348Y-75464284D01*
X33573665Y-75223540D01*
X33715487Y-74989547D01*
X33855786Y-74767052D01*
X33991529Y-74560801D01*
X34119688Y-74375542D01*
X34237231Y-74216021D01*
X34341128Y-74086984D01*
X34395662Y-74026163D01*
X34423848Y-73996871D01*
X34442596Y-73975108D01*
X34447594Y-73960449D01*
X34434533Y-73952467D01*
X34399101Y-73950735D01*
X34336988Y-73954826D01*
X34243884Y-73964314D01*
X34115479Y-73978772D01*
X34023035Y-73989277D01*
X33795204Y-74016964D01*
X33604761Y-74044938D01*
X33446779Y-74074778D01*
X33316334Y-74108063D01*
X33208499Y-74146371D01*
X33118348Y-74191282D01*
X33040955Y-74244373D01*
X32971394Y-74307224D01*
X32945364Y-74334679D01*
X32903380Y-74385561D01*
X32843362Y-74465067D01*
X32770275Y-74566278D01*
X32689078Y-74682272D01*
X32604735Y-74806130D01*
X32569828Y-74858434D01*
X32363309Y-75163541D01*
X32168827Y-75436931D01*
X31980926Y-75685438D01*
X31794148Y-75915893D01*
X31603039Y-76135130D01*
X31402140Y-76349982D01*
X31277361Y-76476901D01*
X30897171Y-76834609D01*
X30511049Y-77151972D01*
X30115327Y-77430922D01*
X29706339Y-77673386D01*
X29280418Y-77881294D01*
X28833895Y-78056574D01*
X28363105Y-78201157D01*
X27864379Y-78316972D01*
X27731307Y-78342313D01*
X27496623Y-78371582D01*
X27235363Y-78379984D01*
X26957676Y-78367706D01*
X26673713Y-78334939D01*
X26588307Y-78321053D01*
X26369731Y-78280921D01*
X26193168Y-78243866D01*
X26058413Y-78209833D01*
X25965260Y-78178772D01*
X25913504Y-78150631D01*
X25912214Y-78149494D01*
X25875861Y-78096195D01*
X25839064Y-78003117D01*
X25802272Y-77872807D01*
X25765938Y-77707809D01*
X25730510Y-77510669D01*
X25696441Y-77283932D01*
X25664180Y-77030144D01*
X25634178Y-76751851D01*
X25606887Y-76451597D01*
X25602836Y-76402122D01*
X25591635Y-76228415D01*
X25583508Y-76028702D01*
X25578377Y-75810355D01*
X25576169Y-75580749D01*
X25576806Y-75347256D01*
X25580212Y-75117250D01*
X25586313Y-74898106D01*
X25595031Y-74697195D01*
X25606291Y-74521892D01*
X25620018Y-74379570D01*
X25623971Y-74348955D01*
X25677118Y-74021598D01*
X25746172Y-73699957D01*
X25833164Y-73377771D01*
X25940126Y-73048781D01*
X26069089Y-72706727D01*
X26222085Y-72345351D01*
X26396957Y-71967130D01*
X26515900Y-71724776D01*
X26627273Y-71511417D01*
X26737290Y-71316022D01*
X26852167Y-71127560D01*
X26978119Y-70935001D01*
X26980301Y-70931762D01*
X27160221Y-70664883D01*
X27070056Y-70710468D01*
X27025186Y-70733782D01*
X26949856Y-70773627D01*
X26850839Y-70826391D01*
X26734907Y-70888460D01*
X26608834Y-70956220D01*
X26552769Y-70986435D01*
X25867297Y-71332404D01*
X25167852Y-71638427D01*
X24454754Y-71904396D01*
X23728322Y-72130205D01*
X22988875Y-72315746D01*
X22236732Y-72460913D01*
X22089973Y-72484297D01*
X21390268Y-72571102D01*
X20692300Y-72615705D01*
X19994867Y-72618138D01*
X19296762Y-72578430D01*
X19096187Y-72559263D01*
X18824336Y-72528581D01*
X18594065Y-72497427D01*
X18404619Y-72465628D01*
X18255246Y-72433008D01*
X18145191Y-72399393D01*
X18073702Y-72364607D01*
X18040026Y-72328476D01*
X18036974Y-72313345D01*
X18046918Y-72265729D01*
X18076656Y-72181114D01*
X18126042Y-72059845D01*
X18194931Y-71902267D01*
X18283179Y-71708726D01*
X18351794Y-71561804D01*
X18435973Y-71380590D01*
X18511330Y-71212405D01*
X18579536Y-71052196D01*
X18642262Y-70894907D01*
X18701178Y-70735484D01*
X18757955Y-70568875D01*
X18814264Y-70390023D01*
X18871774Y-70193877D01*
X18932158Y-69975380D01*
X18997084Y-69729480D01*
X19068224Y-69451121D01*
X19127153Y-69216038D01*
X19213208Y-68873968D01*
X19291665Y-68569469D01*
X19363639Y-68298685D01*
X19430248Y-68057759D01*
X19492607Y-67842836D01*
X19551834Y-67650059D01*
X19609045Y-67475574D01*
X19665357Y-67315524D01*
X19717640Y-67176916D01*
X19836069Y-66890170D01*
X19957656Y-66633116D01*
X20087904Y-66397288D01*
X20232316Y-66174219D01*
X20396392Y-65955442D01*
X20585636Y-65732493D01*
X20805550Y-65496905D01*
X20817520Y-65484569D01*
X20906618Y-65392064D01*
X20983996Y-65310121D01*
X21045359Y-65243421D01*
X21086412Y-65196648D01*
X21102861Y-65174485D01*
X21102860Y-65173452D01*
X21079766Y-65167896D01*
X21022726Y-65158834D01*
X20939867Y-65147440D01*
X20839319Y-65134888D01*
X20819718Y-65132566D01*
X20606969Y-65102871D01*
X20423913Y-65065986D01*
X20258085Y-65018555D01*
X20097019Y-64957223D01*
X19992135Y-64909819D01*
X19868622Y-64848196D01*
X19748231Y-64781639D01*
X19627872Y-64707636D01*
X19504453Y-64623679D01*
X19374884Y-64527257D01*
X19236075Y-64415860D01*
X19084936Y-64286977D01*
X18918374Y-64138098D01*
X18733300Y-63966714D01*
X18526623Y-63770314D01*
X18295252Y-63546387D01*
X18205475Y-63458705D01*
X17963172Y-63223727D01*
X17746035Y-63018095D01*
X17551083Y-62839533D01*
X17375335Y-62685765D01*
X17215811Y-62554516D01*
X17069530Y-62443510D01*
X16933512Y-62350471D01*
X16804776Y-62273124D01*
X16680342Y-62209193D01*
X16557229Y-62156402D01*
X16449474Y-62117960D01*
X16204924Y-62058420D01*
X15937215Y-62030885D01*
X15650496Y-62035007D01*
X15348914Y-62070445D01*
X15036619Y-62136852D01*
X14717758Y-62233884D01*
X14618557Y-62270004D01*
X14536206Y-62300195D01*
X14470020Y-62322637D01*
X14428967Y-62334387D01*
X14420151Y-62335098D01*
X14424033Y-62312220D01*
X14446858Y-62259636D01*
X14485180Y-62183568D01*
X14535552Y-62090239D01*
X14594531Y-61985872D01*
X14658670Y-61876689D01*
X14724524Y-61768914D01*
X14788648Y-61668769D01*
X14791342Y-61664686D01*
X14971938Y-61406447D01*
X15178020Y-61138001D01*
X15403516Y-60865902D01*
X15642350Y-60596705D01*
X15888450Y-60336963D01*
X16135741Y-60093231D01*
X16378150Y-59872063D01*
X16609601Y-59680014D01*
X16682028Y-59624528D01*
X16774537Y-59554570D01*
X16853817Y-59493301D01*
X16914202Y-59445206D01*
X16950029Y-59414768D01*
X16957474Y-59406470D01*
X16937943Y-59397965D01*
X16883473Y-59381138D01*
X16800249Y-59357721D01*
X16694453Y-59329443D01*
X16572270Y-59298036D01*
X16550015Y-59292435D01*
X16113469Y-59174142D01*
X15711292Y-59046158D01*
X15336046Y-58905455D01*
X14980296Y-58749007D01*
X14636603Y-58573786D01*
X14297532Y-58376766D01*
X14291768Y-58373213D01*
X14070359Y-58230065D01*
X13857546Y-58078250D01*
X13645920Y-57911831D01*
X13428072Y-57724869D01*
X13196591Y-57511426D01*
X13096815Y-57415650D01*
X12818826Y-57138761D01*
X12570825Y-56875392D01*
X12346180Y-56617823D01*
X12138260Y-56358336D01*
X11940431Y-56089214D01*
X11870186Y-55988163D01*
X11667950Y-55693122D01*
X11765676Y-55511913D01*
X11852860Y-55358028D01*
X11944347Y-55213620D01*
X12044783Y-55072946D01*
X12158811Y-54930263D01*
X12291074Y-54779826D01*
X12446217Y-54615893D01*
X12628883Y-54432719D01*
X12673800Y-54388706D01*
X12996004Y-54086623D01*
X13314568Y-53814594D01*
X13634475Y-53569936D01*
X13960705Y-53349969D01*
X14298239Y-53152011D01*
X14652059Y-52973381D01*
X15027146Y-52811397D01*
X15428480Y-52663378D01*
X15861044Y-52526642D01*
X16329818Y-52398507D01*
X16407140Y-52378969D01*
X16550377Y-52343002D01*
X16680978Y-52309940D01*
X16793016Y-52281306D01*
X16880560Y-52258623D01*
X16937682Y-52243412D01*
X16957474Y-52237654D01*
X16945911Y-52228369D01*
X16898573Y-52207305D01*
X16819831Y-52176110D01*
X16714056Y-52136435D01*
X16585620Y-52089927D01*
X16438894Y-52038236D01*
X16322474Y-51998083D01*
X15933782Y-51863168D01*
X15582640Y-51736578D01*
X15265520Y-51616401D01*
X14978895Y-51500724D01*
X14719240Y-51387635D01*
X14483025Y-51275221D01*
X14266725Y-51161569D01*
X14066811Y-51044767D01*
X13879758Y-50922901D01*
X13702039Y-50794059D01*
X13530125Y-50656329D01*
X13360490Y-50507797D01*
X13189607Y-50346551D01*
X13083974Y-50241861D01*
X12884954Y-50034886D01*
X12702137Y-49829956D01*
X12529908Y-49619705D01*
X12362652Y-49396768D01*
X12194754Y-49153779D01*
X12020600Y-48883375D01*
X11904987Y-48695371D01*
X11735411Y-48419286D01*
X11569534Y-48156741D01*
X11411035Y-47913360D01*
X11263597Y-47694773D01*
X11130899Y-47506605D01*
X11097238Y-47460610D01*
X11036888Y-47377850D01*
X10985805Y-47305786D01*
X10949353Y-47252124D01*
X10932895Y-47224567D01*
X10932861Y-47224479D01*
X10945609Y-47200235D01*
X10993501Y-47156456D01*
X11074873Y-47094515D01*
X11176602Y-47023529D01*
X11331669Y-46912822D01*
X11506110Y-46778610D01*
X11690581Y-46628490D01*
X11875739Y-46470062D01*
X12046921Y-46315855D01*
X12092135Y-46273762D01*
X12163166Y-46207389D01*
X12254982Y-46121448D01*
X12362552Y-46020652D01*
X12480846Y-45909714D01*
X12604833Y-45793344D01*
X12639588Y-45760708D01*
X12870138Y-45545339D01*
X13074852Y-45356795D01*
X13257647Y-45191786D01*
X13422437Y-45047020D01*
X13573139Y-44919207D01*
X13713667Y-44805057D01*
X13847938Y-44701277D01*
X13979867Y-44604578D01*
X14113370Y-44511668D01*
X14175419Y-44469942D01*
X14356300Y-44356680D01*
X14560550Y-44240918D01*
X14775145Y-44129333D01*
X14987060Y-44028600D01*
X15183275Y-43945395D01*
X15242974Y-43922696D01*
X15333879Y-43888598D01*
X15410068Y-43858658D01*
X15462712Y-43836432D01*
X15482333Y-43826280D01*
X15483064Y-43815679D01*
X15465860Y-43797284D01*
X15427357Y-43768909D01*
X15364191Y-43728363D01*
X15273001Y-43673460D01*
X15150424Y-43602011D01*
X15041890Y-43539692D01*
X14660087Y-43309028D01*
X14310199Y-43070620D01*
X13981808Y-42816539D01*
X13664497Y-42538861D01*
X13431750Y-42314582D01*
X13236262Y-42112965D01*
X13052296Y-41909598D01*
X12875708Y-41698983D01*
X12702352Y-41475621D01*
X12528081Y-41234014D01*
X12348752Y-40968665D01*
X12160218Y-40674075D01*
X12006288Y-40424059D01*
X11810338Y-40101246D01*
X11898773Y-39947809D01*
X11980180Y-39812636D01*
X12061727Y-39691633D01*
X12150482Y-39575940D01*
X12253517Y-39456694D01*
X12377900Y-39325035D01*
X12468784Y-39233340D01*
X12806092Y-38916140D01*
X13140837Y-38639199D01*
X13475426Y-38400733D01*
X13812263Y-38198960D01*
X13983557Y-38110651D01*
X14418241Y-37914287D01*
X14861434Y-37746255D01*
X15319397Y-37604747D01*
X15798388Y-37487956D01*
X16304667Y-37394074D01*
X16624098Y-37347994D01*
X16711473Y-37335399D01*
X16780518Y-37323115D01*
X16822249Y-37312875D01*
X16830473Y-37308193D01*
X16814148Y-37289845D01*
X16774227Y-37262086D01*
X16768051Y-37258375D01*
X16697168Y-37213087D01*
X16601938Y-37147433D01*
X16490889Y-37067723D01*
X16372547Y-36980265D01*
X16255438Y-36891370D01*
X16148089Y-36807346D01*
X16059026Y-36734503D01*
X16051805Y-36728375D01*
X15949079Y-36637003D01*
X15826341Y-36521675D01*
X15691449Y-36390298D01*
X15552262Y-36250779D01*
X15416639Y-36111024D01*
X15292439Y-35978942D01*
X15187522Y-35862440D01*
X15163298Y-35834421D01*
X15057449Y-35706332D01*
X14939411Y-35556209D01*
X14814743Y-35391744D01*
X14689004Y-35220624D01*
X14567752Y-35050539D01*
X14456546Y-34889177D01*
X14360945Y-34744228D01*
X14286507Y-34623381D01*
X14281340Y-34614477D01*
X14241316Y-34529780D01*
X14234255Y-34471603D01*
X14260153Y-34439965D01*
X14319002Y-34434887D01*
X14333087Y-34436795D01*
X14385627Y-34448462D01*
X14466653Y-34470278D01*
X14564502Y-34498967D01*
X14653704Y-34526799D01*
X14930634Y-34594065D01*
X15211374Y-34619655D01*
X15494567Y-34603908D01*
X15778856Y-34547165D01*
X16062881Y-34449765D01*
X16345287Y-34312049D01*
X16624716Y-34134356D01*
X16820771Y-33983939D01*
X16915948Y-33899098D01*
X17034259Y-33782635D01*
X17173556Y-33636886D01*
X17331691Y-33464183D01*
X17506517Y-33266860D01*
X17695886Y-33047252D01*
X17843193Y-32872872D01*
X18056150Y-32622512D01*
X18249595Y-32403624D01*
X18427445Y-32212416D01*
X18593617Y-32045101D01*
X18752028Y-31897889D01*
X18906593Y-31766990D01*
X19061230Y-31648616D01*
X19219855Y-31538977D01*
X19226281Y-31534757D01*
X19412870Y-31421158D01*
X19610892Y-31318554D01*
X19827309Y-31224015D01*
X20069080Y-31134609D01*
X20343168Y-31047407D01*
X20473420Y-31009653D01*
X20613283Y-30970125D01*
X20356698Y-30672665D01*
X20201588Y-30489641D01*
X20071561Y-30328253D01*
X19961247Y-30180729D01*
X19865276Y-30039297D01*
X19778279Y-29896184D01*
X19694888Y-29743618D01*
X19639416Y-29634372D01*
X19550514Y-29443767D01*
X19470214Y-29246626D01*
X19397834Y-29039498D01*
X19332692Y-28818930D01*
X19274106Y-28581473D01*
X19221397Y-28323675D01*
X19173881Y-28042085D01*
X19130878Y-27733253D01*
X19091705Y-27393726D01*
X19055683Y-27020055D01*
X19022128Y-26608787D01*
X19010373Y-26448788D01*
X18986972Y-26137778D01*
X18963774Y-25864480D01*
X18940153Y-25624281D01*
X18915480Y-25412568D01*
X18889128Y-25224729D01*
X18860471Y-25056150D01*
X18828880Y-24902218D01*
X18793728Y-24758320D01*
X18767717Y-24664694D01*
X18716958Y-24507516D01*
X18658208Y-24362344D01*
X18586822Y-24220727D01*
X18498160Y-24074214D01*
X18387578Y-23914353D01*
X18268821Y-23756404D01*
X18183411Y-23641185D01*
X18128357Y-23553149D01*
X18104402Y-23489229D01*
X18112288Y-23446356D01*
X18152757Y-23421463D01*
X18226552Y-23411483D01*
X18334414Y-23413347D01*
X18351586Y-23414336D01*
X18428223Y-23419527D01*
X18537638Y-23427644D01*
X18670433Y-23437954D01*
X18817211Y-23449724D01*
X18968574Y-23462220D01*
X19010640Y-23465761D01*
X19179586Y-23478935D01*
X19376007Y-23492438D01*
X19585064Y-23505362D01*
X19791916Y-23516802D01*
X19981724Y-23525851D01*
X20021349Y-23527496D01*
X20210955Y-23535127D01*
X20426436Y-23543829D01*
X20651370Y-23552937D01*
X20869335Y-23561786D01*
X21063907Y-23569710D01*
X21090265Y-23570787D01*
X21743310Y-23615780D01*
X22374755Y-23696757D01*
X22985939Y-23814125D01*
X23578200Y-23968287D01*
X24152877Y-24159648D01*
X24711309Y-24388613D01*
X25254833Y-24655586D01*
X25784788Y-24960973D01*
X25874677Y-25017405D01*
X26146152Y-25194735D01*
X26401280Y-25372075D01*
X26647246Y-25555128D01*
X26891230Y-25749594D01*
X27140417Y-25961174D01*
X27401988Y-26195570D01*
X27647110Y-26424284D01*
X27750353Y-26521939D01*
X27845591Y-26611678D01*
X27927748Y-26688742D01*
X27991746Y-26748376D01*
X28032508Y-26785822D01*
X28042152Y-26794368D01*
X28046251Y-26787807D01*
X28031905Y-26746531D01*
X28000356Y-26673303D01*
X27952846Y-26570887D01*
X27890615Y-26442045D01*
X27818624Y-26296949D01*
X27568052Y-25771418D01*
X27352457Y-25262305D01*
X27170403Y-24764434D01*
X27020453Y-24272631D01*
X26901173Y-23781722D01*
X26811126Y-23286531D01*
X26748876Y-22781885D01*
X26715793Y-22322726D01*
X26705911Y-22028311D01*
X26706072Y-21735732D01*
X26716729Y-21436711D01*
X26738332Y-21122972D01*
X26771333Y-20786237D01*
X26816183Y-20418231D01*
X26822064Y-20373955D01*
X26856369Y-20108825D01*
X26883385Y-19879194D01*
X26903666Y-19678961D01*
X26917766Y-19502025D01*
X26926239Y-19342283D01*
X26929641Y-19193635D01*
X26929668Y-19189603D01*
X26928513Y-19027208D01*
X26921088Y-18897250D01*
X26904930Y-18790002D01*
X26877577Y-18695742D01*
X26836566Y-18604742D01*
X26779435Y-18507278D01*
X26742649Y-18450979D01*
X26669481Y-18334756D01*
X26625606Y-18244844D01*
X26611702Y-18176361D01*
X26628446Y-18124423D01*
X26676516Y-18084146D01*
X26756586Y-18050648D01*
X26799974Y-18037410D01*
X26977267Y-17995898D01*
X27190285Y-17961158D01*
X27432942Y-17933323D01*
X27699153Y-17912526D01*
X27982833Y-17898902D01*
X28277897Y-17892584D01*
X28578260Y-17893707D01*
X28877836Y-17902403D01*
X29170540Y-17918807D01*
X29450287Y-17943053D01*
X29699807Y-17973658D01*
X30165359Y-18056889D01*
X30622114Y-18172412D01*
X31073561Y-18321642D01*
X31523188Y-18505996D01*
X31974484Y-18726893D01*
X32430938Y-18985748D01*
X32850681Y-19253443D01*
X33101498Y-19425094D01*
X33322514Y-19584663D01*
X33521990Y-19738600D01*
X33708187Y-19893357D01*
X33889364Y-20055384D01*
X33949015Y-20111130D01*
X34034262Y-20190896D01*
X34107721Y-20258311D01*
X34164413Y-20308912D01*
X34199355Y-20338235D01*
X34208307Y-20343458D01*
X34199290Y-20321255D01*
X34174384Y-20267957D01*
X34136805Y-20190250D01*
X34089771Y-20094815D01*
X34057292Y-20029714D01*
X33808651Y-19511758D01*
X33591543Y-19011378D01*
X33403466Y-18520977D01*
X33241918Y-18032958D01*
X33104397Y-17539723D01*
X32988402Y-17033674D01*
X32891429Y-16507214D01*
X32885732Y-16472149D01*
X32796036Y-15800505D01*
X32745859Y-15141827D01*
X32735212Y-14493873D01*
X32764108Y-13854401D01*
X32832557Y-13221168D01*
X32904990Y-12775122D01*
X32957558Y-12510808D01*
X33010254Y-12285233D01*
X33062865Y-12098990D01*
X33115178Y-11952670D01*
X33166980Y-11846865D01*
X33218060Y-11782167D01*
X33268203Y-11759167D01*
X33270492Y-11759122D01*
X33304612Y-11772052D01*
X33352097Y-11812188D01*
X33414672Y-11881545D01*
X33494065Y-11982136D01*
X33592001Y-12115978D01*
X33664638Y-12219197D01*
X33870308Y-12494976D01*
X34083035Y-12738564D01*
X34309328Y-12955428D01*
X34555693Y-13151032D01*
X34828638Y-13330840D01*
X35134671Y-13500317D01*
X35270590Y-13567781D01*
X35501411Y-13674137D01*
X35741100Y-13774424D01*
X35995122Y-13870508D01*
X36268946Y-13964255D01*
X36568037Y-14057530D01*
X36897861Y-14152199D01*
X37263885Y-14250129D01*
X37288057Y-14256392D01*
X37622069Y-14344491D01*
X37919343Y-14426692D01*
X38184808Y-14504578D01*
X38423393Y-14579726D01*
X38640027Y-14653718D01*
X38839641Y-14728133D01*
X39027163Y-14804550D01*
X39108390Y-14839779D01*
X39371437Y-14962783D01*
X39605920Y-15088309D01*
X39822532Y-15223420D01*
X40031965Y-15375180D01*
X40244913Y-15550654D01*
X40412582Y-15701346D01*
X40517498Y-15799102D01*
X40594819Y-15869793D01*
X40649309Y-15913647D01*
X40685733Y-15930893D01*
X40708855Y-15921758D01*
X40723439Y-15886471D01*
X40734251Y-15825261D01*
X40746054Y-15738357D01*
X40749017Y-15717472D01*
X40790841Y-15519557D01*
X40862313Y-15296125D01*
X40962239Y-15050657D01*
X41022301Y-14921156D01*
X41077477Y-14808827D01*
X41130193Y-14708045D01*
X41183472Y-14615425D01*
X41240337Y-14527582D01*
X41303813Y-14441128D01*
X41376921Y-14352679D01*
X41462686Y-14258848D01*
X41564131Y-14156249D01*
X41684279Y-14041497D01*
X41826154Y-13911204D01*
X41992779Y-13761986D01*
X42187176Y-13590456D01*
X42294577Y-13496280D01*
X42523970Y-13294060D01*
X42723354Y-13114912D01*
X42895744Y-12955420D01*
X43044153Y-12812168D01*
X43171595Y-12681739D01*
X43281083Y-12560716D01*
X43375631Y-12445682D01*
X43458251Y-12333222D01*
X43531959Y-12219917D01*
X43599767Y-12102353D01*
X43664689Y-11977111D01*
X43701445Y-11901216D01*
X43758647Y-11777117D01*
X43804412Y-11666782D01*
X43839457Y-11563835D01*
X43864501Y-11461895D01*
X43880260Y-11354587D01*
X43887452Y-11235531D01*
X43886794Y-11098350D01*
X43879004Y-10936665D01*
X43864798Y-10744099D01*
X43850451Y-10576528D01*
X43839912Y-10453169D01*
X43831419Y-10345194D01*
X43825440Y-10259326D01*
X43822445Y-10202291D01*
X43822858Y-10180848D01*
X43844439Y-10186770D01*
X43897418Y-10210789D01*
X43976440Y-10249995D01*
X44076151Y-10301475D01*
X44191195Y-10362320D01*
X44316219Y-10429617D01*
X44445867Y-10500457D01*
X44574784Y-10571928D01*
X44697617Y-10641119D01*
X44809009Y-10705119D01*
X44903607Y-10761018D01*
X44976055Y-10805903D01*
X44992724Y-10816821D01*
X45380290Y-11096747D01*
X45744249Y-11402475D01*
X46080224Y-11729714D01*
X46383843Y-12074171D01*
X46650728Y-12431555D01*
X46674218Y-12466328D01*
X46739909Y-12563338D01*
X46798571Y-12647833D01*
X46845727Y-12713530D01*
X46876901Y-12754147D01*
X46886352Y-12764051D01*
X46901609Y-12755773D01*
X46908184Y-12711016D01*
X46908307Y-12701395D01*
X46917020Y-12604038D01*
X46941979Y-12473515D01*
X46981413Y-12314972D01*
X47033553Y-12133550D01*
X47096627Y-11934394D01*
X47168865Y-11722647D01*
X47248496Y-11503452D01*
X47333750Y-11281954D01*
X47422857Y-11063294D01*
X47514046Y-10852617D01*
X47605546Y-10655067D01*
X47630011Y-10604776D01*
X47761779Y-10358095D01*
X47917809Y-10105600D01*
X48101324Y-9842558D01*
X48315546Y-9564235D01*
X48450873Y-9399038D01*
X48543524Y-9292250D01*
X48652972Y-9172960D01*
X48775705Y-9044437D01*
X48908208Y-8909951D01*
X49046970Y-8772769D01*
X49188478Y-8636160D01*
X49329219Y-8503395D01*
X49465680Y-8377741D01*
X49594350Y-8262467D01*
X49711714Y-8160842D01*
X49814261Y-8076135D01*
X49898478Y-8011615D01*
X49960852Y-7970551D01*
X49997870Y-7956212D01*
X50000961Y-7956554D01*
G36*
X50000961Y-7956554D02*
G01*
X50029845Y-7971312D01*
X50088181Y-8007274D01*
X50170989Y-8061018D01*
X50273287Y-8129121D01*
X50390096Y-8208157D01*
X50516435Y-8294705D01*
X50647325Y-8385342D01*
X50777784Y-8476642D01*
X50902832Y-8565184D01*
X51017490Y-8647544D01*
X51116776Y-8720299D01*
X51167887Y-8758668D01*
X51539986Y-9058877D01*
X51910285Y-9390915D01*
X52270605Y-9746393D01*
X52612767Y-10116918D01*
X52928591Y-10494100D01*
X53168261Y-10810932D01*
X53486122Y-11285522D01*
X53780528Y-11789636D01*
X54046930Y-12314919D01*
X54280776Y-12853018D01*
X54281848Y-12855707D01*
X54436256Y-13243209D01*
X54593406Y-13004844D01*
X54702137Y-12844252D01*
X54809096Y-12696238D01*
X54921476Y-12551738D01*
X55046470Y-12401691D01*
X55191270Y-12237037D01*
X55284260Y-12134448D01*
X55612359Y-11791104D01*
X55967021Y-11448515D01*
X56338782Y-11114993D01*
X56718177Y-10798852D01*
X57095741Y-10508404D01*
X57311231Y-10354248D01*
X57477541Y-10241364D01*
X57613450Y-10155467D01*
X57720947Y-10096285D01*
X57802021Y-10063548D01*
X57858663Y-10056987D01*
X57892861Y-10076329D01*
X57906605Y-10121306D01*
X57901884Y-10191646D01*
X57883486Y-10276442D01*
X57842910Y-10510637D01*
X57836438Y-10760103D01*
X57862967Y-11016606D01*
X57921394Y-11271911D01*
X58010615Y-11517783D01*
X58065136Y-11632122D01*
X58121979Y-11734160D01*
X58188323Y-11837986D01*
X58266648Y-11946306D01*
X58359432Y-12061825D01*
X58469155Y-12187249D01*
X58598295Y-12325284D01*
X58749332Y-12478637D01*
X58924744Y-12650013D01*
X59127012Y-12842117D01*
X59358613Y-13057657D01*
X59438974Y-13131698D01*
X59571524Y-13254199D01*
X59703493Y-13377313D01*
X59829052Y-13495519D01*
X59942369Y-13603291D01*
X60037614Y-13695108D01*
X60108957Y-13765445D01*
X60123371Y-13780042D01*
X60369907Y-14048037D01*
X60577596Y-14310203D01*
X60748632Y-14571076D01*
X60885213Y-14835191D01*
X60989536Y-15107083D01*
X61063797Y-15391287D01*
X61110193Y-15692338D01*
X61123218Y-15844288D01*
X61130519Y-15938935D01*
X61138708Y-16018872D01*
X61146629Y-16073960D01*
X61151508Y-16092525D01*
X61170136Y-16089940D01*
X61208443Y-16054251D01*
X61263614Y-15988218D01*
X61281051Y-15965525D01*
X61512922Y-15690184D01*
X61781177Y-15426111D01*
X62080657Y-15176441D01*
X62406200Y-14944310D01*
X62752647Y-14732855D01*
X63114838Y-14545211D01*
X63487611Y-14384515D01*
X63865807Y-14253902D01*
X64244265Y-14156508D01*
X64264974Y-14152180D01*
X64423566Y-14121214D01*
X64620932Y-14085702D01*
X64853817Y-14046191D01*
X65118968Y-14003228D01*
X65413133Y-13957359D01*
X65534974Y-13938807D01*
X65850844Y-13888605D01*
X66149833Y-13836308D01*
X66427820Y-13782798D01*
X66680687Y-13728961D01*
X66904314Y-13675680D01*
X67094583Y-13623837D01*
X67247374Y-13574319D01*
X67266403Y-13567298D01*
X67404146Y-13508779D01*
X67562448Y-13430456D01*
X67728877Y-13339054D01*
X67891002Y-13241299D01*
X67992968Y-13174268D01*
X68215326Y-13011001D01*
X68402561Y-12848711D01*
X68561295Y-12681343D01*
X68641735Y-12581119D01*
X68723631Y-12473512D01*
X68785315Y-12395645D01*
X68831446Y-12343002D01*
X68866682Y-12311064D01*
X68895680Y-12295315D01*
X68923099Y-12291236D01*
X68939473Y-12292363D01*
X68980442Y-12307215D01*
X69018152Y-12346931D01*
X69053053Y-12404705D01*
X69094242Y-12492955D01*
X69141783Y-12615052D01*
X69193428Y-12763395D01*
X69246929Y-12930379D01*
X69300037Y-13108402D01*
X69350505Y-13289862D01*
X69396085Y-13467155D01*
X69434528Y-13632678D01*
X69463586Y-13778828D01*
X69469257Y-13812288D01*
X69495118Y-14004012D01*
X69516927Y-14231291D01*
X69534582Y-14487533D01*
X69547984Y-14766145D01*
X69557033Y-15060534D01*
X69561627Y-15364108D01*
X69561667Y-15670273D01*
X69557052Y-15972436D01*
X69547682Y-16264006D01*
X69533456Y-16538389D01*
X69514529Y-16786205D01*
X69453294Y-17266554D01*
X69357184Y-17760156D01*
X69228442Y-18259910D01*
X69069313Y-18758717D01*
X68882044Y-19249478D01*
X68668877Y-19725094D01*
X68454678Y-20138045D01*
X68412646Y-20213527D01*
X68384728Y-20267022D01*
X68374078Y-20298443D01*
X68383847Y-20307704D01*
X68417186Y-20294719D01*
X68477249Y-20259401D01*
X68567186Y-20201665D01*
X68673857Y-20132040D01*
X68857336Y-20014137D01*
X69019619Y-19914158D01*
X69173467Y-19824746D01*
X69331640Y-19738547D01*
X69506901Y-19648207D01*
X69556640Y-19623233D01*
X70067807Y-19390132D01*
X70587467Y-19197339D01*
X71114016Y-19045191D01*
X71645852Y-18934024D01*
X72181371Y-18864179D01*
X72718968Y-18835990D01*
X73235911Y-18848459D01*
X73461370Y-18863895D01*
X73676890Y-18881525D01*
X73875837Y-18900663D01*
X74051576Y-18920623D01*
X74197471Y-18940720D01*
X74295909Y-18957975D01*
X74412020Y-19002902D01*
X74524487Y-19088908D01*
X74632616Y-19214841D01*
X74735709Y-19379549D01*
X74833069Y-19581880D01*
X74924000Y-19820683D01*
X75007805Y-20094805D01*
X75027068Y-20166828D01*
X75097746Y-20459396D01*
X75152547Y-20737646D01*
X75193252Y-21014434D01*
X75221639Y-21302617D01*
X75239489Y-21615052D01*
X75243523Y-21730763D01*
X75240605Y-22254578D01*
X75199544Y-22760935D01*
X75119802Y-23251814D01*
X75000843Y-23729196D01*
X74842130Y-24195061D01*
X74643127Y-24651389D01*
X74403297Y-25100161D01*
X74271682Y-25316372D01*
X74129997Y-25531000D01*
X73975100Y-25747396D01*
X73803511Y-25969814D01*
X73611747Y-26202513D01*
X73396329Y-26449748D01*
X73153774Y-26715778D01*
X72952384Y-26929745D01*
X72654545Y-27242538D01*
X72704423Y-27411872D01*
X72753991Y-27591190D01*
X72789079Y-27747812D01*
X72812451Y-27897700D01*
X72826873Y-28056818D01*
X72831660Y-28146375D01*
X72843472Y-28415211D01*
X73110348Y-28164194D01*
X73362692Y-27933246D01*
X73606347Y-27724449D01*
X73853761Y-27527849D01*
X74117383Y-27333495D01*
X74361474Y-27164004D01*
X74895210Y-26822796D01*
X75462977Y-26499592D01*
X76059431Y-26196848D01*
X76679226Y-25917022D01*
X77317019Y-25662571D01*
X77967465Y-25435952D01*
X78425474Y-25295762D01*
X78628813Y-25237771D01*
X78811076Y-25187881D01*
X78977481Y-25145484D01*
X79133246Y-25109972D01*
X79283588Y-25080737D01*
X79433724Y-25057171D01*
X79588872Y-25038666D01*
X79754250Y-25024615D01*
X79935075Y-25014409D01*
X80136565Y-25007441D01*
X80363937Y-25003102D01*
X80622409Y-25000786D01*
X80917198Y-24999883D01*
X80965474Y-24999832D01*
X81248203Y-24999862D01*
X81491530Y-25000706D01*
X81698382Y-25002695D01*
X81871685Y-25006159D01*
X82014367Y-25011429D01*
X82129356Y-25018834D01*
X82219580Y-25028706D01*
X82287965Y-25041374D01*
X82337439Y-25057169D01*
X82370931Y-25076420D01*
X82391366Y-25099459D01*
X82401673Y-25126616D01*
X82404779Y-25158220D01*
X82404807Y-25162237D01*
X82398611Y-25209897D01*
X82377197Y-25257636D01*
X82336322Y-25310199D01*
X82271746Y-25372330D01*
X82179225Y-25448774D01*
X82081193Y-25524211D01*
X81911594Y-25658337D01*
X81759521Y-25792935D01*
X81623436Y-25931409D01*
X81501798Y-26077166D01*
X81393068Y-26233613D01*
X81295705Y-26404154D01*
X81208170Y-26592197D01*
X81128923Y-26801147D01*
X81056423Y-27034410D01*
X80989131Y-27295392D01*
X80925507Y-27587500D01*
X80864012Y-27914139D01*
X80803104Y-28278715D01*
X80785703Y-28389624D01*
X80724467Y-28766974D01*
X80663119Y-29106139D01*
X80600238Y-29411246D01*
X80534402Y-29686421D01*
X80464188Y-29935792D01*
X80388174Y-30163488D01*
X80304938Y-30373633D01*
X80213059Y-30570358D01*
X80111114Y-30757787D01*
X79997681Y-30940049D01*
X79871338Y-31121272D01*
X79821366Y-31188448D01*
X79616686Y-31459352D01*
X79873038Y-31483398D01*
X80100485Y-31512539D01*
X80338196Y-31557050D01*
X80576059Y-31614184D01*
X80803962Y-31681189D01*
X81011794Y-31755317D01*
X81189443Y-31833818D01*
X81220508Y-31849826D01*
X81409544Y-31961745D01*
X81612465Y-32102778D01*
X81820810Y-32266082D01*
X82026119Y-32444816D01*
X82219931Y-32632137D01*
X82323681Y-32741956D01*
X82424368Y-32853373D01*
X82512554Y-32953192D01*
X82594374Y-33048876D01*
X82675964Y-33147889D01*
X82763461Y-33257693D01*
X82862999Y-33385752D01*
X82980715Y-33539528D01*
X82996905Y-33560788D01*
X83150026Y-33760765D01*
X83283413Y-33932015D01*
X83401923Y-34080264D01*
X83510419Y-34211241D01*
X83613761Y-34330672D01*
X83716808Y-34444286D01*
X83824421Y-34557809D01*
X83941462Y-34676969D01*
X83959239Y-34694790D01*
X84137025Y-34866671D01*
X84297108Y-35007700D01*
X84445345Y-35122197D01*
X84587591Y-35214484D01*
X84729701Y-35288881D01*
X84813643Y-35325244D01*
X84883939Y-35352530D01*
X84942447Y-35370991D01*
X85000549Y-35382325D01*
X85069629Y-35388232D01*
X85161069Y-35390410D01*
X85251724Y-35390617D01*
X85368999Y-35389726D01*
X85457475Y-35386016D01*
X85530682Y-35377423D01*
X85602147Y-35361880D01*
X85685398Y-35337324D01*
X85759724Y-35313071D01*
X85910065Y-35264009D01*
X86025208Y-35229019D01*
X86109776Y-35207807D01*
X86168390Y-35200081D01*
X86205673Y-35205547D01*
X86226249Y-35223911D01*
X86234741Y-35254881D01*
X86235971Y-35282844D01*
X86221193Y-35346625D01*
X86178268Y-35437354D01*
X86109304Y-35552369D01*
X86016407Y-35689006D01*
X85901685Y-35844603D01*
X85767244Y-36016497D01*
X85615191Y-36202025D01*
X85447634Y-36398525D01*
X85266680Y-36603333D01*
X85074436Y-36813787D01*
X84873008Y-37027224D01*
X84777394Y-37126139D01*
X84668661Y-37238589D01*
X84571256Y-37340920D01*
X84488656Y-37429349D01*
X84424335Y-37500097D01*
X84381769Y-37549382D01*
X84364433Y-37573424D01*
X84364644Y-37575141D01*
X84390705Y-37579507D01*
X84452004Y-37588427D01*
X84541808Y-37600962D01*
X84653379Y-37616174D01*
X84779981Y-37633125D01*
X84796640Y-37635334D01*
X85122910Y-37682264D01*
X85417829Y-37733144D01*
X85692355Y-37790441D01*
X85957445Y-37856624D01*
X86224057Y-37934163D01*
X86454023Y-38008803D01*
X86911227Y-38181666D01*
X87338325Y-38380907D01*
X87733211Y-38605523D01*
X87812890Y-38656502D01*
X88030021Y-38803983D01*
X88255284Y-38967297D01*
X88479726Y-39139378D01*
X88694395Y-39313161D01*
X88890340Y-39481581D01*
X89058607Y-39637572D01*
X89069834Y-39648546D01*
X89158189Y-39735152D01*
X89220584Y-39801219D01*
X89257977Y-39855478D01*
X89271328Y-39906660D01*
X89261599Y-39963496D01*
X89229749Y-40034716D01*
X89176738Y-40129051D01*
X89131260Y-40207122D01*
X88824945Y-40698052D01*
X88495917Y-41153478D01*
X88143373Y-41574120D01*
X87766509Y-41960696D01*
X87364520Y-42313926D01*
X86936604Y-42634530D01*
X86481955Y-42923226D01*
X85999769Y-43180734D01*
X85609494Y-43358097D01*
X85495240Y-43404345D01*
X85352443Y-43459051D01*
X85192910Y-43517870D01*
X85028449Y-43576459D01*
X84870870Y-43630473D01*
X84852069Y-43636745D01*
X84393039Y-43789347D01*
X84832965Y-43901273D01*
X85035807Y-43953579D01*
X85206213Y-43999388D01*
X85353050Y-44041492D01*
X85485185Y-44082680D01*
X85611483Y-44125743D01*
X85740812Y-44173473D01*
X85882037Y-44228659D01*
X85915029Y-44241856D01*
X86277502Y-44401474D01*
X86648526Y-44591582D01*
X87016327Y-44805537D01*
X87369128Y-45036694D01*
X87535968Y-45156456D01*
X87732669Y-45307398D01*
X87921778Y-45463792D01*
X88106619Y-45629191D01*
X88290520Y-45807148D01*
X88476804Y-46001217D01*
X88668796Y-46214952D01*
X88869824Y-46451906D01*
X89083211Y-46715631D01*
X89312284Y-47009683D01*
X89492726Y-47247397D01*
X89633615Y-47435627D01*
X89750369Y-47593885D01*
X89845070Y-47725433D01*
X89919803Y-47833536D01*
X89976649Y-47921456D01*
X90017694Y-47992457D01*
X90045020Y-48049802D01*
X90060710Y-48096756D01*
X90066849Y-48136581D01*
X90067140Y-48147152D01*
X90064667Y-48183052D01*
X90053490Y-48214748D01*
X90027972Y-48249362D01*
X89982479Y-48294014D01*
X89911374Y-48355824D01*
X89883006Y-48379788D01*
X89833587Y-48423616D01*
X89757553Y-48494010D01*
X89658314Y-48587689D01*
X89539279Y-48701375D01*
X89403858Y-48831788D01*
X89255460Y-48975648D01*
X89097494Y-49129676D01*
X88933369Y-49290592D01*
X88818891Y-49403358D01*
X88579582Y-49639131D01*
X88367305Y-49847182D01*
X88179333Y-50029896D01*
X88012935Y-50189657D01*
X87865384Y-50328849D01*
X87733950Y-50449856D01*
X87615905Y-50555063D01*
X87508520Y-50646855D01*
X87409065Y-50727614D01*
X87314813Y-50799726D01*
X87223035Y-50865575D01*
X87131001Y-50927545D01*
X87035982Y-50988021D01*
X86935251Y-51049386D01*
X86934474Y-51049852D01*
X86423867Y-51331261D01*
X85897037Y-51573614D01*
X85354494Y-51776739D01*
X84796749Y-51940466D01*
X84224313Y-52064621D01*
X83664224Y-52146112D01*
X83567281Y-52157945D01*
X83484646Y-52169884D01*
X83426212Y-52180385D01*
X83403398Y-52186787D01*
X83414058Y-52196499D01*
X83460052Y-52215093D01*
X83535770Y-52240694D01*
X83635601Y-52271427D01*
X83753935Y-52305418D01*
X83779751Y-52312559D01*
X84078790Y-52397314D01*
X84345992Y-52479120D01*
X84591324Y-52561689D01*
X84824754Y-52648735D01*
X85056252Y-52743970D01*
X85295784Y-52851109D01*
X85548057Y-52971296D01*
X86109004Y-53264392D01*
X86637670Y-53580953D01*
X87138899Y-53924105D01*
X87617538Y-54296975D01*
X87667803Y-54338919D01*
X87790311Y-54446638D01*
X87931872Y-54579066D01*
X88084650Y-54728218D01*
X88240806Y-54886109D01*
X88392503Y-55044754D01*
X88531903Y-55196167D01*
X88651167Y-55332363D01*
X88696621Y-55387103D01*
X88812752Y-55537566D01*
X88896409Y-55667426D01*
X88947600Y-55783233D01*
X88966332Y-55891537D01*
X88952609Y-55998888D01*
X88906440Y-56111834D01*
X88827830Y-56236926D01*
X88716785Y-56380712D01*
X88697616Y-56403954D01*
X88342433Y-56799056D01*
X87958532Y-57163530D01*
X87547287Y-57496528D01*
X87110067Y-57797203D01*
X86648245Y-58064707D01*
X86163191Y-58298192D01*
X85656276Y-58496809D01*
X85128873Y-58659711D01*
X84992255Y-58695188D01*
X84761374Y-58750328D01*
X84541176Y-58797067D01*
X84322809Y-58836742D01*
X84097425Y-58870684D01*
X83856172Y-58900229D01*
X83590202Y-58926710D01*
X83293807Y-58951222D01*
X83159998Y-58961604D01*
X83041349Y-58971131D01*
X82944023Y-58979283D01*
X82874185Y-58985538D01*
X82838000Y-58989375D01*
X82834341Y-58990101D01*
X82849588Y-59002086D01*
X82894421Y-59031986D01*
X82962343Y-59075582D01*
X83046853Y-59128654D01*
X83067175Y-59141275D01*
X83440661Y-59378677D01*
X83779523Y-59607037D01*
X84089307Y-59830677D01*
X84375555Y-60053919D01*
X84643814Y-60281086D01*
X84899627Y-60516501D01*
X85146061Y-60761923D01*
X85414188Y-61052069D01*
X85650027Y-61336609D01*
X85860755Y-61625261D01*
X86053546Y-61927741D01*
X86204382Y-62194954D01*
X86266290Y-62312137D01*
X86309162Y-62398002D01*
X86335175Y-62457865D01*
X86346508Y-62497040D01*
X86345339Y-62520844D01*
X86341012Y-62528329D01*
X86309327Y-62554472D01*
X86294352Y-62559122D01*
X86271063Y-62547392D01*
X86219357Y-62514825D01*
X86145147Y-62465355D01*
X86054345Y-62402916D01*
X85963569Y-62339056D01*
X85794917Y-62221654D01*
X85651526Y-62128363D01*
X85526277Y-62056021D01*
X85412053Y-62001469D01*
X85301736Y-61961545D01*
X85188206Y-61933088D01*
X85064346Y-61912938D01*
X84982883Y-61903598D01*
X84825209Y-61892857D01*
X84695647Y-61897590D01*
X84582240Y-61919606D01*
X84473029Y-61960717D01*
X84415156Y-61989587D01*
X84311750Y-62049883D01*
X84210726Y-62120301D01*
X84109711Y-62203649D01*
X84006334Y-62302737D01*
X83898220Y-62420375D01*
X83782999Y-62559370D01*
X83658296Y-62722533D01*
X83521740Y-62912673D01*
X83370957Y-63132598D01*
X83203576Y-63385117D01*
X83093862Y-63553955D01*
X82934697Y-63799235D01*
X82794852Y-64011959D01*
X82671659Y-64195748D01*
X82562452Y-64354221D01*
X82464563Y-64490999D01*
X82375324Y-64609701D01*
X82292068Y-64713948D01*
X82212127Y-64807358D01*
X82132834Y-64893552D01*
X82051521Y-64976151D01*
X82031154Y-64996090D01*
X81885154Y-65127897D01*
X81721941Y-65257608D01*
X81547210Y-65382015D01*
X81366661Y-65497910D01*
X81185990Y-65602087D01*
X81010896Y-65691337D01*
X80847075Y-65762454D01*
X80700226Y-65812228D01*
X80576046Y-65837453D01*
X80532225Y-65839955D01*
X80475178Y-65843313D01*
X80440829Y-65851817D01*
X80436307Y-65856969D01*
X80451940Y-65885973D01*
X80499520Y-65932843D01*
X80580068Y-65998386D01*
X80694603Y-66083413D01*
X80844146Y-66188733D01*
X80923140Y-66242967D01*
X81094982Y-66361608D01*
X81238636Y-66464596D01*
X81361993Y-66558422D01*
X81472946Y-66649576D01*
X81579386Y-66744549D01*
X81689206Y-66849831D01*
X81810298Y-66971913D01*
X81813505Y-66975202D01*
X81977994Y-67150948D01*
X82149783Y-67348541D01*
X82332295Y-67572142D01*
X82528955Y-67825912D01*
X82680009Y-68027983D01*
X82875912Y-68293068D01*
X83049461Y-68526902D01*
X83203109Y-68732540D01*
X83339312Y-68913035D01*
X83460521Y-69071439D01*
X83569190Y-69210807D01*
X83667774Y-69334190D01*
X83758725Y-69444644D01*
X83844498Y-69545220D01*
X83927546Y-69638972D01*
X84010322Y-69728953D01*
X84095280Y-69818216D01*
X84184874Y-69909816D01*
X84223702Y-69948942D01*
X84426316Y-70144229D01*
X84612960Y-70306074D01*
X84788551Y-70437855D01*
X84958003Y-70542950D01*
X85126234Y-70624740D01*
X85295845Y-70685903D01*
X85425309Y-70730609D01*
X85515129Y-70776236D01*
X85565890Y-70826249D01*
X85578176Y-70884119D01*
X85552572Y-70953311D01*
X85489660Y-71037295D01*
X85390026Y-71139539D01*
X85374701Y-71154075D01*
X85223722Y-71286553D01*
X85040581Y-71431081D01*
X84830996Y-71584214D01*
X84600684Y-71742510D01*
X84355362Y-71902522D01*
X84100748Y-72060806D01*
X83842557Y-72213917D01*
X83586508Y-72358412D01*
X83338317Y-72490845D01*
X83103702Y-72607772D01*
X82888379Y-72705748D01*
X82698066Y-72781329D01*
X82641508Y-72800841D01*
X82278261Y-72902079D01*
X81884234Y-72977387D01*
X81461843Y-73027103D01*
X81013502Y-73051567D01*
X80541629Y-73051117D01*
X80048638Y-73026094D01*
X79536946Y-72976837D01*
X79008968Y-72903684D01*
X78467121Y-72806976D01*
X77913819Y-72687051D01*
X77351479Y-72544249D01*
X76782517Y-72378908D01*
X76209348Y-72191369D01*
X75634388Y-71981971D01*
X75060053Y-71751052D01*
X75007057Y-71728622D01*
X74789659Y-71632973D01*
X74545046Y-71519704D01*
X74282132Y-71393263D01*
X74009832Y-71258093D01*
X73737060Y-71118640D01*
X73472730Y-70979350D01*
X73225755Y-70844666D01*
X73155408Y-70805276D01*
X73029176Y-70734652D01*
X72912111Y-70670183D01*
X72810274Y-70615125D01*
X72729726Y-70572734D01*
X72676529Y-70546269D01*
X72661063Y-70539660D01*
X72600200Y-70518443D01*
X72637394Y-70576324D01*
X72684474Y-70644079D01*
X72752382Y-70732851D01*
X72842769Y-70844645D01*
X72957285Y-70981466D01*
X73097580Y-71145318D01*
X73251165Y-71322035D01*
X73516345Y-71628232D01*
X73754291Y-71909024D01*
X73968192Y-72168444D01*
X74161234Y-72410524D01*
X74336607Y-72639298D01*
X74497498Y-72858800D01*
X74647094Y-73073062D01*
X74715143Y-73174205D01*
X75024817Y-73674863D01*
X75296924Y-74188151D01*
X75530322Y-74711475D01*
X75723870Y-75242243D01*
X75876426Y-75777862D01*
X75894144Y-75851788D01*
X75957651Y-76174894D01*
X76004493Y-76524976D01*
X76034697Y-76893568D01*
X76048291Y-77272200D01*
X76045304Y-77652404D01*
X76025763Y-78025713D01*
X75989697Y-78383659D01*
X75937135Y-78717772D01*
X75883807Y-78959926D01*
X75831265Y-79154874D01*
X75781763Y-79310941D01*
X75733556Y-79431310D01*
X75684899Y-79519162D01*
X75634048Y-79577677D01*
X75579257Y-79610039D01*
X75522106Y-79619455D01*
X75478187Y-79615959D01*
X75430321Y-79603526D01*
X75372616Y-79579239D01*
X75299180Y-79540182D01*
X75204124Y-79483438D01*
X75081557Y-79406089D01*
X75049180Y-79385287D01*
X74861656Y-79268206D01*
X74678072Y-79161830D01*
X74492076Y-79063265D01*
X74297317Y-78969618D01*
X74087443Y-78877996D01*
X73856102Y-78785503D01*
X73596943Y-78689246D01*
X73303614Y-78586332D01*
X73271390Y-78575301D01*
X72914333Y-78452239D01*
X72593841Y-78339228D01*
X72305849Y-78234442D01*
X72046288Y-78136059D01*
X71811089Y-78042256D01*
X71596186Y-77951209D01*
X71397511Y-77861094D01*
X71210995Y-77770089D01*
X71032571Y-77676370D01*
X70858171Y-77578114D01*
X70683728Y-77473498D01*
X70505173Y-77360697D01*
X70382140Y-77280246D01*
X70127354Y-77100339D01*
X69857789Y-76889116D01*
X69579265Y-76652246D01*
X69297606Y-76395395D01*
X69018633Y-76124230D01*
X68748167Y-75844419D01*
X68492032Y-75561628D01*
X68256049Y-75281525D01*
X68046040Y-75009777D01*
X68037153Y-74997644D01*
X67957303Y-74894890D01*
X67883307Y-74818322D01*
X67804972Y-74761603D01*
X67712104Y-74718397D01*
X67594510Y-74682366D01*
X67490163Y-74657609D01*
X67222728Y-74584245D01*
X66956702Y-74481618D01*
X66681792Y-74345727D01*
X66667390Y-74337857D01*
X66468732Y-74230481D01*
X66293071Y-74138924D01*
X66142637Y-74064221D01*
X66019660Y-74007406D01*
X65926368Y-73969511D01*
X65864992Y-73951570D01*
X65838589Y-73953617D01*
X65843104Y-73969025D01*
X65867142Y-74006541D01*
X65911876Y-74067667D01*
X65978481Y-74153904D01*
X66068131Y-74266756D01*
X66182001Y-74407722D01*
X66321264Y-74578305D01*
X66441940Y-74725194D01*
X66872058Y-75276340D01*
X67283151Y-75860582D01*
X67671414Y-76471515D01*
X68033042Y-77102731D01*
X68364227Y-77747823D01*
X68661165Y-78400386D01*
X68745772Y-78603455D01*
X68814186Y-78778659D01*
X68888605Y-78981932D01*
X68965844Y-79203545D01*
X69042717Y-79433772D01*
X69116036Y-79662887D01*
X69182616Y-79881160D01*
X69239271Y-80078867D01*
X69279657Y-80233288D01*
X69334796Y-80470286D01*
X69380709Y-80695833D01*
X69418093Y-80916853D01*
X69447645Y-81140267D01*
X69470063Y-81372995D01*
X69486044Y-81621961D01*
X69496285Y-81894084D01*
X69501483Y-82196288D01*
X69502493Y-82445205D01*
X69499038Y-82792261D01*
X69489160Y-83119809D01*
X69473175Y-83425396D01*
X69451400Y-83706566D01*
X69424152Y-83960868D01*
X69391746Y-84185846D01*
X69354500Y-84379047D01*
X69312730Y-84538018D01*
X69266753Y-84660305D01*
X69216884Y-84743454D01*
X69204197Y-84757489D01*
X69171649Y-84783005D01*
X69133652Y-84796503D01*
X69086627Y-84796455D01*
X69026996Y-84781332D01*
X68951180Y-84749606D01*
X68855603Y-84699749D01*
X68736684Y-84630234D01*
X68590847Y-84539530D01*
X68414513Y-84426111D01*
X68388162Y-84408967D01*
X68212783Y-84295508D01*
X68062976Y-84200693D01*
X67929451Y-84119156D01*
X67802915Y-84045528D01*
X67674077Y-83974442D01*
X67533645Y-83900530D01*
X67372327Y-83818425D01*
X67323135Y-83793730D01*
X67126956Y-83696965D01*
X66937359Y-83606874D01*
X66750326Y-83521994D01*
X66561841Y-83440863D01*
X66367886Y-83362016D01*
X66164446Y-83283993D01*
X65947504Y-83205329D01*
X65713044Y-83124562D01*
X65457048Y-83040230D01*
X65175500Y-82950869D01*
X64864384Y-82855017D01*
X64519683Y-82751210D01*
X64201474Y-82656864D01*
X63821312Y-82543768D01*
X63479567Y-82439843D01*
X63173556Y-82344125D01*
X62900592Y-82255648D01*
X62657993Y-82173448D01*
X62443073Y-82096559D01*
X62253147Y-82024016D01*
X62085532Y-81954855D01*
X61937542Y-81888111D01*
X61806494Y-81822817D01*
X61689702Y-81758010D01*
X61672057Y-81747560D01*
X61483583Y-81626745D01*
X61293250Y-81489592D01*
X61105944Y-81340735D01*
X60926553Y-81184812D01*
X60759964Y-81026457D01*
X60611064Y-80870308D01*
X60484740Y-80720999D01*
X60385879Y-80583166D01*
X60321604Y-80466525D01*
X60279335Y-80371679D01*
X60207448Y-80561775D01*
X60139784Y-80739466D01*
X60083408Y-80884113D01*
X60035339Y-81002529D01*
X59992596Y-81101528D01*
X59952198Y-81187922D01*
X59911165Y-81268524D01*
X59866515Y-81350147D01*
X59848907Y-81381225D01*
X59739612Y-81561600D01*
X59618634Y-81738831D01*
X59483416Y-81915461D01*
X59331401Y-82094034D01*
X59160032Y-82277097D01*
X58966754Y-82467193D01*
X58749009Y-82666868D01*
X58504241Y-82878665D01*
X58229893Y-83105130D01*
X57923409Y-83348806D01*
X57691597Y-83528512D01*
X57399156Y-83763164D01*
X57145799Y-83988340D01*
X56929930Y-84206277D01*
X56749952Y-84419211D01*
X56604268Y-84629381D01*
X56491284Y-84839022D01*
X56409401Y-85050372D01*
X56357023Y-85265668D01*
X56336432Y-85427463D01*
X56333155Y-85509873D01*
X56333422Y-85622536D01*
X56336968Y-85753544D01*
X56343526Y-85890989D01*
X56348466Y-85967040D01*
X56356376Y-86086824D01*
X56361923Y-86191475D01*
X56364840Y-86273890D01*
X56364862Y-86326967D01*
X56362571Y-86343579D01*
X56341805Y-86336613D01*
X56293800Y-86308859D01*
X56225429Y-86264599D01*
X56143563Y-86208113D01*
X56132576Y-86200300D01*
X55938375Y-86047636D01*
X55733588Y-85860649D01*
X55522559Y-85644627D01*
X55309632Y-85404861D01*
X55099154Y-85146639D01*
X54895466Y-84875252D01*
X54702915Y-84595988D01*
X54525845Y-84314138D01*
X54395691Y-84085622D01*
X54225835Y-83741806D01*
X54069680Y-83365369D01*
X53929689Y-82964504D01*
X53808324Y-82547404D01*
X53708047Y-82122262D01*
X53631321Y-81697270D01*
X53594752Y-81420596D01*
X53581558Y-81316443D01*
X53569386Y-81247481D01*
X53558777Y-81216263D01*
X53552030Y-81219513D01*
X53545183Y-81250130D01*
X53533461Y-81317091D01*
X53517737Y-81414797D01*
X53498882Y-81537652D01*
X53477767Y-81680056D01*
X53455265Y-81836412D01*
X53448503Y-81884288D01*
X53380658Y-82343732D01*
X53311114Y-82765123D01*
X53238397Y-83152738D01*
X53161030Y-83510858D01*
X53077537Y-83843761D01*
X52986442Y-84155725D01*
X52886268Y-84451031D01*
X52775540Y-84733957D01*
X52652781Y-85008781D01*
X52516515Y-85279784D01*
X52365267Y-85551243D01*
X52197560Y-85827438D01*
X52011917Y-86112648D01*
X51966695Y-86179723D01*
X51850594Y-86346088D01*
X51723126Y-86520177D01*
X51587107Y-86698783D01*
X51445351Y-86878696D01*
X51300672Y-87056707D01*
X51155887Y-87229608D01*
X51013810Y-87394190D01*
X50877255Y-87547244D01*
X50749037Y-87685561D01*
X50631972Y-87805933D01*
X50528874Y-87905150D01*
X50442558Y-87980005D01*
X50375839Y-88027287D01*
X50331531Y-88043788D01*
X50331492Y-88043788D01*
X50284581Y-88027565D01*
X50226808Y-87984289D01*
X50206537Y-87964413D01*
X50165540Y-87918068D01*
X50106380Y-87846718D01*
X50036261Y-87759249D01*
X49962388Y-87664547D01*
X49944818Y-87641622D01*
X49838398Y-87504088D01*
X49715201Y-87348374D01*
X49573317Y-87172137D01*
X49410836Y-86973034D01*
X49225848Y-86748722D01*
X49016445Y-86496860D01*
X48823212Y-86265788D01*
X48503346Y-85877361D01*
X48210727Y-85506958D01*
X47939521Y-85146188D01*
X47683894Y-84786658D01*
X47438012Y-84419979D01*
X47196042Y-84037759D01*
X46952149Y-83631606D01*
X46759304Y-83297163D01*
X46700340Y-83194445D01*
X46648311Y-83105971D01*
X46606853Y-83037751D01*
X46579602Y-82995796D01*
X46570559Y-82985170D01*
X46557924Y-83003222D01*
X46529475Y-83053405D01*
X46488297Y-83129973D01*
X46437475Y-83227175D01*
X46380094Y-83339263D01*
X46372386Y-83354484D01*
X46196035Y-83678758D01*
X45995920Y-84003355D01*
X45775921Y-84323859D01*
X45539920Y-84635854D01*
X45291797Y-84934925D01*
X45035433Y-85216658D01*
X44774709Y-85476638D01*
X44513506Y-85710448D01*
X44255705Y-85913674D01*
X44005187Y-86081900D01*
X43942462Y-86118939D01*
X43826541Y-86180398D01*
X43741125Y-86213715D01*
X43684807Y-86218559D01*
X43656176Y-86194601D01*
X43653824Y-86141512D01*
X43676341Y-86058961D01*
X43677097Y-86056835D01*
X43710208Y-85938204D01*
X43738509Y-85786185D01*
X43761481Y-85609503D01*
X43778608Y-85416886D01*
X43789371Y-85217058D01*
X43793253Y-85018747D01*
X43789737Y-84830679D01*
X43778305Y-84661579D01*
X43765745Y-84561872D01*
X43722421Y-84341635D01*
X43661367Y-84123572D01*
X43580818Y-83904729D01*
X43479013Y-83682148D01*
X43354189Y-83452873D01*
X43204583Y-83213950D01*
X43028432Y-82962422D01*
X42823974Y-82695334D01*
X42589446Y-82409728D01*
X42323086Y-82102650D01*
X42251040Y-82021872D01*
X41999361Y-81736439D01*
X41777414Y-81474551D01*
X41582400Y-81232656D01*
X41411525Y-81007203D01*
X41261992Y-80794642D01*
X41154506Y-80629337D01*
X41096372Y-80531309D01*
X41033165Y-80416386D01*
X40970730Y-80296041D01*
X40914914Y-80181745D01*
X40871563Y-80084970D01*
X40853352Y-80038359D01*
X40825593Y-79959846D01*
X40780074Y-80101859D01*
X40748031Y-80189768D01*
X40704054Y-80295004D01*
X40656521Y-80397752D01*
X40646158Y-80418570D01*
X40431983Y-80795321D01*
X40182609Y-81149939D01*
X39899939Y-81480677D01*
X39585877Y-81785784D01*
X39242328Y-82063514D01*
X38871194Y-82312115D01*
X38474380Y-82529841D01*
X38220605Y-82646711D01*
X37980118Y-82745172D01*
X37737942Y-82834391D01*
X37488776Y-82915721D01*
X37227318Y-82990516D01*
X36948267Y-83060128D01*
X36646322Y-83125911D01*
X36316182Y-83189218D01*
X35952544Y-83251403D01*
X35689974Y-83292739D01*
X35332801Y-83350157D01*
X35012636Y-83408231D01*
X34724168Y-83468768D01*
X34462087Y-83533574D01*
X34221082Y-83604454D01*
X33995842Y-83683216D01*
X33781057Y-83771664D01*
X33571418Y-83871604D01*
X33361612Y-83984843D01*
X33146331Y-84113186D01*
X32995615Y-84209026D01*
X32846097Y-84305313D01*
X32727261Y-84379636D01*
X32635011Y-84434170D01*
X32565249Y-84471087D01*
X32513881Y-84492562D01*
X32476809Y-84500768D01*
X32450724Y-84498134D01*
X32434151Y-84488771D01*
X32417658Y-84468626D01*
X32399702Y-84433309D01*
X32378746Y-84378429D01*
X32353248Y-84299596D01*
X32321669Y-84192420D01*
X32282468Y-84052510D01*
X32240243Y-83898084D01*
X32111108Y-83374400D01*
X32011428Y-82858721D01*
X31938329Y-82334573D01*
X31901806Y-81958372D01*
X31893317Y-81821279D01*
X31886928Y-81651278D01*
X31882643Y-81457739D01*
X31880466Y-81250035D01*
X31880399Y-81037538D01*
X31882447Y-80829620D01*
X31886614Y-80635653D01*
X31892901Y-80465009D01*
X31901196Y-80328538D01*
X31975707Y-79655270D01*
X32091712Y-78984415D01*
X32248378Y-78318860D01*
X32444867Y-77661492D01*
X32680345Y-77015197D01*
X32953977Y-76382861D01*
X33169355Y-75947038D01*
X33297568Y-75707032D01*
X33433348Y-75464284D01*
X33573665Y-75223540D01*
X33715487Y-74989547D01*
X33855786Y-74767052D01*
X33991529Y-74560801D01*
X34119688Y-74375542D01*
X34237231Y-74216021D01*
X34341128Y-74086984D01*
X34395662Y-74026163D01*
X34423848Y-73996871D01*
X34442596Y-73975108D01*
X34447594Y-73960449D01*
X34434533Y-73952467D01*
X34399101Y-73950735D01*
X34336988Y-73954826D01*
X34243884Y-73964314D01*
X34115479Y-73978772D01*
X34023035Y-73989277D01*
X33795204Y-74016964D01*
X33604761Y-74044938D01*
X33446779Y-74074778D01*
X33316334Y-74108063D01*
X33208499Y-74146371D01*
X33118348Y-74191282D01*
X33040955Y-74244373D01*
X32971394Y-74307224D01*
X32945364Y-74334679D01*
X32903380Y-74385561D01*
X32843362Y-74465067D01*
X32770275Y-74566278D01*
X32689078Y-74682272D01*
X32604735Y-74806130D01*
X32569828Y-74858434D01*
X32363309Y-75163541D01*
X32168827Y-75436931D01*
X31980926Y-75685438D01*
X31794148Y-75915893D01*
X31603039Y-76135130D01*
X31402140Y-76349982D01*
X31277361Y-76476901D01*
X30897171Y-76834609D01*
X30511049Y-77151972D01*
X30115327Y-77430922D01*
X29706339Y-77673386D01*
X29280418Y-77881294D01*
X28833895Y-78056574D01*
X28363105Y-78201157D01*
X27864379Y-78316972D01*
X27731307Y-78342313D01*
X27496623Y-78371582D01*
X27235363Y-78379984D01*
X26957676Y-78367706D01*
X26673713Y-78334939D01*
X26588307Y-78321053D01*
X26369731Y-78280921D01*
X26193168Y-78243866D01*
X26058413Y-78209833D01*
X25965260Y-78178772D01*
X25913504Y-78150631D01*
X25912214Y-78149494D01*
X25875861Y-78096195D01*
X25839064Y-78003117D01*
X25802272Y-77872807D01*
X25765938Y-77707809D01*
X25730510Y-77510669D01*
X25696441Y-77283932D01*
X25664180Y-77030144D01*
X25634178Y-76751851D01*
X25606887Y-76451597D01*
X25602836Y-76402122D01*
X25591635Y-76228415D01*
X25583508Y-76028702D01*
X25578377Y-75810355D01*
X25576169Y-75580749D01*
X25576806Y-75347256D01*
X25580212Y-75117250D01*
X25586313Y-74898106D01*
X25595031Y-74697195D01*
X25606291Y-74521892D01*
X25620018Y-74379570D01*
X25623971Y-74348955D01*
X25677118Y-74021598D01*
X25746172Y-73699957D01*
X25833164Y-73377771D01*
X25940126Y-73048781D01*
X26069089Y-72706727D01*
X26222085Y-72345351D01*
X26396957Y-71967130D01*
X26515900Y-71724776D01*
X26627273Y-71511417D01*
X26737290Y-71316022D01*
X26852167Y-71127560D01*
X26978119Y-70935001D01*
X26980301Y-70931762D01*
X27160221Y-70664883D01*
X27070056Y-70710468D01*
X27025186Y-70733782D01*
X26949856Y-70773627D01*
X26850839Y-70826391D01*
X26734907Y-70888460D01*
X26608834Y-70956220D01*
X26552769Y-70986435D01*
X25867297Y-71332404D01*
X25167852Y-71638427D01*
X24454754Y-71904396D01*
X23728322Y-72130205D01*
X22988875Y-72315746D01*
X22236732Y-72460913D01*
X22089973Y-72484297D01*
X21390268Y-72571102D01*
X20692300Y-72615705D01*
X19994867Y-72618138D01*
X19296762Y-72578430D01*
X19096187Y-72559263D01*
X18824336Y-72528581D01*
X18594065Y-72497427D01*
X18404619Y-72465628D01*
X18255246Y-72433008D01*
X18145191Y-72399393D01*
X18073702Y-72364607D01*
X18040026Y-72328476D01*
X18036974Y-72313345D01*
X18046918Y-72265729D01*
X18076656Y-72181114D01*
X18126042Y-72059845D01*
X18194931Y-71902267D01*
X18283179Y-71708726D01*
X18351794Y-71561804D01*
X18435973Y-71380590D01*
X18511330Y-71212405D01*
X18579536Y-71052196D01*
X18642262Y-70894907D01*
X18701178Y-70735484D01*
X18757955Y-70568875D01*
X18814264Y-70390023D01*
X18871774Y-70193877D01*
X18932158Y-69975380D01*
X18997084Y-69729480D01*
X19068224Y-69451121D01*
X19127153Y-69216038D01*
X19213208Y-68873968D01*
X19291665Y-68569469D01*
X19363639Y-68298685D01*
X19430248Y-68057759D01*
X19492607Y-67842836D01*
X19551834Y-67650059D01*
X19609045Y-67475574D01*
X19665357Y-67315524D01*
X19717640Y-67176916D01*
X19836069Y-66890170D01*
X19957656Y-66633116D01*
X20087904Y-66397288D01*
X20232316Y-66174219D01*
X20396392Y-65955442D01*
X20585636Y-65732493D01*
X20805550Y-65496905D01*
X20817520Y-65484569D01*
X20906618Y-65392064D01*
X20983996Y-65310121D01*
X21045359Y-65243421D01*
X21086412Y-65196648D01*
X21102861Y-65174485D01*
X21102860Y-65173452D01*
X21079766Y-65167896D01*
X21022726Y-65158834D01*
X20939867Y-65147440D01*
X20839319Y-65134888D01*
X20819718Y-65132566D01*
X20606969Y-65102871D01*
X20423913Y-65065986D01*
X20258085Y-65018555D01*
X20097019Y-64957223D01*
X19992135Y-64909819D01*
X19868622Y-64848196D01*
X19748231Y-64781639D01*
X19627872Y-64707636D01*
X19504453Y-64623679D01*
X19374884Y-64527257D01*
X19236075Y-64415860D01*
X19084936Y-64286977D01*
X18918374Y-64138098D01*
X18733300Y-63966714D01*
X18526623Y-63770314D01*
X18295252Y-63546387D01*
X18205475Y-63458705D01*
X17963172Y-63223727D01*
X17746035Y-63018095D01*
X17551083Y-62839533D01*
X17375335Y-62685765D01*
X17215811Y-62554516D01*
X17069530Y-62443510D01*
X16933512Y-62350471D01*
X16804776Y-62273124D01*
X16680342Y-62209193D01*
X16557229Y-62156402D01*
X16449474Y-62117960D01*
X16204924Y-62058420D01*
X15937215Y-62030885D01*
X15650496Y-62035007D01*
X15348914Y-62070445D01*
X15036619Y-62136852D01*
X14717758Y-62233884D01*
X14618557Y-62270004D01*
X14536206Y-62300195D01*
X14470020Y-62322637D01*
X14428967Y-62334387D01*
X14420151Y-62335098D01*
X14424033Y-62312220D01*
X14446858Y-62259636D01*
X14485180Y-62183568D01*
X14535552Y-62090239D01*
X14594531Y-61985872D01*
X14658670Y-61876689D01*
X14724524Y-61768914D01*
X14788648Y-61668769D01*
X14791342Y-61664686D01*
X14971938Y-61406447D01*
X15178020Y-61138001D01*
X15403516Y-60865902D01*
X15642350Y-60596705D01*
X15888450Y-60336963D01*
X16135741Y-60093231D01*
X16378150Y-59872063D01*
X16609601Y-59680014D01*
X16682028Y-59624528D01*
X16774537Y-59554570D01*
X16853817Y-59493301D01*
X16914202Y-59445206D01*
X16950029Y-59414768D01*
X16957474Y-59406470D01*
X16937943Y-59397965D01*
X16883473Y-59381138D01*
X16800249Y-59357721D01*
X16694453Y-59329443D01*
X16572270Y-59298036D01*
X16550015Y-59292435D01*
X16113469Y-59174142D01*
X15711292Y-59046158D01*
X15336046Y-58905455D01*
X14980296Y-58749007D01*
X14636603Y-58573786D01*
X14297532Y-58376766D01*
X14291768Y-58373213D01*
X14070359Y-58230065D01*
X13857546Y-58078250D01*
X13645920Y-57911831D01*
X13428072Y-57724869D01*
X13196591Y-57511426D01*
X13096815Y-57415650D01*
X12818826Y-57138761D01*
X12570825Y-56875392D01*
X12346180Y-56617823D01*
X12138260Y-56358336D01*
X11940431Y-56089214D01*
X11870186Y-55988163D01*
X11667950Y-55693122D01*
X11765676Y-55511913D01*
X11852860Y-55358028D01*
X11944347Y-55213620D01*
X12044783Y-55072946D01*
X12158811Y-54930263D01*
X12291074Y-54779826D01*
X12446217Y-54615893D01*
X12628883Y-54432719D01*
X12673800Y-54388706D01*
X12996004Y-54086623D01*
X13314568Y-53814594D01*
X13634475Y-53569936D01*
X13960705Y-53349969D01*
X14298239Y-53152011D01*
X14652059Y-52973381D01*
X15027146Y-52811397D01*
X15428480Y-52663378D01*
X15861044Y-52526642D01*
X16329818Y-52398507D01*
X16407140Y-52378969D01*
X16550377Y-52343002D01*
X16680978Y-52309940D01*
X16793016Y-52281306D01*
X16880560Y-52258623D01*
X16937682Y-52243412D01*
X16957474Y-52237654D01*
X16945911Y-52228369D01*
X16898573Y-52207305D01*
X16819831Y-52176110D01*
X16714056Y-52136435D01*
X16585620Y-52089927D01*
X16438894Y-52038236D01*
X16322474Y-51998083D01*
X15933782Y-51863168D01*
X15582640Y-51736578D01*
X15265520Y-51616401D01*
X14978895Y-51500724D01*
X14719240Y-51387635D01*
X14483025Y-51275221D01*
X14266725Y-51161569D01*
X14066811Y-51044767D01*
X13879758Y-50922901D01*
X13702039Y-50794059D01*
X13530125Y-50656329D01*
X13360490Y-50507797D01*
X13189607Y-50346551D01*
X13083974Y-50241861D01*
X12884954Y-50034886D01*
X12702137Y-49829956D01*
X12529908Y-49619705D01*
X12362652Y-49396768D01*
X12194754Y-49153779D01*
X12020600Y-48883375D01*
X11904987Y-48695371D01*
X11735411Y-48419286D01*
X11569534Y-48156741D01*
X11411035Y-47913360D01*
X11263597Y-47694773D01*
X11130899Y-47506605D01*
X11097238Y-47460610D01*
X11036888Y-47377850D01*
X10985805Y-47305786D01*
X10949353Y-47252124D01*
X10932895Y-47224567D01*
X10932861Y-47224479D01*
X10945609Y-47200235D01*
X10993501Y-47156456D01*
X11074873Y-47094515D01*
X11176602Y-47023529D01*
X11331669Y-46912822D01*
X11506110Y-46778610D01*
X11690581Y-46628490D01*
X11875739Y-46470062D01*
X12046921Y-46315855D01*
X12092135Y-46273762D01*
X12163166Y-46207389D01*
X12254982Y-46121448D01*
X12362552Y-46020652D01*
X12480846Y-45909714D01*
X12604833Y-45793344D01*
X12639588Y-45760708D01*
X12870138Y-45545339D01*
X13074852Y-45356795D01*
X13257647Y-45191786D01*
X13422437Y-45047020D01*
X13573139Y-44919207D01*
X13713667Y-44805057D01*
X13847938Y-44701277D01*
X13979867Y-44604578D01*
X14113370Y-44511668D01*
X14175419Y-44469942D01*
X14356300Y-44356680D01*
X14560550Y-44240918D01*
X14775145Y-44129333D01*
X14987060Y-44028600D01*
X15183275Y-43945395D01*
X15242974Y-43922696D01*
X15333879Y-43888598D01*
X15410068Y-43858658D01*
X15462712Y-43836432D01*
X15482333Y-43826280D01*
X15483064Y-43815679D01*
X15465860Y-43797284D01*
X15427357Y-43768909D01*
X15364191Y-43728363D01*
X15273001Y-43673460D01*
X15150424Y-43602011D01*
X15041890Y-43539692D01*
X14660087Y-43309028D01*
X14310199Y-43070620D01*
X13981808Y-42816539D01*
X13664497Y-42538861D01*
X13431750Y-42314582D01*
X13236262Y-42112965D01*
X13052296Y-41909598D01*
X12875708Y-41698983D01*
X12702352Y-41475621D01*
X12528081Y-41234014D01*
X12348752Y-40968665D01*
X12160218Y-40674075D01*
X12006288Y-40424059D01*
X11810338Y-40101246D01*
X11898773Y-39947809D01*
X11980180Y-39812636D01*
X12061727Y-39691633D01*
X12150482Y-39575940D01*
X12253517Y-39456694D01*
X12377900Y-39325035D01*
X12468784Y-39233340D01*
X12806092Y-38916140D01*
X13140837Y-38639199D01*
X13475426Y-38400733D01*
X13812263Y-38198960D01*
X13983557Y-38110651D01*
X14418241Y-37914287D01*
X14861434Y-37746255D01*
X15319397Y-37604747D01*
X15798388Y-37487956D01*
X16304667Y-37394074D01*
X16624098Y-37347994D01*
X16711473Y-37335399D01*
X16780518Y-37323115D01*
X16822249Y-37312875D01*
X16830473Y-37308193D01*
X16814148Y-37289845D01*
X16774227Y-37262086D01*
X16768051Y-37258375D01*
X16697168Y-37213087D01*
X16601938Y-37147433D01*
X16490889Y-37067723D01*
X16372547Y-36980265D01*
X16255438Y-36891370D01*
X16148089Y-36807346D01*
X16059026Y-36734503D01*
X16051805Y-36728375D01*
X15949079Y-36637003D01*
X15826341Y-36521675D01*
X15691449Y-36390298D01*
X15552262Y-36250779D01*
X15416639Y-36111024D01*
X15292439Y-35978942D01*
X15187522Y-35862440D01*
X15163298Y-35834421D01*
X15057449Y-35706332D01*
X14939411Y-35556209D01*
X14814743Y-35391744D01*
X14689004Y-35220624D01*
X14567752Y-35050539D01*
X14456546Y-34889177D01*
X14360945Y-34744228D01*
X14286507Y-34623381D01*
X14281340Y-34614477D01*
X14241316Y-34529780D01*
X14234255Y-34471603D01*
X14260153Y-34439965D01*
X14319002Y-34434887D01*
X14333087Y-34436795D01*
X14385627Y-34448462D01*
X14466653Y-34470278D01*
X14564502Y-34498967D01*
X14653704Y-34526799D01*
X14930634Y-34594065D01*
X15211374Y-34619655D01*
X15494567Y-34603908D01*
X15778856Y-34547165D01*
X16062881Y-34449765D01*
X16345287Y-34312049D01*
X16624716Y-34134356D01*
X16820771Y-33983939D01*
X16915948Y-33899098D01*
X17034259Y-33782635D01*
X17173556Y-33636886D01*
X17331691Y-33464183D01*
X17506517Y-33266860D01*
X17695886Y-33047252D01*
X17843193Y-32872872D01*
X18056150Y-32622512D01*
X18249595Y-32403624D01*
X18427445Y-32212416D01*
X18593617Y-32045101D01*
X18752028Y-31897889D01*
X18906593Y-31766990D01*
X19061230Y-31648616D01*
X19219855Y-31538977D01*
X19226281Y-31534757D01*
X19412870Y-31421158D01*
X19610892Y-31318554D01*
X19827309Y-31224015D01*
X20069080Y-31134609D01*
X20343168Y-31047407D01*
X20473420Y-31009653D01*
X20613283Y-30970125D01*
X20356698Y-30672665D01*
X20201588Y-30489641D01*
X20071561Y-30328253D01*
X19961247Y-30180729D01*
X19865276Y-30039297D01*
X19778279Y-29896184D01*
X19694888Y-29743618D01*
X19639416Y-29634372D01*
X19550514Y-29443767D01*
X19470214Y-29246626D01*
X19397834Y-29039498D01*
X19332692Y-28818930D01*
X19274106Y-28581473D01*
X19221397Y-28323675D01*
X19173881Y-28042085D01*
X19130878Y-27733253D01*
X19091705Y-27393726D01*
X19055683Y-27020055D01*
X19022128Y-26608787D01*
X19010373Y-26448788D01*
X18986972Y-26137778D01*
X18963774Y-25864480D01*
X18940153Y-25624281D01*
X18915480Y-25412568D01*
X18889128Y-25224729D01*
X18860471Y-25056150D01*
X18828880Y-24902218D01*
X18793728Y-24758320D01*
X18767717Y-24664694D01*
X18716958Y-24507516D01*
X18658208Y-24362344D01*
X18586822Y-24220727D01*
X18498160Y-24074214D01*
X18387578Y-23914353D01*
X18268821Y-23756404D01*
X18183411Y-23641185D01*
X18128357Y-23553149D01*
X18104402Y-23489229D01*
X18112288Y-23446356D01*
X18152757Y-23421463D01*
X18226552Y-23411483D01*
X18334414Y-23413347D01*
X18351586Y-23414336D01*
X18428223Y-23419527D01*
X18537638Y-23427644D01*
X18670433Y-23437954D01*
X18817211Y-23449724D01*
X18968574Y-23462220D01*
X19010640Y-23465761D01*
X19179586Y-23478935D01*
X19376007Y-23492438D01*
X19585064Y-23505362D01*
X19791916Y-23516802D01*
X19981724Y-23525851D01*
X20021349Y-23527496D01*
X20210955Y-23535127D01*
X20426436Y-23543829D01*
X20651370Y-23552937D01*
X20869335Y-23561786D01*
X21063907Y-23569710D01*
X21090265Y-23570787D01*
X21743310Y-23615780D01*
X22374755Y-23696757D01*
X22985939Y-23814125D01*
X23578200Y-23968287D01*
X24152877Y-24159648D01*
X24711309Y-24388613D01*
X25254833Y-24655586D01*
X25784788Y-24960973D01*
X25874677Y-25017405D01*
X26146152Y-25194735D01*
X26401280Y-25372075D01*
X26647246Y-25555128D01*
X26891230Y-25749594D01*
X27140417Y-25961174D01*
X27401988Y-26195570D01*
X27647110Y-26424284D01*
X27750353Y-26521939D01*
X27845591Y-26611678D01*
X27927748Y-26688742D01*
X27991746Y-26748376D01*
X28032508Y-26785822D01*
X28042152Y-26794368D01*
X28046251Y-26787807D01*
X28031905Y-26746531D01*
X28000356Y-26673303D01*
X27952846Y-26570887D01*
X27890615Y-26442045D01*
X27818624Y-26296949D01*
X27568052Y-25771418D01*
X27352457Y-25262305D01*
X27170403Y-24764434D01*
X27020453Y-24272631D01*
X26901173Y-23781722D01*
X26811126Y-23286531D01*
X26748876Y-22781885D01*
X26715793Y-22322726D01*
X26705911Y-22028311D01*
X26706072Y-21735732D01*
X26716729Y-21436711D01*
X26738332Y-21122972D01*
X26771333Y-20786237D01*
X26816183Y-20418231D01*
X26822064Y-20373955D01*
X26856369Y-20108825D01*
X26883385Y-19879194D01*
X26903666Y-19678961D01*
X26917766Y-19502025D01*
X26926239Y-19342283D01*
X26929641Y-19193635D01*
X26929668Y-19189603D01*
X26928513Y-19027208D01*
X26921088Y-18897250D01*
X26904930Y-18790002D01*
X26877577Y-18695742D01*
X26836566Y-18604742D01*
X26779435Y-18507278D01*
X26742649Y-18450979D01*
X26669481Y-18334756D01*
X26625606Y-18244844D01*
X26611702Y-18176361D01*
X26628446Y-18124423D01*
X26676516Y-18084146D01*
X26756586Y-18050648D01*
X26799974Y-18037410D01*
X26977267Y-17995898D01*
X27190285Y-17961158D01*
X27432942Y-17933323D01*
X27699153Y-17912526D01*
X27982833Y-17898902D01*
X28277897Y-17892584D01*
X28578260Y-17893707D01*
X28877836Y-17902403D01*
X29170540Y-17918807D01*
X29450287Y-17943053D01*
X29699807Y-17973658D01*
X30165359Y-18056889D01*
X30622114Y-18172412D01*
X31073561Y-18321642D01*
X31523188Y-18505996D01*
X31974484Y-18726893D01*
X32430938Y-18985748D01*
X32850681Y-19253443D01*
X33101498Y-19425094D01*
X33322514Y-19584663D01*
X33521990Y-19738600D01*
X33708187Y-19893357D01*
X33889364Y-20055384D01*
X33949015Y-20111130D01*
X34034262Y-20190896D01*
X34107721Y-20258311D01*
X34164413Y-20308912D01*
X34199355Y-20338235D01*
X34208307Y-20343458D01*
X34199290Y-20321255D01*
X34174384Y-20267957D01*
X34136805Y-20190250D01*
X34089771Y-20094815D01*
X34057292Y-20029714D01*
X33808651Y-19511758D01*
X33591543Y-19011378D01*
X33403466Y-18520977D01*
X33241918Y-18032958D01*
X33104397Y-17539723D01*
X32988402Y-17033674D01*
X32891429Y-16507214D01*
X32885732Y-16472149D01*
X32796036Y-15800505D01*
X32745859Y-15141827D01*
X32735212Y-14493873D01*
X32764108Y-13854401D01*
X32832557Y-13221168D01*
X32904990Y-12775122D01*
X32957558Y-12510808D01*
X33010254Y-12285233D01*
X33062865Y-12098990D01*
X33115178Y-11952670D01*
X33166980Y-11846865D01*
X33218060Y-11782167D01*
X33268203Y-11759167D01*
X33270492Y-11759122D01*
X33304612Y-11772052D01*
X33352097Y-11812188D01*
X33414672Y-11881545D01*
X33494065Y-11982136D01*
X33592001Y-12115978D01*
X33664638Y-12219197D01*
X33870308Y-12494976D01*
X34083035Y-12738564D01*
X34309328Y-12955428D01*
X34555693Y-13151032D01*
X34828638Y-13330840D01*
X35134671Y-13500317D01*
X35270590Y-13567781D01*
X35501411Y-13674137D01*
X35741100Y-13774424D01*
X35995122Y-13870508D01*
X36268946Y-13964255D01*
X36568037Y-14057530D01*
X36897861Y-14152199D01*
X37263885Y-14250129D01*
X37288057Y-14256392D01*
X37622069Y-14344491D01*
X37919343Y-14426692D01*
X38184808Y-14504578D01*
X38423393Y-14579726D01*
X38640027Y-14653718D01*
X38839641Y-14728133D01*
X39027163Y-14804550D01*
X39108390Y-14839779D01*
X39371437Y-14962783D01*
X39605920Y-15088309D01*
X39822532Y-15223420D01*
X40031965Y-15375180D01*
X40244913Y-15550654D01*
X40412582Y-15701346D01*
X40517498Y-15799102D01*
X40594819Y-15869793D01*
X40649309Y-15913647D01*
X40685733Y-15930893D01*
X40708855Y-15921758D01*
X40723439Y-15886471D01*
X40734251Y-15825261D01*
X40746054Y-15738357D01*
X40749017Y-15717472D01*
X40790841Y-15519557D01*
X40862313Y-15296125D01*
X40962239Y-15050657D01*
X41022301Y-14921156D01*
X41077477Y-14808827D01*
X41130193Y-14708045D01*
X41183472Y-14615425D01*
X41240337Y-14527582D01*
X41303813Y-14441128D01*
X41376921Y-14352679D01*
X41462686Y-14258848D01*
X41564131Y-14156249D01*
X41684279Y-14041497D01*
X41826154Y-13911204D01*
X41992779Y-13761986D01*
X42187176Y-13590456D01*
X42294577Y-13496280D01*
X42523970Y-13294060D01*
X42723354Y-13114912D01*
X42895744Y-12955420D01*
X43044153Y-12812168D01*
X43171595Y-12681739D01*
X43281083Y-12560716D01*
X43375631Y-12445682D01*
X43458251Y-12333222D01*
X43531959Y-12219917D01*
X43599767Y-12102353D01*
X43664689Y-11977111D01*
X43701445Y-11901216D01*
X43758647Y-11777117D01*
X43804412Y-11666782D01*
X43839457Y-11563835D01*
X43864501Y-11461895D01*
X43880260Y-11354587D01*
X43887452Y-11235531D01*
X43886794Y-11098350D01*
X43879004Y-10936665D01*
X43864798Y-10744099D01*
X43850451Y-10576528D01*
X43839912Y-10453169D01*
X43831419Y-10345194D01*
X43825440Y-10259326D01*
X43822445Y-10202291D01*
X43822858Y-10180848D01*
X43844439Y-10186770D01*
X43897418Y-10210789D01*
X43976440Y-10249995D01*
X44076151Y-10301475D01*
X44191195Y-10362320D01*
X44316219Y-10429617D01*
X44445867Y-10500457D01*
X44574784Y-10571928D01*
X44697617Y-10641119D01*
X44809009Y-10705119D01*
X44903607Y-10761018D01*
X44976055Y-10805903D01*
X44992724Y-10816821D01*
X45380290Y-11096747D01*
X45744249Y-11402475D01*
X46080224Y-11729714D01*
X46383843Y-12074171D01*
X46650728Y-12431555D01*
X46674218Y-12466328D01*
X46739909Y-12563338D01*
X46798571Y-12647833D01*
X46845727Y-12713530D01*
X46876901Y-12754147D01*
X46886352Y-12764051D01*
X46901609Y-12755773D01*
X46908184Y-12711016D01*
X46908307Y-12701395D01*
X46917020Y-12604038D01*
X46941979Y-12473515D01*
X46981413Y-12314972D01*
X47033553Y-12133550D01*
X47096627Y-11934394D01*
X47168865Y-11722647D01*
X47248496Y-11503452D01*
X47333750Y-11281954D01*
X47422857Y-11063294D01*
X47514046Y-10852617D01*
X47605546Y-10655067D01*
X47630011Y-10604776D01*
X47761779Y-10358095D01*
X47917809Y-10105600D01*
X48101324Y-9842558D01*
X48315546Y-9564235D01*
X48450873Y-9399038D01*
X48543524Y-9292250D01*
X48652972Y-9172960D01*
X48775705Y-9044437D01*
X48908208Y-8909951D01*
X49046970Y-8772769D01*
X49188478Y-8636160D01*
X49329219Y-8503395D01*
X49465680Y-8377741D01*
X49594350Y-8262467D01*
X49711714Y-8160842D01*
X49814261Y-8076135D01*
X49898478Y-8011615D01*
X49960852Y-7970551D01*
X49997870Y-7956212D01*
X50000961Y-7956554D01*
G37*
%TD*%
M02*
