%TF.GenerationSoftware,KiCad,Pcbnew,7.0.1*%
%TF.CreationDate,2023-06-01T23:30:30-07:00*%
%TF.ProjectId,flower,666c6f77-6572-42e6-9b69-6361645f7063,rev?*%
%TF.SameCoordinates,Original*%
%TF.FileFunction,Legend,Top*%
%TF.FilePolarity,Positive*%
%FSLAX46Y46*%
G04 Gerber Fmt 4.6, Leading zero omitted, Abs format (unit mm)*
G04 Created by KiCad (PCBNEW 7.0.1) date 2023-06-01 23:30:30*
%MOMM*%
%LPD*%
G01*
G04 APERTURE LIST*
%ADD10C,0.150000*%
G04 APERTURE END LIST*
D10*
X48023809Y-95377619D02*
X48023809Y-96091904D01*
X48023809Y-96091904D02*
X47976190Y-96234761D01*
X47976190Y-96234761D02*
X47880952Y-96330000D01*
X47880952Y-96330000D02*
X47738095Y-96377619D01*
X47738095Y-96377619D02*
X47642857Y-96377619D01*
X48976190Y-96377619D02*
X48500000Y-96377619D01*
X48500000Y-96377619D02*
X48500000Y-95377619D01*
X49880952Y-96282380D02*
X49833333Y-96330000D01*
X49833333Y-96330000D02*
X49690476Y-96377619D01*
X49690476Y-96377619D02*
X49595238Y-96377619D01*
X49595238Y-96377619D02*
X49452381Y-96330000D01*
X49452381Y-96330000D02*
X49357143Y-96234761D01*
X49357143Y-96234761D02*
X49309524Y-96139523D01*
X49309524Y-96139523D02*
X49261905Y-95949047D01*
X49261905Y-95949047D02*
X49261905Y-95806190D01*
X49261905Y-95806190D02*
X49309524Y-95615714D01*
X49309524Y-95615714D02*
X49357143Y-95520476D01*
X49357143Y-95520476D02*
X49452381Y-95425238D01*
X49452381Y-95425238D02*
X49595238Y-95377619D01*
X49595238Y-95377619D02*
X49690476Y-95377619D01*
X49690476Y-95377619D02*
X49833333Y-95425238D01*
X49833333Y-95425238D02*
X49880952Y-95472857D01*
X50595238Y-95377619D02*
X50595238Y-96091904D01*
X50595238Y-96091904D02*
X50547619Y-96234761D01*
X50547619Y-96234761D02*
X50452381Y-96330000D01*
X50452381Y-96330000D02*
X50309524Y-96377619D01*
X50309524Y-96377619D02*
X50214286Y-96377619D01*
X51547619Y-96377619D02*
X51071429Y-96377619D01*
X51071429Y-96377619D02*
X51071429Y-95377619D01*
X52452381Y-96282380D02*
X52404762Y-96330000D01*
X52404762Y-96330000D02*
X52261905Y-96377619D01*
X52261905Y-96377619D02*
X52166667Y-96377619D01*
X52166667Y-96377619D02*
X52023810Y-96330000D01*
X52023810Y-96330000D02*
X51928572Y-96234761D01*
X51928572Y-96234761D02*
X51880953Y-96139523D01*
X51880953Y-96139523D02*
X51833334Y-95949047D01*
X51833334Y-95949047D02*
X51833334Y-95806190D01*
X51833334Y-95806190D02*
X51880953Y-95615714D01*
X51880953Y-95615714D02*
X51928572Y-95520476D01*
X51928572Y-95520476D02*
X52023810Y-95425238D01*
X52023810Y-95425238D02*
X52166667Y-95377619D01*
X52166667Y-95377619D02*
X52261905Y-95377619D01*
X52261905Y-95377619D02*
X52404762Y-95425238D01*
X52404762Y-95425238D02*
X52452381Y-95472857D01*
X53166667Y-95377619D02*
X53166667Y-96091904D01*
X53166667Y-96091904D02*
X53119048Y-96234761D01*
X53119048Y-96234761D02*
X53023810Y-96330000D01*
X53023810Y-96330000D02*
X52880953Y-96377619D01*
X52880953Y-96377619D02*
X52785715Y-96377619D01*
X54119048Y-96377619D02*
X53642858Y-96377619D01*
X53642858Y-96377619D02*
X53642858Y-95377619D01*
X55023810Y-96282380D02*
X54976191Y-96330000D01*
X54976191Y-96330000D02*
X54833334Y-96377619D01*
X54833334Y-96377619D02*
X54738096Y-96377619D01*
X54738096Y-96377619D02*
X54595239Y-96330000D01*
X54595239Y-96330000D02*
X54500001Y-96234761D01*
X54500001Y-96234761D02*
X54452382Y-96139523D01*
X54452382Y-96139523D02*
X54404763Y-95949047D01*
X54404763Y-95949047D02*
X54404763Y-95806190D01*
X54404763Y-95806190D02*
X54452382Y-95615714D01*
X54452382Y-95615714D02*
X54500001Y-95520476D01*
X54500001Y-95520476D02*
X54595239Y-95425238D01*
X54595239Y-95425238D02*
X54738096Y-95377619D01*
X54738096Y-95377619D02*
X54833334Y-95377619D01*
X54833334Y-95377619D02*
X54976191Y-95425238D01*
X54976191Y-95425238D02*
X55023810Y-95472857D01*
X55738096Y-95377619D02*
X55738096Y-96091904D01*
X55738096Y-96091904D02*
X55690477Y-96234761D01*
X55690477Y-96234761D02*
X55595239Y-96330000D01*
X55595239Y-96330000D02*
X55452382Y-96377619D01*
X55452382Y-96377619D02*
X55357144Y-96377619D01*
X56690477Y-96377619D02*
X56214287Y-96377619D01*
X56214287Y-96377619D02*
X56214287Y-95377619D01*
X57595239Y-96282380D02*
X57547620Y-96330000D01*
X57547620Y-96330000D02*
X57404763Y-96377619D01*
X57404763Y-96377619D02*
X57309525Y-96377619D01*
X57309525Y-96377619D02*
X57166668Y-96330000D01*
X57166668Y-96330000D02*
X57071430Y-96234761D01*
X57071430Y-96234761D02*
X57023811Y-96139523D01*
X57023811Y-96139523D02*
X56976192Y-95949047D01*
X56976192Y-95949047D02*
X56976192Y-95806190D01*
X56976192Y-95806190D02*
X57023811Y-95615714D01*
X57023811Y-95615714D02*
X57071430Y-95520476D01*
X57071430Y-95520476D02*
X57166668Y-95425238D01*
X57166668Y-95425238D02*
X57309525Y-95377619D01*
X57309525Y-95377619D02*
X57404763Y-95377619D01*
X57404763Y-95377619D02*
X57547620Y-95425238D01*
X57547620Y-95425238D02*
X57595239Y-95472857D01*
M02*
