%TF.GenerationSoftware,KiCad,Pcbnew,7.0.1*%
%TF.CreationDate,2023-05-31T20:33:01-07:00*%
%TF.ProjectId,skull_01,736b756c-6c5f-4303-912e-6b696361645f,rev?*%
%TF.SameCoordinates,Original*%
%TF.FileFunction,Legend,Top*%
%TF.FilePolarity,Positive*%
%FSLAX46Y46*%
G04 Gerber Fmt 4.6, Leading zero omitted, Abs format (unit mm)*
G04 Created by KiCad (PCBNEW 7.0.1) date 2023-05-31 20:33:01*
%MOMM*%
%LPD*%
G01*
G04 APERTURE LIST*
%ADD10C,0.150000*%
G04 APERTURE END LIST*
D10*
X44523809Y-94877619D02*
X44523809Y-95591904D01*
X44523809Y-95591904D02*
X44476190Y-95734761D01*
X44476190Y-95734761D02*
X44380952Y-95830000D01*
X44380952Y-95830000D02*
X44238095Y-95877619D01*
X44238095Y-95877619D02*
X44142857Y-95877619D01*
X45476190Y-95877619D02*
X45000000Y-95877619D01*
X45000000Y-95877619D02*
X45000000Y-94877619D01*
X46380952Y-95782380D02*
X46333333Y-95830000D01*
X46333333Y-95830000D02*
X46190476Y-95877619D01*
X46190476Y-95877619D02*
X46095238Y-95877619D01*
X46095238Y-95877619D02*
X45952381Y-95830000D01*
X45952381Y-95830000D02*
X45857143Y-95734761D01*
X45857143Y-95734761D02*
X45809524Y-95639523D01*
X45809524Y-95639523D02*
X45761905Y-95449047D01*
X45761905Y-95449047D02*
X45761905Y-95306190D01*
X45761905Y-95306190D02*
X45809524Y-95115714D01*
X45809524Y-95115714D02*
X45857143Y-95020476D01*
X45857143Y-95020476D02*
X45952381Y-94925238D01*
X45952381Y-94925238D02*
X46095238Y-94877619D01*
X46095238Y-94877619D02*
X46190476Y-94877619D01*
X46190476Y-94877619D02*
X46333333Y-94925238D01*
X46333333Y-94925238D02*
X46380952Y-94972857D01*
X47095238Y-94877619D02*
X47095238Y-95591904D01*
X47095238Y-95591904D02*
X47047619Y-95734761D01*
X47047619Y-95734761D02*
X46952381Y-95830000D01*
X46952381Y-95830000D02*
X46809524Y-95877619D01*
X46809524Y-95877619D02*
X46714286Y-95877619D01*
X48047619Y-95877619D02*
X47571429Y-95877619D01*
X47571429Y-95877619D02*
X47571429Y-94877619D01*
X48952381Y-95782380D02*
X48904762Y-95830000D01*
X48904762Y-95830000D02*
X48761905Y-95877619D01*
X48761905Y-95877619D02*
X48666667Y-95877619D01*
X48666667Y-95877619D02*
X48523810Y-95830000D01*
X48523810Y-95830000D02*
X48428572Y-95734761D01*
X48428572Y-95734761D02*
X48380953Y-95639523D01*
X48380953Y-95639523D02*
X48333334Y-95449047D01*
X48333334Y-95449047D02*
X48333334Y-95306190D01*
X48333334Y-95306190D02*
X48380953Y-95115714D01*
X48380953Y-95115714D02*
X48428572Y-95020476D01*
X48428572Y-95020476D02*
X48523810Y-94925238D01*
X48523810Y-94925238D02*
X48666667Y-94877619D01*
X48666667Y-94877619D02*
X48761905Y-94877619D01*
X48761905Y-94877619D02*
X48904762Y-94925238D01*
X48904762Y-94925238D02*
X48952381Y-94972857D01*
X49666667Y-94877619D02*
X49666667Y-95591904D01*
X49666667Y-95591904D02*
X49619048Y-95734761D01*
X49619048Y-95734761D02*
X49523810Y-95830000D01*
X49523810Y-95830000D02*
X49380953Y-95877619D01*
X49380953Y-95877619D02*
X49285715Y-95877619D01*
X50619048Y-95877619D02*
X50142858Y-95877619D01*
X50142858Y-95877619D02*
X50142858Y-94877619D01*
X51523810Y-95782380D02*
X51476191Y-95830000D01*
X51476191Y-95830000D02*
X51333334Y-95877619D01*
X51333334Y-95877619D02*
X51238096Y-95877619D01*
X51238096Y-95877619D02*
X51095239Y-95830000D01*
X51095239Y-95830000D02*
X51000001Y-95734761D01*
X51000001Y-95734761D02*
X50952382Y-95639523D01*
X50952382Y-95639523D02*
X50904763Y-95449047D01*
X50904763Y-95449047D02*
X50904763Y-95306190D01*
X50904763Y-95306190D02*
X50952382Y-95115714D01*
X50952382Y-95115714D02*
X51000001Y-95020476D01*
X51000001Y-95020476D02*
X51095239Y-94925238D01*
X51095239Y-94925238D02*
X51238096Y-94877619D01*
X51238096Y-94877619D02*
X51333334Y-94877619D01*
X51333334Y-94877619D02*
X51476191Y-94925238D01*
X51476191Y-94925238D02*
X51523810Y-94972857D01*
X52238096Y-94877619D02*
X52238096Y-95591904D01*
X52238096Y-95591904D02*
X52190477Y-95734761D01*
X52190477Y-95734761D02*
X52095239Y-95830000D01*
X52095239Y-95830000D02*
X51952382Y-95877619D01*
X51952382Y-95877619D02*
X51857144Y-95877619D01*
X53190477Y-95877619D02*
X52714287Y-95877619D01*
X52714287Y-95877619D02*
X52714287Y-94877619D01*
X54095239Y-95782380D02*
X54047620Y-95830000D01*
X54047620Y-95830000D02*
X53904763Y-95877619D01*
X53904763Y-95877619D02*
X53809525Y-95877619D01*
X53809525Y-95877619D02*
X53666668Y-95830000D01*
X53666668Y-95830000D02*
X53571430Y-95734761D01*
X53571430Y-95734761D02*
X53523811Y-95639523D01*
X53523811Y-95639523D02*
X53476192Y-95449047D01*
X53476192Y-95449047D02*
X53476192Y-95306190D01*
X53476192Y-95306190D02*
X53523811Y-95115714D01*
X53523811Y-95115714D02*
X53571430Y-95020476D01*
X53571430Y-95020476D02*
X53666668Y-94925238D01*
X53666668Y-94925238D02*
X53809525Y-94877619D01*
X53809525Y-94877619D02*
X53904763Y-94877619D01*
X53904763Y-94877619D02*
X54047620Y-94925238D01*
X54047620Y-94925238D02*
X54095239Y-94972857D01*
M02*
