%TF.GenerationSoftware,KiCad,Pcbnew,7.0.1*%
%TF.CreationDate,2023-06-02T16:28:31-07:00*%
%TF.ProjectId,skull,736b756c-6c2e-46b6-9963-61645f706362,rev?*%
%TF.SameCoordinates,Original*%
%TF.FileFunction,Legend,Top*%
%TF.FilePolarity,Positive*%
%FSLAX46Y46*%
G04 Gerber Fmt 4.6, Leading zero omitted, Abs format (unit mm)*
G04 Created by KiCad (PCBNEW 7.0.1) date 2023-06-02 16:28:31*
%MOMM*%
%LPD*%
G01*
G04 APERTURE LIST*
%ADD10C,0.150000*%
G04 APERTURE END LIST*
D10*
X45023809Y-93877619D02*
X45023809Y-94591904D01*
X45023809Y-94591904D02*
X44976190Y-94734761D01*
X44976190Y-94734761D02*
X44880952Y-94830000D01*
X44880952Y-94830000D02*
X44738095Y-94877619D01*
X44738095Y-94877619D02*
X44642857Y-94877619D01*
X45976190Y-94877619D02*
X45500000Y-94877619D01*
X45500000Y-94877619D02*
X45500000Y-93877619D01*
X46880952Y-94782380D02*
X46833333Y-94830000D01*
X46833333Y-94830000D02*
X46690476Y-94877619D01*
X46690476Y-94877619D02*
X46595238Y-94877619D01*
X46595238Y-94877619D02*
X46452381Y-94830000D01*
X46452381Y-94830000D02*
X46357143Y-94734761D01*
X46357143Y-94734761D02*
X46309524Y-94639523D01*
X46309524Y-94639523D02*
X46261905Y-94449047D01*
X46261905Y-94449047D02*
X46261905Y-94306190D01*
X46261905Y-94306190D02*
X46309524Y-94115714D01*
X46309524Y-94115714D02*
X46357143Y-94020476D01*
X46357143Y-94020476D02*
X46452381Y-93925238D01*
X46452381Y-93925238D02*
X46595238Y-93877619D01*
X46595238Y-93877619D02*
X46690476Y-93877619D01*
X46690476Y-93877619D02*
X46833333Y-93925238D01*
X46833333Y-93925238D02*
X46880952Y-93972857D01*
X47595238Y-93877619D02*
X47595238Y-94591904D01*
X47595238Y-94591904D02*
X47547619Y-94734761D01*
X47547619Y-94734761D02*
X47452381Y-94830000D01*
X47452381Y-94830000D02*
X47309524Y-94877619D01*
X47309524Y-94877619D02*
X47214286Y-94877619D01*
X48547619Y-94877619D02*
X48071429Y-94877619D01*
X48071429Y-94877619D02*
X48071429Y-93877619D01*
X49452381Y-94782380D02*
X49404762Y-94830000D01*
X49404762Y-94830000D02*
X49261905Y-94877619D01*
X49261905Y-94877619D02*
X49166667Y-94877619D01*
X49166667Y-94877619D02*
X49023810Y-94830000D01*
X49023810Y-94830000D02*
X48928572Y-94734761D01*
X48928572Y-94734761D02*
X48880953Y-94639523D01*
X48880953Y-94639523D02*
X48833334Y-94449047D01*
X48833334Y-94449047D02*
X48833334Y-94306190D01*
X48833334Y-94306190D02*
X48880953Y-94115714D01*
X48880953Y-94115714D02*
X48928572Y-94020476D01*
X48928572Y-94020476D02*
X49023810Y-93925238D01*
X49023810Y-93925238D02*
X49166667Y-93877619D01*
X49166667Y-93877619D02*
X49261905Y-93877619D01*
X49261905Y-93877619D02*
X49404762Y-93925238D01*
X49404762Y-93925238D02*
X49452381Y-93972857D01*
X50166667Y-93877619D02*
X50166667Y-94591904D01*
X50166667Y-94591904D02*
X50119048Y-94734761D01*
X50119048Y-94734761D02*
X50023810Y-94830000D01*
X50023810Y-94830000D02*
X49880953Y-94877619D01*
X49880953Y-94877619D02*
X49785715Y-94877619D01*
X51119048Y-94877619D02*
X50642858Y-94877619D01*
X50642858Y-94877619D02*
X50642858Y-93877619D01*
X52023810Y-94782380D02*
X51976191Y-94830000D01*
X51976191Y-94830000D02*
X51833334Y-94877619D01*
X51833334Y-94877619D02*
X51738096Y-94877619D01*
X51738096Y-94877619D02*
X51595239Y-94830000D01*
X51595239Y-94830000D02*
X51500001Y-94734761D01*
X51500001Y-94734761D02*
X51452382Y-94639523D01*
X51452382Y-94639523D02*
X51404763Y-94449047D01*
X51404763Y-94449047D02*
X51404763Y-94306190D01*
X51404763Y-94306190D02*
X51452382Y-94115714D01*
X51452382Y-94115714D02*
X51500001Y-94020476D01*
X51500001Y-94020476D02*
X51595239Y-93925238D01*
X51595239Y-93925238D02*
X51738096Y-93877619D01*
X51738096Y-93877619D02*
X51833334Y-93877619D01*
X51833334Y-93877619D02*
X51976191Y-93925238D01*
X51976191Y-93925238D02*
X52023810Y-93972857D01*
X52738096Y-93877619D02*
X52738096Y-94591904D01*
X52738096Y-94591904D02*
X52690477Y-94734761D01*
X52690477Y-94734761D02*
X52595239Y-94830000D01*
X52595239Y-94830000D02*
X52452382Y-94877619D01*
X52452382Y-94877619D02*
X52357144Y-94877619D01*
X53690477Y-94877619D02*
X53214287Y-94877619D01*
X53214287Y-94877619D02*
X53214287Y-93877619D01*
X54595239Y-94782380D02*
X54547620Y-94830000D01*
X54547620Y-94830000D02*
X54404763Y-94877619D01*
X54404763Y-94877619D02*
X54309525Y-94877619D01*
X54309525Y-94877619D02*
X54166668Y-94830000D01*
X54166668Y-94830000D02*
X54071430Y-94734761D01*
X54071430Y-94734761D02*
X54023811Y-94639523D01*
X54023811Y-94639523D02*
X53976192Y-94449047D01*
X53976192Y-94449047D02*
X53976192Y-94306190D01*
X53976192Y-94306190D02*
X54023811Y-94115714D01*
X54023811Y-94115714D02*
X54071430Y-94020476D01*
X54071430Y-94020476D02*
X54166668Y-93925238D01*
X54166668Y-93925238D02*
X54309525Y-93877619D01*
X54309525Y-93877619D02*
X54404763Y-93877619D01*
X54404763Y-93877619D02*
X54547620Y-93925238D01*
X54547620Y-93925238D02*
X54595239Y-93972857D01*
M02*
