%TF.GenerationSoftware,KiCad,Pcbnew,7.0.1*%
%TF.CreationDate,2023-06-01T23:18:07-07:00*%
%TF.ProjectId,set_02,7365745f-3032-42e6-9b69-6361645f7063,rev?*%
%TF.SameCoordinates,Original*%
%TF.FileFunction,Soldermask,Bot*%
%TF.FilePolarity,Negative*%
%FSLAX46Y46*%
G04 Gerber Fmt 4.6, Leading zero omitted, Abs format (unit mm)*
G04 Created by KiCad (PCBNEW 7.0.1) date 2023-06-01 23:18:07*
%MOMM*%
%LPD*%
G01*
G04 APERTURE LIST*
%ADD10C,0.010000*%
G04 APERTURE END LIST*
%TO.C,G\u002A\u002A\u002A*%
D10*
X50494358Y-9455190D02*
X50529367Y-9469916D01*
X50580702Y-9498482D01*
X50652525Y-9543274D01*
X50749003Y-9606684D01*
X50874298Y-9691100D01*
X50932906Y-9730935D01*
X51190510Y-9907985D01*
X51417529Y-10068053D01*
X51619755Y-10215808D01*
X51802980Y-10355923D01*
X51972996Y-10493068D01*
X52135593Y-10631914D01*
X52296565Y-10777132D01*
X52461702Y-10933393D01*
X52635392Y-11103968D01*
X53065513Y-11558075D01*
X53456552Y-12025021D01*
X53810656Y-12508046D01*
X54129973Y-13010388D01*
X54416650Y-13535287D01*
X54672835Y-14085982D01*
X54772247Y-14326725D01*
X54820608Y-14446886D01*
X54864034Y-14552398D01*
X54900026Y-14637384D01*
X54926086Y-14695966D01*
X54939715Y-14722266D01*
X54940773Y-14723138D01*
X54955330Y-14706274D01*
X54988475Y-14659877D01*
X55035995Y-14590080D01*
X55093680Y-14503018D01*
X55126614Y-14452466D01*
X55238844Y-14287084D01*
X55362049Y-14121496D01*
X55500300Y-13950957D01*
X55657666Y-13770719D01*
X55838217Y-13576035D01*
X56046023Y-13362159D01*
X56155430Y-13252497D01*
X56479825Y-12937485D01*
X56789997Y-12652985D01*
X57093144Y-12392995D01*
X57396461Y-12151511D01*
X57707145Y-11922531D01*
X57953765Y-11752405D01*
X58077352Y-11670919D01*
X58172127Y-11612463D01*
X58243190Y-11574723D01*
X58295635Y-11555382D01*
X58334559Y-11552124D01*
X58365059Y-11562634D01*
X58367757Y-11564299D01*
X58386446Y-11583540D01*
X58396127Y-11615902D01*
X58396654Y-11667787D01*
X58387884Y-11745596D01*
X58369673Y-11855731D01*
X58359994Y-11908755D01*
X58334285Y-12160096D01*
X58347492Y-12421186D01*
X58398794Y-12687180D01*
X58487369Y-12953233D01*
X58566734Y-13128267D01*
X58626322Y-13235760D01*
X58700493Y-13349317D01*
X58791368Y-13471238D01*
X58901070Y-13603828D01*
X59031720Y-13749387D01*
X59185441Y-13910221D01*
X59364353Y-14088629D01*
X59570579Y-14286917D01*
X59806241Y-14507385D01*
X60010190Y-14694708D01*
X60227045Y-14894494D01*
X60414156Y-15071222D01*
X60574834Y-15228281D01*
X60712394Y-15369057D01*
X60830147Y-15496940D01*
X60931406Y-15615316D01*
X61017256Y-15724601D01*
X61190317Y-15972047D01*
X61329298Y-16210875D01*
X61437885Y-16450621D01*
X61519765Y-16700820D01*
X61578625Y-16971009D01*
X61618151Y-17270723D01*
X61619199Y-17281541D01*
X61629974Y-17394571D01*
X61639155Y-17491937D01*
X61646051Y-17566221D01*
X61649969Y-17610007D01*
X61650606Y-17618472D01*
X61662392Y-17607901D01*
X61693356Y-17571503D01*
X61736907Y-17517041D01*
X61738869Y-17514531D01*
X61882589Y-17335317D01*
X62012389Y-17184542D01*
X62135720Y-17054104D01*
X62260033Y-16935898D01*
X62317356Y-16885333D01*
X62667828Y-16605358D01*
X63035752Y-16356789D01*
X63429767Y-16134007D01*
X63608523Y-16045142D01*
X63792012Y-15959904D01*
X63963487Y-15886419D01*
X64129878Y-15822692D01*
X64298116Y-15766727D01*
X64475133Y-15716528D01*
X64667859Y-15670101D01*
X64883226Y-15625450D01*
X65128164Y-15580580D01*
X65354773Y-15542414D01*
X65540010Y-15512123D01*
X65741815Y-15479143D01*
X65947395Y-15445563D01*
X66143962Y-15413473D01*
X66318725Y-15384960D01*
X66402523Y-15371299D01*
X66657498Y-15327604D01*
X66902548Y-15281476D01*
X67131372Y-15234284D01*
X67337667Y-15187396D01*
X67515132Y-15142184D01*
X67657463Y-15100015D01*
X67669943Y-15095877D01*
X67916875Y-14997685D01*
X68168157Y-14869435D01*
X68416143Y-14716700D01*
X68653187Y-14545054D01*
X68871643Y-14360068D01*
X69063865Y-14167314D01*
X69222207Y-13972366D01*
X69233559Y-13956302D01*
X69287083Y-13885856D01*
X69339118Y-13827790D01*
X69380101Y-13792546D01*
X69386957Y-13788767D01*
X69429005Y-13776262D01*
X69464243Y-13789366D01*
X69492809Y-13813710D01*
X69529980Y-13864377D01*
X69574426Y-13950916D01*
X69624258Y-14067868D01*
X69677586Y-14209776D01*
X69732521Y-14371183D01*
X69787172Y-14546631D01*
X69839652Y-14730661D01*
X69888070Y-14917816D01*
X69915778Y-15035495D01*
X69959848Y-15267208D01*
X69996390Y-15534452D01*
X70025403Y-15831098D01*
X70046891Y-16151021D01*
X70060853Y-16488091D01*
X70067291Y-16836183D01*
X70066206Y-17189167D01*
X70057599Y-17540916D01*
X70041471Y-17885304D01*
X70017824Y-18216202D01*
X69986658Y-18527483D01*
X69947975Y-18813019D01*
X69915043Y-19001415D01*
X69803279Y-19490323D01*
X69657873Y-19989016D01*
X69482518Y-20487316D01*
X69280902Y-20975047D01*
X69056716Y-21442029D01*
X68972752Y-21600247D01*
X68841646Y-21840822D01*
X68966168Y-21760090D01*
X69256448Y-21574916D01*
X69519767Y-21413641D01*
X69761766Y-21273160D01*
X69988084Y-21150366D01*
X70204361Y-21042154D01*
X70416238Y-20945419D01*
X70543028Y-20891828D01*
X71015637Y-20714329D01*
X71486610Y-20571471D01*
X71960341Y-20462719D01*
X72441225Y-20387537D01*
X72933656Y-20345386D01*
X73442027Y-20335730D01*
X73970733Y-20358034D01*
X74498773Y-20408687D01*
X74642703Y-20426992D01*
X74751930Y-20444095D01*
X74833946Y-20462199D01*
X74896244Y-20483507D01*
X74946315Y-20510225D01*
X74991653Y-20544554D01*
X75007176Y-20558221D01*
X75109997Y-20672769D01*
X75209466Y-20825791D01*
X75304374Y-21013479D01*
X75393514Y-21232029D01*
X75475678Y-21477633D01*
X75549660Y-21746487D01*
X75614250Y-22034784D01*
X75668241Y-22338718D01*
X75710427Y-22654484D01*
X75727979Y-22829786D01*
X75738823Y-23000781D01*
X75744396Y-23199474D01*
X75744971Y-23415545D01*
X75740821Y-23638676D01*
X75732218Y-23858548D01*
X75719437Y-24064841D01*
X75702750Y-24247236D01*
X75687344Y-24365338D01*
X75595402Y-24850923D01*
X75472836Y-25311239D01*
X75317228Y-25752583D01*
X75126159Y-26181252D01*
X74897214Y-26603544D01*
X74717176Y-26892542D01*
X74584574Y-27089404D01*
X74449715Y-27277634D01*
X74307825Y-27463044D01*
X74154127Y-27651444D01*
X73983848Y-27848645D01*
X73792211Y-28060457D01*
X73574442Y-28292690D01*
X73517210Y-28352684D01*
X73418845Y-28456507D01*
X73331078Y-28551083D01*
X73257953Y-28631895D01*
X73203511Y-28694428D01*
X73171795Y-28734166D01*
X73165273Y-28745829D01*
X73171044Y-28776631D01*
X73186427Y-28836800D01*
X73208526Y-28915255D01*
X73217543Y-28945760D01*
X73260483Y-29100255D01*
X73291238Y-29240863D01*
X73312411Y-29383423D01*
X73326608Y-29543776D01*
X73332316Y-29643883D01*
X73345190Y-29905927D01*
X73599190Y-29667818D01*
X74059864Y-29261797D01*
X74552347Y-28877851D01*
X75077679Y-28515351D01*
X75636901Y-28173668D01*
X76231052Y-27852171D01*
X76861174Y-27550233D01*
X77528308Y-27267223D01*
X77642023Y-27222298D01*
X77996100Y-27089179D01*
X78352674Y-26965361D01*
X78705350Y-26852691D01*
X79047735Y-26753014D01*
X79373435Y-26668176D01*
X79676056Y-26600023D01*
X79949203Y-26550401D01*
X79991523Y-26544046D01*
X80112172Y-26530059D01*
X80268535Y-26517406D01*
X80454006Y-26506252D01*
X80661983Y-26496766D01*
X80885861Y-26489113D01*
X81119035Y-26483460D01*
X81354903Y-26479974D01*
X81586859Y-26478821D01*
X81808300Y-26480168D01*
X82012622Y-26484182D01*
X82158454Y-26489386D01*
X82355209Y-26498863D01*
X82513833Y-26508357D01*
X82638520Y-26518559D01*
X82733468Y-26530160D01*
X82802873Y-26543851D01*
X82850931Y-26560323D01*
X82881837Y-26580267D01*
X82899788Y-26604373D01*
X82903079Y-26612002D01*
X82911281Y-26660319D01*
X82897922Y-26712506D01*
X82860220Y-26771868D01*
X82795389Y-26841708D01*
X82700645Y-26925330D01*
X82573204Y-27026040D01*
X82520940Y-27065503D01*
X82301279Y-27246063D01*
X82111546Y-27438422D01*
X81948312Y-27647883D01*
X81808145Y-27879748D01*
X81687614Y-28139322D01*
X81583288Y-28431906D01*
X81538284Y-28584465D01*
X81505303Y-28708100D01*
X81474411Y-28835452D01*
X81444385Y-28972747D01*
X81413998Y-29126213D01*
X81382028Y-29302076D01*
X81347249Y-29506563D01*
X81308437Y-29745899D01*
X81302379Y-29784005D01*
X81240456Y-30161608D01*
X81180065Y-30500847D01*
X81119848Y-30805594D01*
X81058449Y-31079718D01*
X80994509Y-31327092D01*
X80926671Y-31551586D01*
X80853578Y-31757070D01*
X80773872Y-31947416D01*
X80686195Y-32126495D01*
X80589191Y-32298177D01*
X80481500Y-32466333D01*
X80361767Y-32634835D01*
X80252621Y-32777280D01*
X80109386Y-32959005D01*
X80315038Y-32972429D01*
X80538549Y-32995886D01*
X80777806Y-33036654D01*
X81021396Y-33091812D01*
X81257907Y-33158438D01*
X81475926Y-33233612D01*
X81664042Y-33314413D01*
X81677925Y-33321266D01*
X81927295Y-33463804D01*
X82183264Y-33645742D01*
X82446200Y-33867430D01*
X82716471Y-34129221D01*
X82994445Y-34431465D01*
X83280490Y-34774514D01*
X83505276Y-35065088D01*
X83756408Y-35392199D01*
X83991179Y-35682516D01*
X84211191Y-35937578D01*
X84418048Y-36158922D01*
X84613351Y-36348089D01*
X84798706Y-36506615D01*
X84975714Y-36636039D01*
X85145979Y-36737901D01*
X85311104Y-36813738D01*
X85337987Y-36823864D01*
X85477895Y-36868219D01*
X85611054Y-36894519D01*
X85745447Y-36902405D01*
X85889056Y-36891520D01*
X86049863Y-36861503D01*
X86235851Y-36811997D01*
X86344599Y-36778611D01*
X86473339Y-36738895D01*
X86568471Y-36712925D01*
X86636134Y-36699873D01*
X86682465Y-36698910D01*
X86713604Y-36709208D01*
X86732725Y-36726212D01*
X86740846Y-36768213D01*
X86720899Y-36837676D01*
X86674772Y-36932148D01*
X86604351Y-37049177D01*
X86511524Y-37186312D01*
X86398178Y-37341101D01*
X86266202Y-37511092D01*
X86117481Y-37693834D01*
X85953905Y-37886874D01*
X85777360Y-38087762D01*
X85589734Y-38294045D01*
X85392913Y-38503272D01*
X85254870Y-38645892D01*
X85133901Y-38769806D01*
X85040114Y-38867061D01*
X84970759Y-38940934D01*
X84923085Y-38994701D01*
X84894339Y-39031637D01*
X84881773Y-39055019D01*
X84882633Y-39068124D01*
X84894170Y-39074227D01*
X84895037Y-39074419D01*
X84931941Y-39080503D01*
X85002763Y-39090648D01*
X85099404Y-39103752D01*
X85213765Y-39118709D01*
X85304356Y-39130235D01*
X85846051Y-39214519D01*
X86364682Y-39327965D01*
X86858289Y-39469900D01*
X87324913Y-39639651D01*
X87762594Y-39836545D01*
X88169373Y-40059911D01*
X88355033Y-40177631D01*
X88516791Y-40288622D01*
X88689161Y-40413146D01*
X88866278Y-40546473D01*
X89042276Y-40683873D01*
X89211289Y-40820618D01*
X89367454Y-40951976D01*
X89504903Y-41073219D01*
X89617773Y-41179616D01*
X89687771Y-41252356D01*
X89740907Y-41315271D01*
X89768318Y-41360288D01*
X89775475Y-41398126D01*
X89772903Y-41419062D01*
X89752748Y-41476073D01*
X89710845Y-41561901D01*
X89650528Y-41671262D01*
X89575133Y-41798872D01*
X89487996Y-41939446D01*
X89392454Y-42087701D01*
X89291841Y-42238354D01*
X89189493Y-42386119D01*
X89088747Y-42525712D01*
X89001883Y-42640401D01*
X88644773Y-43065844D01*
X88262671Y-43457197D01*
X87855727Y-43814337D01*
X87424089Y-44137141D01*
X86967908Y-44425484D01*
X86627273Y-44610199D01*
X86460735Y-44693165D01*
X86307193Y-44766000D01*
X86157799Y-44832338D01*
X86003705Y-44895818D01*
X85836064Y-44960075D01*
X85646029Y-45028746D01*
X85424751Y-45105467D01*
X85410190Y-45110439D01*
X85254876Y-45163515D01*
X85135803Y-45204695D01*
X85049144Y-45235750D01*
X84991072Y-45258450D01*
X84957761Y-45274564D01*
X84945383Y-45285863D01*
X84950112Y-45294117D01*
X84968122Y-45301094D01*
X84986856Y-45306240D01*
X85037836Y-45319450D01*
X85119917Y-45340358D01*
X85223117Y-45366437D01*
X85337458Y-45395160D01*
X85378440Y-45405414D01*
X85875081Y-45544872D01*
X86341787Y-45708264D01*
X86785317Y-45898418D01*
X87212433Y-46118163D01*
X87524537Y-46303135D01*
X87787262Y-46473874D01*
X88033450Y-46647536D01*
X88267231Y-46828096D01*
X88492736Y-47019531D01*
X88714098Y-47225818D01*
X88935448Y-47450933D01*
X89160917Y-47698852D01*
X89394637Y-47973551D01*
X89640739Y-48279006D01*
X89827277Y-48519371D01*
X89996068Y-48740909D01*
X90139725Y-48932174D01*
X90259859Y-49095707D01*
X90358081Y-49234050D01*
X90436003Y-49349745D01*
X90495237Y-49445332D01*
X90537394Y-49523352D01*
X90564086Y-49586347D01*
X90576925Y-49636858D01*
X90577521Y-49677426D01*
X90573389Y-49695877D01*
X90551617Y-49726150D01*
X90504865Y-49772112D01*
X90442499Y-49824703D01*
X90430712Y-49833887D01*
X90391548Y-49867298D01*
X90325538Y-49927518D01*
X90235853Y-50011506D01*
X90125665Y-50116220D01*
X89998146Y-50238620D01*
X89856467Y-50375665D01*
X89703800Y-50524313D01*
X89543318Y-50681523D01*
X89420520Y-50802446D01*
X89122668Y-51095134D01*
X88853481Y-51356974D01*
X88612794Y-51588117D01*
X88400445Y-51788717D01*
X88216269Y-51958926D01*
X88060103Y-52098898D01*
X87931784Y-52208784D01*
X87831149Y-52288738D01*
X87823190Y-52294659D01*
X87699022Y-52380371D01*
X87544022Y-52477857D01*
X87366425Y-52582577D01*
X87174462Y-52689993D01*
X86976368Y-52795566D01*
X86780375Y-52894758D01*
X86594716Y-52983031D01*
X86489690Y-53029735D01*
X85969326Y-53232418D01*
X85435305Y-53397779D01*
X84884074Y-53526766D01*
X84312082Y-53620327D01*
X84246023Y-53628709D01*
X84126501Y-53643612D01*
X84021348Y-53657045D01*
X83937886Y-53668047D01*
X83883434Y-53675657D01*
X83865825Y-53678615D01*
X83879379Y-53685583D01*
X83928409Y-53702149D01*
X84007572Y-53726685D01*
X84111527Y-53757560D01*
X84234930Y-53793145D01*
X84320908Y-53817432D01*
X84651299Y-53913473D01*
X84949596Y-54008071D01*
X85225711Y-54105034D01*
X85489555Y-54208169D01*
X85751041Y-54321286D01*
X86020080Y-54448190D01*
X86210763Y-54543471D01*
X86761136Y-54843516D01*
X87280026Y-55166678D01*
X87766008Y-55511890D01*
X88217656Y-55878085D01*
X88633543Y-56264195D01*
X88936489Y-56583289D01*
X89079045Y-56744229D01*
X89194389Y-56879238D01*
X89285165Y-56992395D01*
X89354019Y-57087778D01*
X89403597Y-57169465D01*
X89436544Y-57241535D01*
X89455506Y-57308067D01*
X89463128Y-57373140D01*
X89463606Y-57395922D01*
X89457008Y-57472427D01*
X89434944Y-57549299D01*
X89394007Y-57632887D01*
X89330793Y-57729541D01*
X89241894Y-57845609D01*
X89185418Y-57914505D01*
X88836998Y-58299936D01*
X88457746Y-58657545D01*
X88049805Y-58986056D01*
X87615320Y-59284191D01*
X87156435Y-59550673D01*
X86675296Y-59784225D01*
X86174046Y-59983570D01*
X85654830Y-60147430D01*
X85279149Y-60240932D01*
X85015602Y-60295541D01*
X84757309Y-60340541D01*
X84492588Y-60377551D01*
X84209760Y-60408193D01*
X83897142Y-60434086D01*
X83875606Y-60435636D01*
X83736565Y-60445879D01*
X83610709Y-60455743D01*
X83504529Y-60464672D01*
X83424511Y-60472110D01*
X83377146Y-60477501D01*
X83367941Y-60479189D01*
X83369688Y-60493802D01*
X83404999Y-60525824D01*
X83470321Y-60572311D01*
X83516107Y-60601942D01*
X83770922Y-60763628D01*
X83994326Y-60907954D01*
X84191555Y-61038744D01*
X84367849Y-61159824D01*
X84528447Y-61275020D01*
X84678586Y-61388156D01*
X84823505Y-61503059D01*
X84968442Y-61623553D01*
X85118637Y-61753465D01*
X85237390Y-61858938D01*
X85608701Y-62213450D01*
X85944276Y-62579060D01*
X86242493Y-62953728D01*
X86501731Y-63335417D01*
X86720368Y-63722088D01*
X86721523Y-63724358D01*
X86775153Y-63830642D01*
X86811373Y-63905847D01*
X86832307Y-63956447D01*
X86840078Y-63988920D01*
X86836813Y-64009740D01*
X86824636Y-64025385D01*
X86821300Y-64028479D01*
X86805011Y-64039709D01*
X86785135Y-64041806D01*
X86756035Y-64031839D01*
X86712073Y-64006877D01*
X86647613Y-63963988D01*
X86557016Y-63900241D01*
X86509708Y-63866466D01*
X86358192Y-63759258D01*
X86234213Y-63674476D01*
X86131933Y-63608500D01*
X86045517Y-63557712D01*
X85969126Y-63518493D01*
X85900033Y-63488457D01*
X85777251Y-63448984D01*
X85635319Y-63418536D01*
X85485095Y-63398041D01*
X85337437Y-63388424D01*
X85203204Y-63390612D01*
X85093255Y-63405532D01*
X85055307Y-63416390D01*
X84916222Y-63481520D01*
X84764645Y-63580874D01*
X84606412Y-63710516D01*
X84570065Y-63743852D01*
X84510711Y-63799988D01*
X84456031Y-63853576D01*
X84403897Y-63907529D01*
X84352182Y-63964761D01*
X84298761Y-64028183D01*
X84241507Y-64100707D01*
X84178293Y-64185247D01*
X84106993Y-64284714D01*
X84025480Y-64402021D01*
X83931628Y-64540080D01*
X83823310Y-64701805D01*
X83698400Y-64890106D01*
X83554771Y-65107898D01*
X83390296Y-65358091D01*
X83380279Y-65373344D01*
X83236358Y-65590764D01*
X83111047Y-65776089D01*
X83001241Y-65933562D01*
X82903834Y-66067428D01*
X82815721Y-66181932D01*
X82733796Y-66281316D01*
X82654954Y-66369827D01*
X82637627Y-66388353D01*
X82396128Y-66616873D01*
X82117365Y-66830642D01*
X81804546Y-67027330D01*
X81625034Y-67124368D01*
X81467752Y-67201865D01*
X81336750Y-67258819D01*
X81223265Y-67298437D01*
X81118533Y-67323929D01*
X81051604Y-67334369D01*
X80987412Y-67344910D01*
X80944497Y-67356784D01*
X80933440Y-67364738D01*
X80950626Y-67387595D01*
X80999720Y-67430560D01*
X81077022Y-67490841D01*
X81178832Y-67565650D01*
X81301451Y-67652195D01*
X81441179Y-67747688D01*
X81441440Y-67747863D01*
X81602385Y-67858677D01*
X81752205Y-67967598D01*
X81893669Y-68077617D01*
X82029550Y-68191726D01*
X82162617Y-68312916D01*
X82295642Y-68444177D01*
X82431394Y-68588502D01*
X82572646Y-68748881D01*
X82722167Y-68928305D01*
X82882729Y-69129765D01*
X83057102Y-69356253D01*
X83248058Y-69610760D01*
X83458366Y-69896277D01*
X83557690Y-70032422D01*
X83760298Y-70306884D01*
X83946682Y-70550661D01*
X84121799Y-70769720D01*
X84290602Y-70970031D01*
X84458049Y-71157560D01*
X84629094Y-71338278D01*
X84710635Y-71421052D01*
X84896763Y-71602844D01*
X85063339Y-71754051D01*
X85215674Y-71878352D01*
X85359079Y-71979426D01*
X85498865Y-72060951D01*
X85640343Y-72126605D01*
X85788825Y-72180066D01*
X85820769Y-72189901D01*
X85903750Y-72217067D01*
X85976416Y-72244859D01*
X86024243Y-72267675D01*
X86027144Y-72269497D01*
X86068468Y-72318361D01*
X86072678Y-72384602D01*
X86039915Y-72465495D01*
X86015069Y-72503313D01*
X85940479Y-72589788D01*
X85832004Y-72692131D01*
X85693828Y-72807686D01*
X85530134Y-72933799D01*
X85345103Y-73067814D01*
X85142918Y-73207076D01*
X84927762Y-73348930D01*
X84703817Y-73490722D01*
X84475266Y-73629797D01*
X84246291Y-73763499D01*
X84021074Y-73889174D01*
X83803799Y-74004167D01*
X83598648Y-74105822D01*
X83409802Y-74191486D01*
X83261773Y-74251032D01*
X82911321Y-74362667D01*
X82528294Y-74448876D01*
X82114210Y-74509331D01*
X82025138Y-74518560D01*
X81907062Y-74527029D01*
X81755598Y-74533401D01*
X81579642Y-74537675D01*
X81388089Y-74539855D01*
X81189831Y-74539940D01*
X80993765Y-74537932D01*
X80808785Y-74533832D01*
X80643784Y-74527641D01*
X80507658Y-74519361D01*
X80495384Y-74518368D01*
X79832052Y-74445374D01*
X79153659Y-74336232D01*
X78464666Y-74192359D01*
X77769530Y-74015172D01*
X77072711Y-73806088D01*
X76378667Y-73566523D01*
X75691858Y-73297895D01*
X75016742Y-73001620D01*
X74357779Y-72679116D01*
X73853190Y-72407643D01*
X73665719Y-72302793D01*
X73511890Y-72217399D01*
X73388632Y-72149835D01*
X73292875Y-72098476D01*
X73221551Y-72061697D01*
X73171589Y-72037871D01*
X73139919Y-72025375D01*
X73125719Y-72022442D01*
X73118059Y-72031288D01*
X73129329Y-72059240D01*
X73160734Y-72107808D01*
X73213478Y-72178500D01*
X73288767Y-72272825D01*
X73387805Y-72392293D01*
X73511799Y-72538412D01*
X73661954Y-72712691D01*
X73839473Y-72916641D01*
X73843870Y-72921672D01*
X74183735Y-73317510D01*
X74491816Y-73691496D01*
X74770273Y-74047081D01*
X75021261Y-74387714D01*
X75246938Y-74716844D01*
X75449462Y-75037921D01*
X75630990Y-75354395D01*
X75793680Y-75669716D01*
X75939689Y-75987333D01*
X76071174Y-76310696D01*
X76190293Y-76643255D01*
X76211736Y-76707858D01*
X76327295Y-77092527D01*
X76417281Y-77467338D01*
X76482955Y-77841488D01*
X76525579Y-78224174D01*
X76546415Y-78624592D01*
X76546724Y-79051938D01*
X76544650Y-79134088D01*
X76534326Y-79404529D01*
X76519361Y-79641796D01*
X76498572Y-79854906D01*
X76470772Y-80052877D01*
X76434776Y-80244727D01*
X76389401Y-80439473D01*
X76356985Y-80562174D01*
X76305211Y-80737524D01*
X76255737Y-80874338D01*
X76206239Y-80976158D01*
X76154396Y-81046528D01*
X76097885Y-81088992D01*
X76034382Y-81107093D01*
X75999152Y-81108110D01*
X75960275Y-81104284D01*
X75919671Y-81094054D01*
X75871788Y-81074518D01*
X75811075Y-81042773D01*
X75731982Y-80995919D01*
X75628956Y-80931054D01*
X75497121Y-80845717D01*
X75340263Y-80747204D01*
X75180015Y-80654625D01*
X75011657Y-80565905D01*
X74830467Y-80478969D01*
X74631728Y-80391744D01*
X74410719Y-80302155D01*
X74162720Y-80208127D01*
X73883012Y-80107587D01*
X73578342Y-80002355D01*
X73224477Y-79880317D01*
X72906873Y-79766875D01*
X72620825Y-79659954D01*
X72361626Y-79557483D01*
X72124570Y-79457387D01*
X71904952Y-79357595D01*
X71698065Y-79256031D01*
X71499205Y-79150625D01*
X71303664Y-79039301D01*
X71106737Y-78919987D01*
X71071607Y-78898021D01*
X70820974Y-78732287D01*
X70570179Y-78549127D01*
X70314073Y-78344360D01*
X70047511Y-78113804D01*
X69765346Y-77853280D01*
X69653323Y-77745902D01*
X69380565Y-77475563D01*
X69139752Y-77222815D01*
X68926757Y-76983101D01*
X68737447Y-76751863D01*
X68654919Y-76644064D01*
X68553011Y-76510231D01*
X68469156Y-76406922D01*
X68397864Y-76329481D01*
X68333642Y-76273250D01*
X68270998Y-76233574D01*
X68204442Y-76205795D01*
X68128481Y-76185257D01*
X68108862Y-76181017D01*
X67985883Y-76153909D01*
X67873090Y-76125349D01*
X67764880Y-76093019D01*
X67655652Y-76054602D01*
X67539803Y-76007781D01*
X67411730Y-75950238D01*
X67265833Y-75879654D01*
X67096508Y-75793713D01*
X66898153Y-75690097D01*
X66811736Y-75644406D01*
X66703317Y-75589112D01*
X66593762Y-75537013D01*
X66491230Y-75491612D01*
X66403878Y-75456417D01*
X66339864Y-75434933D01*
X66312610Y-75429922D01*
X66319752Y-75445675D01*
X66352508Y-75491425D01*
X66409084Y-75564908D01*
X66487682Y-75663859D01*
X66586510Y-75786014D01*
X66703769Y-75929109D01*
X66816102Y-76064922D01*
X67312130Y-76692912D01*
X67771537Y-77337551D01*
X68193523Y-77997412D01*
X68577291Y-78671072D01*
X68922040Y-79357106D01*
X69226973Y-80054089D01*
X69491289Y-80760597D01*
X69552660Y-80943838D01*
X69666186Y-81308179D01*
X69761512Y-81653906D01*
X69839658Y-81988402D01*
X69901642Y-82319054D01*
X69948484Y-82653245D01*
X69981203Y-82998361D01*
X70000818Y-83361786D01*
X70008347Y-83750905D01*
X70004811Y-84173103D01*
X70003961Y-84214088D01*
X69992624Y-84571369D01*
X69974843Y-84902158D01*
X69950906Y-85203853D01*
X69921099Y-85473848D01*
X69885709Y-85709539D01*
X69845022Y-85908322D01*
X69800209Y-86065039D01*
X69763234Y-86164691D01*
X69730489Y-86230026D01*
X69696197Y-86267861D01*
X69654583Y-86285011D01*
X69610934Y-86288422D01*
X69568456Y-86284771D01*
X69519971Y-86272315D01*
X69461252Y-86248796D01*
X69388070Y-86211954D01*
X69296196Y-86159533D01*
X69181404Y-86089274D01*
X69039464Y-85998919D01*
X68903401Y-85910567D01*
X68539621Y-85681268D01*
X68183739Y-85474725D01*
X67824707Y-85285260D01*
X67451473Y-85107197D01*
X67052988Y-84934859D01*
X66825022Y-84842813D01*
X66675113Y-84784187D01*
X66533774Y-84730352D01*
X66395727Y-84679567D01*
X66255696Y-84630089D01*
X66108402Y-84580179D01*
X65948568Y-84528094D01*
X65770915Y-84472094D01*
X65570167Y-84410439D01*
X65341046Y-84341386D01*
X65078273Y-84263195D01*
X64978977Y-84233820D01*
X64584654Y-84116779D01*
X64228406Y-84009705D01*
X63907467Y-83911429D01*
X63619068Y-83820786D01*
X63360443Y-83736607D01*
X63128825Y-83657725D01*
X62921445Y-83582972D01*
X62735537Y-83511182D01*
X62568333Y-83441186D01*
X62417067Y-83371817D01*
X62278969Y-83301908D01*
X62151275Y-83230292D01*
X62031215Y-83155800D01*
X61916022Y-83077266D01*
X61802931Y-82993522D01*
X61689172Y-82903400D01*
X61571979Y-82805734D01*
X61550593Y-82787508D01*
X61408240Y-82660451D01*
X61271542Y-82528289D01*
X61144747Y-82395933D01*
X61032105Y-82268293D01*
X60937864Y-82150281D01*
X60866273Y-82046805D01*
X60821581Y-81962778D01*
X60811570Y-81933380D01*
X60796002Y-81896355D01*
X60783074Y-81885755D01*
X60769536Y-81904378D01*
X60746234Y-81954518D01*
X60716941Y-82027581D01*
X60697097Y-82081547D01*
X60594745Y-82351003D01*
X60484846Y-82602541D01*
X60364549Y-82839657D01*
X60231001Y-83065846D01*
X60081351Y-83284607D01*
X59912747Y-83499436D01*
X59722338Y-83713828D01*
X59507271Y-83931282D01*
X59264695Y-84155294D01*
X58991759Y-84389360D01*
X58685609Y-84636977D01*
X58486218Y-84792407D01*
X58224693Y-84996583D01*
X57996100Y-85181245D01*
X57797502Y-85349366D01*
X57625966Y-85503918D01*
X57478555Y-85647873D01*
X57352335Y-85784206D01*
X57244369Y-85915889D01*
X57151723Y-86045895D01*
X57071462Y-86177196D01*
X57016129Y-86281299D01*
X56943237Y-86444388D01*
X56889702Y-86607452D01*
X56854341Y-86778475D01*
X56835970Y-86965443D01*
X56833402Y-87176339D01*
X56845454Y-87419149D01*
X56846076Y-87427646D01*
X56854333Y-87547687D01*
X56860547Y-87654640D01*
X56864352Y-87740635D01*
X56865379Y-87797804D01*
X56864252Y-87816444D01*
X56844905Y-87824087D01*
X56799409Y-87805854D01*
X56732205Y-87765131D01*
X56647733Y-87705304D01*
X56550435Y-87629761D01*
X56444752Y-87541888D01*
X56335124Y-87445072D01*
X56225992Y-87342700D01*
X56167972Y-87285437D01*
X55866364Y-86961537D01*
X55579217Y-86613038D01*
X55311643Y-86247385D01*
X55068754Y-85872023D01*
X54855662Y-85494398D01*
X54677480Y-85121953D01*
X54669360Y-85103088D01*
X54515913Y-84709778D01*
X54379145Y-84289205D01*
X54262311Y-83854036D01*
X54168667Y-83416940D01*
X54101469Y-82990583D01*
X54081848Y-82817088D01*
X54074598Y-82752960D01*
X54067328Y-82713445D01*
X54059343Y-82700938D01*
X54049952Y-82717836D01*
X54038459Y-82766535D01*
X54024173Y-82849431D01*
X54006401Y-82968921D01*
X53984447Y-83127400D01*
X53977749Y-83176922D01*
X53915222Y-83621433D01*
X53852330Y-84027539D01*
X53788061Y-84399162D01*
X53721399Y-84740224D01*
X53651330Y-85054648D01*
X53576839Y-85346357D01*
X53496912Y-85619272D01*
X53410534Y-85877317D01*
X53316691Y-86124415D01*
X53214369Y-86364486D01*
X53102553Y-86601455D01*
X53080743Y-86645271D01*
X52885762Y-87009408D01*
X52662692Y-87379441D01*
X52429650Y-87730309D01*
X52310613Y-87897904D01*
X52180880Y-88072489D01*
X52043278Y-88250862D01*
X51900632Y-88429820D01*
X51755770Y-88606162D01*
X51611518Y-88776686D01*
X51470702Y-88938189D01*
X51336148Y-89087468D01*
X51210683Y-89221322D01*
X51097132Y-89336549D01*
X50998323Y-89429946D01*
X50917082Y-89498311D01*
X50856234Y-89538442D01*
X50825249Y-89548088D01*
X50799710Y-89533793D01*
X50754799Y-89496124D01*
X50699760Y-89442906D01*
X50693990Y-89436963D01*
X50641274Y-89378492D01*
X50571662Y-89295810D01*
X50493290Y-89198846D01*
X50414295Y-89097527D01*
X50394766Y-89071838D01*
X50310948Y-88962723D01*
X50210535Y-88835336D01*
X50091814Y-88687582D01*
X49953073Y-88517366D01*
X49792598Y-88322594D01*
X49608677Y-88101171D01*
X49399597Y-87851002D01*
X49278457Y-87706588D01*
X48951487Y-87309193D01*
X48652126Y-86927576D01*
X48373872Y-86552445D01*
X48110222Y-86174508D01*
X47854675Y-85784475D01*
X47600727Y-85373053D01*
X47368393Y-84977200D01*
X47292808Y-84845769D01*
X47224282Y-84726814D01*
X47165592Y-84625140D01*
X47119515Y-84545551D01*
X47088829Y-84492851D01*
X47076310Y-84471847D01*
X47076218Y-84471723D01*
X47065363Y-84487459D01*
X47038464Y-84535402D01*
X46998520Y-84609950D01*
X46948524Y-84705501D01*
X46891475Y-84816451D01*
X46883824Y-84831465D01*
X46627084Y-85292715D01*
X46333584Y-85739560D01*
X46001965Y-86173839D01*
X45630866Y-86597391D01*
X45406503Y-86829376D01*
X45200915Y-87029577D01*
X45014417Y-87199412D01*
X44841784Y-87343168D01*
X44677788Y-87465133D01*
X44517204Y-87569593D01*
X44470575Y-87597197D01*
X44369547Y-87654381D01*
X44297240Y-87691126D01*
X44246710Y-87709799D01*
X44211014Y-87712768D01*
X44183208Y-87702399D01*
X44176113Y-87697591D01*
X44157477Y-87680871D01*
X44150470Y-87659326D01*
X44155608Y-87622621D01*
X44173405Y-87560419D01*
X44184741Y-87524323D01*
X44218540Y-87389670D01*
X44246646Y-87222476D01*
X44268576Y-87032209D01*
X44283844Y-86828338D01*
X44291966Y-86620334D01*
X44292458Y-86417666D01*
X44284834Y-86229804D01*
X44268611Y-86066217D01*
X44261658Y-86021319D01*
X44219507Y-85816294D01*
X44163242Y-85615076D01*
X44091014Y-85414643D01*
X44000978Y-85211973D01*
X43891286Y-85004047D01*
X43760092Y-84787842D01*
X43605548Y-84560338D01*
X43425809Y-84318513D01*
X43219026Y-84059346D01*
X42983354Y-83779816D01*
X42716946Y-83476903D01*
X42683399Y-83439478D01*
X42414652Y-83132195D01*
X42171702Y-82837859D01*
X41955959Y-82558450D01*
X41768834Y-82295951D01*
X41611738Y-82052340D01*
X41486084Y-81829598D01*
X41393281Y-81629705D01*
X41392653Y-81628150D01*
X41325252Y-81460944D01*
X41274825Y-81610692D01*
X41168520Y-81873431D01*
X41025800Y-82143310D01*
X40850807Y-82415346D01*
X40647689Y-82684558D01*
X40420588Y-82945964D01*
X40173650Y-83194582D01*
X39911020Y-83425429D01*
X39636843Y-83633525D01*
X39533662Y-83703519D01*
X39269693Y-83866499D01*
X38995549Y-84014684D01*
X38707448Y-84149312D01*
X38401608Y-84271623D01*
X38074245Y-84382855D01*
X37721578Y-84484248D01*
X37339824Y-84577039D01*
X36925201Y-84662468D01*
X36473926Y-84741773D01*
X36261190Y-84775289D01*
X35896098Y-84833732D01*
X35568259Y-84892629D01*
X35272610Y-84953692D01*
X35004089Y-85018634D01*
X34757633Y-85089169D01*
X34528180Y-85167010D01*
X34310668Y-85253870D01*
X34100035Y-85351462D01*
X33891218Y-85461498D01*
X33679155Y-85585694D01*
X33465442Y-85721391D01*
X33316110Y-85818597D01*
X33197550Y-85892886D01*
X33105471Y-85945059D01*
X33035582Y-85975921D01*
X32983592Y-85986273D01*
X32945210Y-85976918D01*
X32916144Y-85948659D01*
X32892103Y-85902299D01*
X32868797Y-85838640D01*
X32867008Y-85833338D01*
X32835379Y-85731631D01*
X32797374Y-85597142D01*
X32755129Y-85438560D01*
X32710780Y-85264570D01*
X32666463Y-85083861D01*
X32624314Y-84905120D01*
X32586469Y-84737034D01*
X32555064Y-84588290D01*
X32534797Y-84482243D01*
X32455948Y-83948830D01*
X32403906Y-83395506D01*
X32378953Y-82833106D01*
X32381370Y-82272463D01*
X32411439Y-81724413D01*
X32452724Y-81324838D01*
X32559239Y-80644682D01*
X32706238Y-79974358D01*
X32894059Y-79312759D01*
X33123043Y-78658780D01*
X33393528Y-78011317D01*
X33608197Y-77560467D01*
X33726688Y-77331240D01*
X33857063Y-77092453D01*
X33995800Y-76849729D01*
X34139379Y-76608687D01*
X34284280Y-76374949D01*
X34426982Y-76154135D01*
X34563963Y-75951867D01*
X34691703Y-75773765D01*
X34806682Y-75625450D01*
X34859335Y-75563020D01*
X34907901Y-75505926D01*
X34942079Y-75462659D01*
X34955408Y-75441459D01*
X34955219Y-75440699D01*
X34931809Y-75440379D01*
X34873526Y-75445070D01*
X34787417Y-75453891D01*
X34680530Y-75465962D01*
X34559913Y-75480403D01*
X34432614Y-75496332D01*
X34305682Y-75512869D01*
X34186163Y-75529135D01*
X34081105Y-75544248D01*
X33997558Y-75557327D01*
X33945716Y-75566815D01*
X33833809Y-75593874D01*
X33736010Y-75626676D01*
X33647893Y-75669147D01*
X33565035Y-75725213D01*
X33483010Y-75798803D01*
X33397394Y-75893841D01*
X33303762Y-76014255D01*
X33197689Y-76163972D01*
X33086279Y-76329505D01*
X32868122Y-76651497D01*
X32661584Y-76940859D01*
X32461657Y-77203896D01*
X32263334Y-77446909D01*
X32061606Y-77676200D01*
X31851466Y-77898073D01*
X31792725Y-77957435D01*
X31393467Y-78331115D01*
X30981775Y-78664797D01*
X30557915Y-78958318D01*
X30122152Y-79211515D01*
X29674753Y-79424224D01*
X29215983Y-79596283D01*
X29025632Y-79654760D01*
X28678785Y-79746204D01*
X28358837Y-79812223D01*
X28059332Y-79853452D01*
X27773810Y-79870530D01*
X27495815Y-79864096D01*
X27218888Y-79834786D01*
X27212440Y-79833841D01*
X27024098Y-79803835D01*
X26852144Y-79772018D01*
X26701319Y-79739542D01*
X26576366Y-79707557D01*
X26482027Y-79677212D01*
X26423045Y-79649660D01*
X26409902Y-79639140D01*
X26371216Y-79577106D01*
X26332799Y-79476454D01*
X26295160Y-79340901D01*
X26258810Y-79174160D01*
X26224258Y-78979949D01*
X26192013Y-78761981D01*
X26162586Y-78523972D01*
X26136487Y-78269638D01*
X26114223Y-78002693D01*
X26096307Y-77726854D01*
X26083246Y-77445835D01*
X26076389Y-77207922D01*
X26073201Y-76800103D01*
X26081943Y-76426212D01*
X26103911Y-76079203D01*
X26140401Y-75752028D01*
X26192708Y-75437640D01*
X26262127Y-75128992D01*
X26349953Y-74819036D01*
X26457483Y-74500726D01*
X26586012Y-74167014D01*
X26674366Y-73955015D01*
X26841961Y-73577688D01*
X27007876Y-73235526D01*
X27175731Y-72921690D01*
X27349144Y-72629344D01*
X27493526Y-72407502D01*
X27548975Y-72324050D01*
X27593508Y-72253965D01*
X27622867Y-72204183D01*
X27632791Y-72181635D01*
X27632577Y-72181170D01*
X27612429Y-72188457D01*
X27560303Y-72213444D01*
X27481348Y-72253489D01*
X27380713Y-72305949D01*
X27263544Y-72368183D01*
X27169552Y-72418796D01*
X26501123Y-72761184D01*
X25834257Y-73062946D01*
X25164710Y-73325391D01*
X24488240Y-73549825D01*
X23800603Y-73737557D01*
X23097555Y-73889895D01*
X22374853Y-74008145D01*
X21783190Y-74078730D01*
X21641396Y-74089666D01*
X21465337Y-74097923D01*
X21262991Y-74103539D01*
X21042338Y-74106556D01*
X20811358Y-74107012D01*
X20578031Y-74104948D01*
X20350336Y-74100404D01*
X20136252Y-74093421D01*
X19943761Y-74084037D01*
X19780841Y-74072293D01*
X19740606Y-74068486D01*
X19459381Y-74037900D01*
X19213621Y-74006623D01*
X19004418Y-73974868D01*
X18832868Y-73942845D01*
X18700064Y-73910764D01*
X18607101Y-73878837D01*
X18555072Y-73847274D01*
X18548109Y-73838722D01*
X18541925Y-73814626D01*
X18546299Y-73775110D01*
X18562515Y-73716844D01*
X18591857Y-73636499D01*
X18635607Y-73530746D01*
X18695049Y-73396254D01*
X18771467Y-73229695D01*
X18836328Y-73091005D01*
X18931093Y-72887056D01*
X19014934Y-72700314D01*
X19089753Y-72525082D01*
X19157453Y-72355666D01*
X19219933Y-72186369D01*
X19279098Y-72011498D01*
X19336847Y-71825356D01*
X19395084Y-71622248D01*
X19455710Y-71396480D01*
X19520627Y-71142355D01*
X19591737Y-70854178D01*
X19614328Y-70761198D01*
X19717586Y-70343494D01*
X19815766Y-69964603D01*
X19909950Y-69621456D01*
X20001214Y-69310984D01*
X20090638Y-69030115D01*
X20179301Y-68775782D01*
X20268282Y-68544913D01*
X20358658Y-68334439D01*
X20451510Y-68141291D01*
X20547915Y-67962399D01*
X20648953Y-67794692D01*
X20666335Y-67767588D01*
X20744084Y-67651386D01*
X20824576Y-67540096D01*
X20913185Y-67427169D01*
X21015286Y-67306059D01*
X21136252Y-67170215D01*
X21281458Y-67013091D01*
X21314157Y-66978241D01*
X21402605Y-66883492D01*
X21479643Y-66799656D01*
X21541081Y-66731402D01*
X21582731Y-66683396D01*
X21600404Y-66660308D01*
X21600621Y-66659000D01*
X21577688Y-66654606D01*
X21521178Y-66647215D01*
X21439654Y-66637867D01*
X21343975Y-66627832D01*
X21112233Y-66598331D01*
X20909452Y-66557743D01*
X20722904Y-66502350D01*
X20539863Y-66428430D01*
X20365283Y-66341751D01*
X20244741Y-66274027D01*
X20123743Y-66198550D01*
X19999069Y-66112648D01*
X19867500Y-66013649D01*
X19725817Y-65898883D01*
X19570802Y-65765677D01*
X19399234Y-65611362D01*
X19207895Y-65433265D01*
X18993566Y-65228715D01*
X18813057Y-65053667D01*
X18581945Y-64829460D01*
X18377072Y-64633421D01*
X18195463Y-64463080D01*
X18034144Y-64315966D01*
X17890142Y-64189607D01*
X17760481Y-64081533D01*
X17642188Y-63989273D01*
X17532289Y-63910357D01*
X17427810Y-63842313D01*
X17325777Y-63782670D01*
X17223215Y-63728958D01*
X17211709Y-63723274D01*
X17058812Y-63653077D01*
X16922139Y-63603034D01*
X16785464Y-63568692D01*
X16632564Y-63545597D01*
X16526931Y-63535340D01*
X16225629Y-63526832D01*
X15921435Y-63552094D01*
X15608497Y-63611985D01*
X15280962Y-63707369D01*
X15223345Y-63727198D01*
X15119319Y-63763026D01*
X15030252Y-63792315D01*
X14963345Y-63812804D01*
X14925797Y-63822235D01*
X14920386Y-63822257D01*
X14926209Y-63800923D01*
X14949630Y-63750132D01*
X14986797Y-63676925D01*
X15033861Y-63588343D01*
X15086969Y-63491428D01*
X15142273Y-63393221D01*
X15195921Y-63300763D01*
X15244063Y-63221094D01*
X15277876Y-63168546D01*
X15489145Y-62871930D01*
X15724768Y-62570397D01*
X15978612Y-62270506D01*
X16244545Y-61978816D01*
X16516433Y-61701889D01*
X16788146Y-61446284D01*
X17053549Y-61218561D01*
X17228255Y-61082262D01*
X17314121Y-61018189D01*
X17386915Y-60963714D01*
X17440361Y-60923546D01*
X17468185Y-60902394D01*
X17470672Y-60900391D01*
X17452800Y-60893862D01*
X17399718Y-60878573D01*
X17317267Y-60856107D01*
X17211286Y-60828045D01*
X17087618Y-60795966D01*
X17036755Y-60782939D01*
X16558031Y-60649958D01*
X16115036Y-60503890D01*
X15702567Y-60342459D01*
X15315422Y-60163385D01*
X14948401Y-59964391D01*
X14596300Y-59743200D01*
X14480690Y-59663679D01*
X14294386Y-59524302D01*
X14089685Y-59356207D01*
X13872637Y-59165234D01*
X13649294Y-58957227D01*
X13425704Y-58738026D01*
X13207918Y-58513474D01*
X13001987Y-58289414D01*
X12813960Y-58071686D01*
X12745853Y-57988588D01*
X12669174Y-57891095D01*
X12586925Y-57782490D01*
X12503021Y-57668387D01*
X12421378Y-57554401D01*
X12345911Y-57446146D01*
X12280535Y-57349238D01*
X12229167Y-57269291D01*
X12195721Y-57211919D01*
X12184106Y-57183064D01*
X12193807Y-57154802D01*
X12220189Y-57098016D01*
X12259169Y-57021074D01*
X12304434Y-56936413D01*
X12421000Y-56747009D01*
X12570285Y-56542229D01*
X12747654Y-56326618D01*
X12948474Y-56104722D01*
X13168110Y-55881086D01*
X13401929Y-55660257D01*
X13645296Y-55446779D01*
X13893577Y-55245198D01*
X14142138Y-55060060D01*
X14381549Y-54898950D01*
X14648045Y-54736149D01*
X14909897Y-54589704D01*
X15173089Y-54457234D01*
X15443608Y-54336360D01*
X15727439Y-54224703D01*
X16030568Y-54119883D01*
X16358981Y-54019521D01*
X16718662Y-53921237D01*
X17048542Y-53838736D01*
X17179371Y-53806845D01*
X17294696Y-53778140D01*
X17388743Y-53754108D01*
X17455739Y-53736234D01*
X17489909Y-53726006D01*
X17493042Y-53724297D01*
X17472118Y-53716371D01*
X17415945Y-53696496D01*
X17329357Y-53666346D01*
X17217189Y-53627594D01*
X17084273Y-53581911D01*
X16935445Y-53530970D01*
X16851356Y-53502272D01*
X16465250Y-53367676D01*
X16103612Y-53235635D01*
X15768974Y-53107196D01*
X15463868Y-52983407D01*
X15190824Y-52865314D01*
X14952375Y-52753963D01*
X14751052Y-52650403D01*
X14644324Y-52589573D01*
X14411904Y-52440282D01*
X14183790Y-52272021D01*
X13953123Y-52079258D01*
X13713042Y-51856459D01*
X13611707Y-51756558D01*
X13439349Y-51580438D01*
X13283769Y-51412996D01*
X13140239Y-51248026D01*
X13004030Y-51079319D01*
X12870412Y-50900668D01*
X12734657Y-50705864D01*
X12592036Y-50488700D01*
X12437818Y-50242968D01*
X12352790Y-50104005D01*
X12203907Y-49861152D01*
X12070420Y-49648347D01*
X11947612Y-49458386D01*
X11830762Y-49284069D01*
X11715151Y-49118194D01*
X11622362Y-48989442D01*
X11554603Y-48895777D01*
X11496697Y-48814006D01*
X11452857Y-48750221D01*
X11427299Y-48710510D01*
X11422480Y-48700566D01*
X11439315Y-48684036D01*
X11485029Y-48649488D01*
X11552881Y-48601783D01*
X11636133Y-48545781D01*
X11646739Y-48538799D01*
X11751160Y-48468149D01*
X11857114Y-48391921D01*
X11967777Y-48307388D01*
X12086325Y-48211822D01*
X12215936Y-48102495D01*
X12359784Y-47976679D01*
X12521047Y-47831646D01*
X12702901Y-47664667D01*
X12908521Y-47473015D01*
X13125231Y-47268950D01*
X13411532Y-47001199D01*
X13671346Y-46764200D01*
X13904331Y-46558256D01*
X14110150Y-46383665D01*
X14269023Y-46255814D01*
X14580049Y-46029996D01*
X14909575Y-45821628D01*
X15247375Y-45636488D01*
X15583224Y-45480351D01*
X15777148Y-45403870D01*
X15864825Y-45370572D01*
X15935519Y-45341456D01*
X15981121Y-45320013D01*
X15994106Y-45310540D01*
X15977018Y-45294602D01*
X15931094Y-45263133D01*
X15864346Y-45221441D01*
X15819481Y-45194804D01*
X15721155Y-45137433D01*
X15605289Y-45069800D01*
X15490891Y-45003002D01*
X15443773Y-44975480D01*
X14966640Y-44673514D01*
X14519968Y-44342543D01*
X14102174Y-43981156D01*
X13711678Y-43587944D01*
X13346900Y-43161496D01*
X13207930Y-42981422D01*
X13111510Y-42848317D01*
X12999210Y-42685691D01*
X12875888Y-42500932D01*
X12746399Y-42301426D01*
X12615602Y-42094559D01*
X12488351Y-41887719D01*
X12482732Y-41878440D01*
X12308398Y-41590375D01*
X12428758Y-41391607D01*
X12507069Y-41266776D01*
X12583478Y-41156055D01*
X12664673Y-41051373D01*
X12757339Y-40944656D01*
X12868163Y-40827833D01*
X13003830Y-40692832D01*
X13023137Y-40674015D01*
X13322981Y-40395678D01*
X13616474Y-40151998D01*
X13911634Y-39937814D01*
X14216481Y-39747963D01*
X14539033Y-39577284D01*
X14887310Y-39420614D01*
X15105106Y-39333806D01*
X15508813Y-39191228D01*
X15913708Y-39072723D01*
X16332233Y-38975068D01*
X16776827Y-38895039D01*
X16830190Y-38886820D01*
X16955109Y-38867880D01*
X17071128Y-38850268D01*
X17169331Y-38835340D01*
X17240807Y-38824449D01*
X17270085Y-38819965D01*
X17350147Y-38807635D01*
X17100752Y-38637914D01*
X16703635Y-38343943D01*
X16317603Y-38010492D01*
X15944386Y-37639367D01*
X15585714Y-37232374D01*
X15243318Y-36791320D01*
X15006389Y-36451505D01*
X14901963Y-36293266D01*
X14822558Y-36167177D01*
X14768799Y-36070787D01*
X14741314Y-36001648D01*
X14740727Y-35957309D01*
X14767666Y-35935322D01*
X14822757Y-35933238D01*
X14906626Y-35948606D01*
X15019899Y-35978978D01*
X15119626Y-36008643D01*
X15318206Y-36063703D01*
X15491217Y-36099373D01*
X15649987Y-36117020D01*
X15805843Y-36118011D01*
X15938241Y-36107487D01*
X16223226Y-36056889D01*
X16501962Y-35968769D01*
X16778405Y-35841610D01*
X17040520Y-35684586D01*
X17164946Y-35595588D01*
X17296838Y-35488531D01*
X17438437Y-35361120D01*
X17591988Y-35211061D01*
X17759733Y-35036059D01*
X17943914Y-34833820D01*
X18146776Y-34602049D01*
X18370561Y-34338452D01*
X18453131Y-34239588D01*
X18566550Y-34106940D01*
X18695360Y-33962315D01*
X18829088Y-33817087D01*
X18957265Y-33682634D01*
X19066832Y-33572838D01*
X19301165Y-33355650D01*
X19524764Y-33171218D01*
X19746027Y-33014538D01*
X19973356Y-32880604D01*
X20215150Y-32764413D01*
X20479810Y-32660959D01*
X20739969Y-32575974D01*
X20851202Y-32541578D01*
X20948322Y-32510227D01*
X21023988Y-32484393D01*
X21070858Y-32466551D01*
X21082163Y-32460658D01*
X21075664Y-32439524D01*
X21044864Y-32393457D01*
X20994300Y-32328518D01*
X20928510Y-32250767D01*
X20905663Y-32224932D01*
X20664555Y-31941338D01*
X20458050Y-31667085D01*
X20281967Y-31394546D01*
X20132125Y-31116093D01*
X20004343Y-30824098D01*
X19894439Y-30510935D01*
X19815641Y-30236478D01*
X19772501Y-30063667D01*
X19733688Y-29888124D01*
X19698565Y-29705151D01*
X19666498Y-29510048D01*
X19636852Y-29298114D01*
X19608991Y-29064652D01*
X19582280Y-28804961D01*
X19556083Y-28514342D01*
X19529766Y-28188095D01*
X19518408Y-28037755D01*
X19496587Y-27750520D01*
X19476430Y-27500933D01*
X19457374Y-27284366D01*
X19438852Y-27096192D01*
X19420302Y-26931784D01*
X19401157Y-26786515D01*
X19380853Y-26655757D01*
X19358826Y-26534884D01*
X19334511Y-26419267D01*
X19307344Y-26304281D01*
X19306405Y-26300498D01*
X19239900Y-26069246D01*
X19159129Y-25861826D01*
X19057852Y-25665379D01*
X18929829Y-25467043D01*
X18847420Y-25354686D01*
X18757871Y-25235699D01*
X18691928Y-25144658D01*
X18646660Y-25076528D01*
X18619135Y-25026272D01*
X18606422Y-24988855D01*
X18605589Y-24959240D01*
X18608953Y-24945016D01*
X18616588Y-24926042D01*
X18630033Y-24913591D01*
X18656532Y-24906830D01*
X18703327Y-24904928D01*
X18777665Y-24907050D01*
X18886788Y-24912365D01*
X18891070Y-24912586D01*
X18994668Y-24918664D01*
X19129369Y-24927675D01*
X19284109Y-24938818D01*
X19447824Y-24951288D01*
X19609448Y-24964285D01*
X19645356Y-24967281D01*
X19825544Y-24982176D01*
X19985836Y-24994741D01*
X20133584Y-25005363D01*
X20276144Y-25014427D01*
X20420868Y-25022318D01*
X20575110Y-25029424D01*
X20746224Y-25036130D01*
X20941563Y-25042821D01*
X21168481Y-25049885D01*
X21285773Y-25053373D01*
X21525603Y-25061008D01*
X21730813Y-25068990D01*
X21909115Y-25077876D01*
X22068223Y-25088219D01*
X22215849Y-25100575D01*
X22359706Y-25115499D01*
X22507506Y-25133545D01*
X22629856Y-25150056D01*
X23261244Y-25258685D01*
X23876774Y-25406336D01*
X24475968Y-25592851D01*
X25058347Y-25818068D01*
X25623435Y-26081827D01*
X25984773Y-26275860D01*
X26312801Y-26469851D01*
X26630731Y-26675574D01*
X26944051Y-26897224D01*
X27258248Y-27138995D01*
X27578810Y-27405083D01*
X27911225Y-27699683D01*
X28202125Y-27970820D01*
X28592364Y-28341878D01*
X28370789Y-27898775D01*
X28178011Y-27502898D01*
X28009346Y-27133403D01*
X27862340Y-26783711D01*
X27734540Y-26447243D01*
X27623494Y-26117421D01*
X27526748Y-25787666D01*
X27441848Y-25451399D01*
X27416262Y-25339005D01*
X27346458Y-24997304D01*
X27292686Y-24669448D01*
X27253720Y-24343701D01*
X27228335Y-24008324D01*
X27215305Y-23651578D01*
X27212876Y-23391672D01*
X27213797Y-23188252D01*
X27216996Y-23007551D01*
X27223131Y-22840247D01*
X27232861Y-22677017D01*
X27246841Y-22508539D01*
X27265731Y-22325490D01*
X27290186Y-22118547D01*
X27318117Y-21899422D01*
X27346921Y-21676791D01*
X27370393Y-21490185D01*
X27389069Y-21333700D01*
X27403485Y-21201435D01*
X27414178Y-21087490D01*
X27421682Y-20985963D01*
X27426534Y-20890951D01*
X27429270Y-20796555D01*
X27430426Y-20696872D01*
X27430553Y-20661172D01*
X27428321Y-20498377D01*
X27418989Y-20367388D01*
X27399734Y-20257894D01*
X27367728Y-20159583D01*
X27320145Y-20062145D01*
X27254161Y-19955268D01*
X27225384Y-19912534D01*
X27166275Y-19822477D01*
X27130065Y-19757047D01*
X27112901Y-19708063D01*
X27110744Y-19669118D01*
X27118980Y-19629601D01*
X27140992Y-19601770D01*
X27186863Y-19576442D01*
X27233606Y-19557224D01*
X27373173Y-19513695D01*
X27553911Y-19476208D01*
X27775077Y-19444849D01*
X28035931Y-19419704D01*
X28335731Y-19400859D01*
X28673735Y-19388401D01*
X28694106Y-19387886D01*
X29215305Y-19387323D01*
X29708133Y-19412803D01*
X30178303Y-19465263D01*
X30631529Y-19545641D01*
X31073524Y-19654873D01*
X31510001Y-19793896D01*
X31773856Y-19892886D01*
X32153270Y-20057724D01*
X32543748Y-20254689D01*
X32936823Y-20478348D01*
X33324027Y-20723269D01*
X33696895Y-20984020D01*
X34046958Y-21255169D01*
X34365751Y-21531283D01*
X34448287Y-21608774D01*
X34530627Y-21686564D01*
X34601910Y-21751999D01*
X34656784Y-21800319D01*
X34689900Y-21826764D01*
X34697115Y-21830135D01*
X34690482Y-21809641D01*
X34667449Y-21756153D01*
X34630320Y-21674651D01*
X34581403Y-21570119D01*
X34523001Y-21447536D01*
X34457422Y-21311884D01*
X34454007Y-21304871D01*
X34378106Y-21146768D01*
X34300582Y-20981226D01*
X34225869Y-20818006D01*
X34158401Y-20666865D01*
X34102611Y-20537563D01*
X34075038Y-20470672D01*
X33847017Y-19850097D01*
X33654546Y-19216181D01*
X33498011Y-18572417D01*
X33377801Y-17922301D01*
X33294300Y-17269327D01*
X33247896Y-16616992D01*
X33238974Y-15968791D01*
X33267923Y-15328218D01*
X33335127Y-14698768D01*
X33395073Y-14321755D01*
X33438830Y-14094777D01*
X33484941Y-13886430D01*
X33532113Y-13701401D01*
X33579055Y-13544377D01*
X33624476Y-13420048D01*
X33667085Y-13333100D01*
X33667629Y-13332213D01*
X33702433Y-13287956D01*
X33740587Y-13266821D01*
X33784599Y-13270773D01*
X33836975Y-13301778D01*
X33900222Y-13361801D01*
X33976846Y-13452807D01*
X34069354Y-13576761D01*
X34178016Y-13732355D01*
X34284936Y-13878943D01*
X34409110Y-14033617D01*
X34535152Y-14177503D01*
X34578011Y-14223015D01*
X34756629Y-14397061D01*
X34946515Y-14559235D01*
X35150623Y-14710928D01*
X35371910Y-14853528D01*
X35613330Y-14988428D01*
X35877837Y-15117016D01*
X36168386Y-15240683D01*
X36487934Y-15360818D01*
X36839434Y-15478813D01*
X37225841Y-15596057D01*
X37650111Y-15713940D01*
X37869856Y-15771618D01*
X38275745Y-15880073D01*
X38643022Y-15986327D01*
X38975251Y-16091807D01*
X39275997Y-16197941D01*
X39548825Y-16306154D01*
X39797300Y-16417875D01*
X40024987Y-16534530D01*
X40235451Y-16657547D01*
X40432256Y-16788351D01*
X40460889Y-16808782D01*
X40531895Y-16863378D01*
X40624297Y-16939510D01*
X40728966Y-17029384D01*
X40836771Y-17125204D01*
X40907575Y-17190120D01*
X40998388Y-17274020D01*
X41078492Y-17346940D01*
X41142800Y-17404337D01*
X41186228Y-17441672D01*
X41203564Y-17454422D01*
X41211366Y-17434952D01*
X41222501Y-17382706D01*
X41235149Y-17306922D01*
X41241924Y-17259770D01*
X41287692Y-17032134D01*
X41364667Y-16784760D01*
X41470503Y-16523725D01*
X41602855Y-16255103D01*
X41689524Y-16100473D01*
X41731798Y-16031289D01*
X41776756Y-15965001D01*
X41827605Y-15898336D01*
X41887554Y-15828018D01*
X41959811Y-15750773D01*
X42047582Y-15663328D01*
X42154075Y-15562407D01*
X42282499Y-15444737D01*
X42436061Y-15307044D01*
X42617967Y-15146052D01*
X42665602Y-15104108D01*
X42898254Y-14898926D01*
X43101377Y-14718374D01*
X43277601Y-14559553D01*
X43429558Y-14419563D01*
X43559879Y-14295506D01*
X43671194Y-14184482D01*
X43766134Y-14083592D01*
X43847331Y-13989937D01*
X43917415Y-13900618D01*
X43979016Y-13812736D01*
X44034767Y-13723392D01*
X44087298Y-13629686D01*
X44139239Y-13528720D01*
X44190051Y-13424238D01*
X44253843Y-13287400D01*
X44304234Y-13168550D01*
X44342213Y-13060418D01*
X44368769Y-12955732D01*
X44384890Y-12847220D01*
X44391564Y-12727610D01*
X44389780Y-12589631D01*
X44380525Y-12426010D01*
X44364788Y-12229477D01*
X44359944Y-12174207D01*
X44348046Y-12035539D01*
X44338146Y-11911545D01*
X44330663Y-11808240D01*
X44326016Y-11731639D01*
X44324625Y-11687756D01*
X44325445Y-11679693D01*
X44347479Y-11685153D01*
X44400915Y-11708684D01*
X44480378Y-11747390D01*
X44580494Y-11798376D01*
X44695889Y-11858745D01*
X44821189Y-11925601D01*
X44951019Y-11996048D01*
X45080005Y-12067190D01*
X45202774Y-12136130D01*
X45313950Y-12199972D01*
X45408160Y-12255820D01*
X45480029Y-12300778D01*
X45489237Y-12306862D01*
X45830071Y-12551474D01*
X46157161Y-12819861D01*
X46464742Y-13106329D01*
X46747051Y-13405188D01*
X46998321Y-13710745D01*
X47197633Y-13993672D01*
X47268738Y-14103191D01*
X47320492Y-14178114D01*
X47356868Y-14219170D01*
X47381843Y-14227090D01*
X47399390Y-14202602D01*
X47413484Y-14146437D01*
X47428102Y-14059325D01*
X47431692Y-14036650D01*
X47459377Y-13900291D01*
X47503359Y-13732272D01*
X47561373Y-13538977D01*
X47631154Y-13326794D01*
X47710436Y-13102108D01*
X47796955Y-12871306D01*
X47888446Y-12640772D01*
X47982643Y-12416894D01*
X48077281Y-12206058D01*
X48092606Y-12173338D01*
X48242470Y-11887834D01*
X48427830Y-11589631D01*
X48645255Y-11282670D01*
X48891315Y-10970890D01*
X49162579Y-10658234D01*
X49455617Y-10348642D01*
X49766999Y-10046053D01*
X50093295Y-9754409D01*
X50431073Y-9477650D01*
X50456656Y-9457695D01*
X50471509Y-9451912D01*
X50494358Y-9455190D01*
G36*
X50494358Y-9455190D02*
G01*
X50529367Y-9469916D01*
X50580702Y-9498482D01*
X50652525Y-9543274D01*
X50749003Y-9606684D01*
X50874298Y-9691100D01*
X50932906Y-9730935D01*
X51190510Y-9907985D01*
X51417529Y-10068053D01*
X51619755Y-10215808D01*
X51802980Y-10355923D01*
X51972996Y-10493068D01*
X52135593Y-10631914D01*
X52296565Y-10777132D01*
X52461702Y-10933393D01*
X52635392Y-11103968D01*
X53065513Y-11558075D01*
X53456552Y-12025021D01*
X53810656Y-12508046D01*
X54129973Y-13010388D01*
X54416650Y-13535287D01*
X54672835Y-14085982D01*
X54772247Y-14326725D01*
X54820608Y-14446886D01*
X54864034Y-14552398D01*
X54900026Y-14637384D01*
X54926086Y-14695966D01*
X54939715Y-14722266D01*
X54940773Y-14723138D01*
X54955330Y-14706274D01*
X54988475Y-14659877D01*
X55035995Y-14590080D01*
X55093680Y-14503018D01*
X55126614Y-14452466D01*
X55238844Y-14287084D01*
X55362049Y-14121496D01*
X55500300Y-13950957D01*
X55657666Y-13770719D01*
X55838217Y-13576035D01*
X56046023Y-13362159D01*
X56155430Y-13252497D01*
X56479825Y-12937485D01*
X56789997Y-12652985D01*
X57093144Y-12392995D01*
X57396461Y-12151511D01*
X57707145Y-11922531D01*
X57953765Y-11752405D01*
X58077352Y-11670919D01*
X58172127Y-11612463D01*
X58243190Y-11574723D01*
X58295635Y-11555382D01*
X58334559Y-11552124D01*
X58365059Y-11562634D01*
X58367757Y-11564299D01*
X58386446Y-11583540D01*
X58396127Y-11615902D01*
X58396654Y-11667787D01*
X58387884Y-11745596D01*
X58369673Y-11855731D01*
X58359994Y-11908755D01*
X58334285Y-12160096D01*
X58347492Y-12421186D01*
X58398794Y-12687180D01*
X58487369Y-12953233D01*
X58566734Y-13128267D01*
X58626322Y-13235760D01*
X58700493Y-13349317D01*
X58791368Y-13471238D01*
X58901070Y-13603828D01*
X59031720Y-13749387D01*
X59185441Y-13910221D01*
X59364353Y-14088629D01*
X59570579Y-14286917D01*
X59806241Y-14507385D01*
X60010190Y-14694708D01*
X60227045Y-14894494D01*
X60414156Y-15071222D01*
X60574834Y-15228281D01*
X60712394Y-15369057D01*
X60830147Y-15496940D01*
X60931406Y-15615316D01*
X61017256Y-15724601D01*
X61190317Y-15972047D01*
X61329298Y-16210875D01*
X61437885Y-16450621D01*
X61519765Y-16700820D01*
X61578625Y-16971009D01*
X61618151Y-17270723D01*
X61619199Y-17281541D01*
X61629974Y-17394571D01*
X61639155Y-17491937D01*
X61646051Y-17566221D01*
X61649969Y-17610007D01*
X61650606Y-17618472D01*
X61662392Y-17607901D01*
X61693356Y-17571503D01*
X61736907Y-17517041D01*
X61738869Y-17514531D01*
X61882589Y-17335317D01*
X62012389Y-17184542D01*
X62135720Y-17054104D01*
X62260033Y-16935898D01*
X62317356Y-16885333D01*
X62667828Y-16605358D01*
X63035752Y-16356789D01*
X63429767Y-16134007D01*
X63608523Y-16045142D01*
X63792012Y-15959904D01*
X63963487Y-15886419D01*
X64129878Y-15822692D01*
X64298116Y-15766727D01*
X64475133Y-15716528D01*
X64667859Y-15670101D01*
X64883226Y-15625450D01*
X65128164Y-15580580D01*
X65354773Y-15542414D01*
X65540010Y-15512123D01*
X65741815Y-15479143D01*
X65947395Y-15445563D01*
X66143962Y-15413473D01*
X66318725Y-15384960D01*
X66402523Y-15371299D01*
X66657498Y-15327604D01*
X66902548Y-15281476D01*
X67131372Y-15234284D01*
X67337667Y-15187396D01*
X67515132Y-15142184D01*
X67657463Y-15100015D01*
X67669943Y-15095877D01*
X67916875Y-14997685D01*
X68168157Y-14869435D01*
X68416143Y-14716700D01*
X68653187Y-14545054D01*
X68871643Y-14360068D01*
X69063865Y-14167314D01*
X69222207Y-13972366D01*
X69233559Y-13956302D01*
X69287083Y-13885856D01*
X69339118Y-13827790D01*
X69380101Y-13792546D01*
X69386957Y-13788767D01*
X69429005Y-13776262D01*
X69464243Y-13789366D01*
X69492809Y-13813710D01*
X69529980Y-13864377D01*
X69574426Y-13950916D01*
X69624258Y-14067868D01*
X69677586Y-14209776D01*
X69732521Y-14371183D01*
X69787172Y-14546631D01*
X69839652Y-14730661D01*
X69888070Y-14917816D01*
X69915778Y-15035495D01*
X69959848Y-15267208D01*
X69996390Y-15534452D01*
X70025403Y-15831098D01*
X70046891Y-16151021D01*
X70060853Y-16488091D01*
X70067291Y-16836183D01*
X70066206Y-17189167D01*
X70057599Y-17540916D01*
X70041471Y-17885304D01*
X70017824Y-18216202D01*
X69986658Y-18527483D01*
X69947975Y-18813019D01*
X69915043Y-19001415D01*
X69803279Y-19490323D01*
X69657873Y-19989016D01*
X69482518Y-20487316D01*
X69280902Y-20975047D01*
X69056716Y-21442029D01*
X68972752Y-21600247D01*
X68841646Y-21840822D01*
X68966168Y-21760090D01*
X69256448Y-21574916D01*
X69519767Y-21413641D01*
X69761766Y-21273160D01*
X69988084Y-21150366D01*
X70204361Y-21042154D01*
X70416238Y-20945419D01*
X70543028Y-20891828D01*
X71015637Y-20714329D01*
X71486610Y-20571471D01*
X71960341Y-20462719D01*
X72441225Y-20387537D01*
X72933656Y-20345386D01*
X73442027Y-20335730D01*
X73970733Y-20358034D01*
X74498773Y-20408687D01*
X74642703Y-20426992D01*
X74751930Y-20444095D01*
X74833946Y-20462199D01*
X74896244Y-20483507D01*
X74946315Y-20510225D01*
X74991653Y-20544554D01*
X75007176Y-20558221D01*
X75109997Y-20672769D01*
X75209466Y-20825791D01*
X75304374Y-21013479D01*
X75393514Y-21232029D01*
X75475678Y-21477633D01*
X75549660Y-21746487D01*
X75614250Y-22034784D01*
X75668241Y-22338718D01*
X75710427Y-22654484D01*
X75727979Y-22829786D01*
X75738823Y-23000781D01*
X75744396Y-23199474D01*
X75744971Y-23415545D01*
X75740821Y-23638676D01*
X75732218Y-23858548D01*
X75719437Y-24064841D01*
X75702750Y-24247236D01*
X75687344Y-24365338D01*
X75595402Y-24850923D01*
X75472836Y-25311239D01*
X75317228Y-25752583D01*
X75126159Y-26181252D01*
X74897214Y-26603544D01*
X74717176Y-26892542D01*
X74584574Y-27089404D01*
X74449715Y-27277634D01*
X74307825Y-27463044D01*
X74154127Y-27651444D01*
X73983848Y-27848645D01*
X73792211Y-28060457D01*
X73574442Y-28292690D01*
X73517210Y-28352684D01*
X73418845Y-28456507D01*
X73331078Y-28551083D01*
X73257953Y-28631895D01*
X73203511Y-28694428D01*
X73171795Y-28734166D01*
X73165273Y-28745829D01*
X73171044Y-28776631D01*
X73186427Y-28836800D01*
X73208526Y-28915255D01*
X73217543Y-28945760D01*
X73260483Y-29100255D01*
X73291238Y-29240863D01*
X73312411Y-29383423D01*
X73326608Y-29543776D01*
X73332316Y-29643883D01*
X73345190Y-29905927D01*
X73599190Y-29667818D01*
X74059864Y-29261797D01*
X74552347Y-28877851D01*
X75077679Y-28515351D01*
X75636901Y-28173668D01*
X76231052Y-27852171D01*
X76861174Y-27550233D01*
X77528308Y-27267223D01*
X77642023Y-27222298D01*
X77996100Y-27089179D01*
X78352674Y-26965361D01*
X78705350Y-26852691D01*
X79047735Y-26753014D01*
X79373435Y-26668176D01*
X79676056Y-26600023D01*
X79949203Y-26550401D01*
X79991523Y-26544046D01*
X80112172Y-26530059D01*
X80268535Y-26517406D01*
X80454006Y-26506252D01*
X80661983Y-26496766D01*
X80885861Y-26489113D01*
X81119035Y-26483460D01*
X81354903Y-26479974D01*
X81586859Y-26478821D01*
X81808300Y-26480168D01*
X82012622Y-26484182D01*
X82158454Y-26489386D01*
X82355209Y-26498863D01*
X82513833Y-26508357D01*
X82638520Y-26518559D01*
X82733468Y-26530160D01*
X82802873Y-26543851D01*
X82850931Y-26560323D01*
X82881837Y-26580267D01*
X82899788Y-26604373D01*
X82903079Y-26612002D01*
X82911281Y-26660319D01*
X82897922Y-26712506D01*
X82860220Y-26771868D01*
X82795389Y-26841708D01*
X82700645Y-26925330D01*
X82573204Y-27026040D01*
X82520940Y-27065503D01*
X82301279Y-27246063D01*
X82111546Y-27438422D01*
X81948312Y-27647883D01*
X81808145Y-27879748D01*
X81687614Y-28139322D01*
X81583288Y-28431906D01*
X81538284Y-28584465D01*
X81505303Y-28708100D01*
X81474411Y-28835452D01*
X81444385Y-28972747D01*
X81413998Y-29126213D01*
X81382028Y-29302076D01*
X81347249Y-29506563D01*
X81308437Y-29745899D01*
X81302379Y-29784005D01*
X81240456Y-30161608D01*
X81180065Y-30500847D01*
X81119848Y-30805594D01*
X81058449Y-31079718D01*
X80994509Y-31327092D01*
X80926671Y-31551586D01*
X80853578Y-31757070D01*
X80773872Y-31947416D01*
X80686195Y-32126495D01*
X80589191Y-32298177D01*
X80481500Y-32466333D01*
X80361767Y-32634835D01*
X80252621Y-32777280D01*
X80109386Y-32959005D01*
X80315038Y-32972429D01*
X80538549Y-32995886D01*
X80777806Y-33036654D01*
X81021396Y-33091812D01*
X81257907Y-33158438D01*
X81475926Y-33233612D01*
X81664042Y-33314413D01*
X81677925Y-33321266D01*
X81927295Y-33463804D01*
X82183264Y-33645742D01*
X82446200Y-33867430D01*
X82716471Y-34129221D01*
X82994445Y-34431465D01*
X83280490Y-34774514D01*
X83505276Y-35065088D01*
X83756408Y-35392199D01*
X83991179Y-35682516D01*
X84211191Y-35937578D01*
X84418048Y-36158922D01*
X84613351Y-36348089D01*
X84798706Y-36506615D01*
X84975714Y-36636039D01*
X85145979Y-36737901D01*
X85311104Y-36813738D01*
X85337987Y-36823864D01*
X85477895Y-36868219D01*
X85611054Y-36894519D01*
X85745447Y-36902405D01*
X85889056Y-36891520D01*
X86049863Y-36861503D01*
X86235851Y-36811997D01*
X86344599Y-36778611D01*
X86473339Y-36738895D01*
X86568471Y-36712925D01*
X86636134Y-36699873D01*
X86682465Y-36698910D01*
X86713604Y-36709208D01*
X86732725Y-36726212D01*
X86740846Y-36768213D01*
X86720899Y-36837676D01*
X86674772Y-36932148D01*
X86604351Y-37049177D01*
X86511524Y-37186312D01*
X86398178Y-37341101D01*
X86266202Y-37511092D01*
X86117481Y-37693834D01*
X85953905Y-37886874D01*
X85777360Y-38087762D01*
X85589734Y-38294045D01*
X85392913Y-38503272D01*
X85254870Y-38645892D01*
X85133901Y-38769806D01*
X85040114Y-38867061D01*
X84970759Y-38940934D01*
X84923085Y-38994701D01*
X84894339Y-39031637D01*
X84881773Y-39055019D01*
X84882633Y-39068124D01*
X84894170Y-39074227D01*
X84895037Y-39074419D01*
X84931941Y-39080503D01*
X85002763Y-39090648D01*
X85099404Y-39103752D01*
X85213765Y-39118709D01*
X85304356Y-39130235D01*
X85846051Y-39214519D01*
X86364682Y-39327965D01*
X86858289Y-39469900D01*
X87324913Y-39639651D01*
X87762594Y-39836545D01*
X88169373Y-40059911D01*
X88355033Y-40177631D01*
X88516791Y-40288622D01*
X88689161Y-40413146D01*
X88866278Y-40546473D01*
X89042276Y-40683873D01*
X89211289Y-40820618D01*
X89367454Y-40951976D01*
X89504903Y-41073219D01*
X89617773Y-41179616D01*
X89687771Y-41252356D01*
X89740907Y-41315271D01*
X89768318Y-41360288D01*
X89775475Y-41398126D01*
X89772903Y-41419062D01*
X89752748Y-41476073D01*
X89710845Y-41561901D01*
X89650528Y-41671262D01*
X89575133Y-41798872D01*
X89487996Y-41939446D01*
X89392454Y-42087701D01*
X89291841Y-42238354D01*
X89189493Y-42386119D01*
X89088747Y-42525712D01*
X89001883Y-42640401D01*
X88644773Y-43065844D01*
X88262671Y-43457197D01*
X87855727Y-43814337D01*
X87424089Y-44137141D01*
X86967908Y-44425484D01*
X86627273Y-44610199D01*
X86460735Y-44693165D01*
X86307193Y-44766000D01*
X86157799Y-44832338D01*
X86003705Y-44895818D01*
X85836064Y-44960075D01*
X85646029Y-45028746D01*
X85424751Y-45105467D01*
X85410190Y-45110439D01*
X85254876Y-45163515D01*
X85135803Y-45204695D01*
X85049144Y-45235750D01*
X84991072Y-45258450D01*
X84957761Y-45274564D01*
X84945383Y-45285863D01*
X84950112Y-45294117D01*
X84968122Y-45301094D01*
X84986856Y-45306240D01*
X85037836Y-45319450D01*
X85119917Y-45340358D01*
X85223117Y-45366437D01*
X85337458Y-45395160D01*
X85378440Y-45405414D01*
X85875081Y-45544872D01*
X86341787Y-45708264D01*
X86785317Y-45898418D01*
X87212433Y-46118163D01*
X87524537Y-46303135D01*
X87787262Y-46473874D01*
X88033450Y-46647536D01*
X88267231Y-46828096D01*
X88492736Y-47019531D01*
X88714098Y-47225818D01*
X88935448Y-47450933D01*
X89160917Y-47698852D01*
X89394637Y-47973551D01*
X89640739Y-48279006D01*
X89827277Y-48519371D01*
X89996068Y-48740909D01*
X90139725Y-48932174D01*
X90259859Y-49095707D01*
X90358081Y-49234050D01*
X90436003Y-49349745D01*
X90495237Y-49445332D01*
X90537394Y-49523352D01*
X90564086Y-49586347D01*
X90576925Y-49636858D01*
X90577521Y-49677426D01*
X90573389Y-49695877D01*
X90551617Y-49726150D01*
X90504865Y-49772112D01*
X90442499Y-49824703D01*
X90430712Y-49833887D01*
X90391548Y-49867298D01*
X90325538Y-49927518D01*
X90235853Y-50011506D01*
X90125665Y-50116220D01*
X89998146Y-50238620D01*
X89856467Y-50375665D01*
X89703800Y-50524313D01*
X89543318Y-50681523D01*
X89420520Y-50802446D01*
X89122668Y-51095134D01*
X88853481Y-51356974D01*
X88612794Y-51588117D01*
X88400445Y-51788717D01*
X88216269Y-51958926D01*
X88060103Y-52098898D01*
X87931784Y-52208784D01*
X87831149Y-52288738D01*
X87823190Y-52294659D01*
X87699022Y-52380371D01*
X87544022Y-52477857D01*
X87366425Y-52582577D01*
X87174462Y-52689993D01*
X86976368Y-52795566D01*
X86780375Y-52894758D01*
X86594716Y-52983031D01*
X86489690Y-53029735D01*
X85969326Y-53232418D01*
X85435305Y-53397779D01*
X84884074Y-53526766D01*
X84312082Y-53620327D01*
X84246023Y-53628709D01*
X84126501Y-53643612D01*
X84021348Y-53657045D01*
X83937886Y-53668047D01*
X83883434Y-53675657D01*
X83865825Y-53678615D01*
X83879379Y-53685583D01*
X83928409Y-53702149D01*
X84007572Y-53726685D01*
X84111527Y-53757560D01*
X84234930Y-53793145D01*
X84320908Y-53817432D01*
X84651299Y-53913473D01*
X84949596Y-54008071D01*
X85225711Y-54105034D01*
X85489555Y-54208169D01*
X85751041Y-54321286D01*
X86020080Y-54448190D01*
X86210763Y-54543471D01*
X86761136Y-54843516D01*
X87280026Y-55166678D01*
X87766008Y-55511890D01*
X88217656Y-55878085D01*
X88633543Y-56264195D01*
X88936489Y-56583289D01*
X89079045Y-56744229D01*
X89194389Y-56879238D01*
X89285165Y-56992395D01*
X89354019Y-57087778D01*
X89403597Y-57169465D01*
X89436544Y-57241535D01*
X89455506Y-57308067D01*
X89463128Y-57373140D01*
X89463606Y-57395922D01*
X89457008Y-57472427D01*
X89434944Y-57549299D01*
X89394007Y-57632887D01*
X89330793Y-57729541D01*
X89241894Y-57845609D01*
X89185418Y-57914505D01*
X88836998Y-58299936D01*
X88457746Y-58657545D01*
X88049805Y-58986056D01*
X87615320Y-59284191D01*
X87156435Y-59550673D01*
X86675296Y-59784225D01*
X86174046Y-59983570D01*
X85654830Y-60147430D01*
X85279149Y-60240932D01*
X85015602Y-60295541D01*
X84757309Y-60340541D01*
X84492588Y-60377551D01*
X84209760Y-60408193D01*
X83897142Y-60434086D01*
X83875606Y-60435636D01*
X83736565Y-60445879D01*
X83610709Y-60455743D01*
X83504529Y-60464672D01*
X83424511Y-60472110D01*
X83377146Y-60477501D01*
X83367941Y-60479189D01*
X83369688Y-60493802D01*
X83404999Y-60525824D01*
X83470321Y-60572311D01*
X83516107Y-60601942D01*
X83770922Y-60763628D01*
X83994326Y-60907954D01*
X84191555Y-61038744D01*
X84367849Y-61159824D01*
X84528447Y-61275020D01*
X84678586Y-61388156D01*
X84823505Y-61503059D01*
X84968442Y-61623553D01*
X85118637Y-61753465D01*
X85237390Y-61858938D01*
X85608701Y-62213450D01*
X85944276Y-62579060D01*
X86242493Y-62953728D01*
X86501731Y-63335417D01*
X86720368Y-63722088D01*
X86721523Y-63724358D01*
X86775153Y-63830642D01*
X86811373Y-63905847D01*
X86832307Y-63956447D01*
X86840078Y-63988920D01*
X86836813Y-64009740D01*
X86824636Y-64025385D01*
X86821300Y-64028479D01*
X86805011Y-64039709D01*
X86785135Y-64041806D01*
X86756035Y-64031839D01*
X86712073Y-64006877D01*
X86647613Y-63963988D01*
X86557016Y-63900241D01*
X86509708Y-63866466D01*
X86358192Y-63759258D01*
X86234213Y-63674476D01*
X86131933Y-63608500D01*
X86045517Y-63557712D01*
X85969126Y-63518493D01*
X85900033Y-63488457D01*
X85777251Y-63448984D01*
X85635319Y-63418536D01*
X85485095Y-63398041D01*
X85337437Y-63388424D01*
X85203204Y-63390612D01*
X85093255Y-63405532D01*
X85055307Y-63416390D01*
X84916222Y-63481520D01*
X84764645Y-63580874D01*
X84606412Y-63710516D01*
X84570065Y-63743852D01*
X84510711Y-63799988D01*
X84456031Y-63853576D01*
X84403897Y-63907529D01*
X84352182Y-63964761D01*
X84298761Y-64028183D01*
X84241507Y-64100707D01*
X84178293Y-64185247D01*
X84106993Y-64284714D01*
X84025480Y-64402021D01*
X83931628Y-64540080D01*
X83823310Y-64701805D01*
X83698400Y-64890106D01*
X83554771Y-65107898D01*
X83390296Y-65358091D01*
X83380279Y-65373344D01*
X83236358Y-65590764D01*
X83111047Y-65776089D01*
X83001241Y-65933562D01*
X82903834Y-66067428D01*
X82815721Y-66181932D01*
X82733796Y-66281316D01*
X82654954Y-66369827D01*
X82637627Y-66388353D01*
X82396128Y-66616873D01*
X82117365Y-66830642D01*
X81804546Y-67027330D01*
X81625034Y-67124368D01*
X81467752Y-67201865D01*
X81336750Y-67258819D01*
X81223265Y-67298437D01*
X81118533Y-67323929D01*
X81051604Y-67334369D01*
X80987412Y-67344910D01*
X80944497Y-67356784D01*
X80933440Y-67364738D01*
X80950626Y-67387595D01*
X80999720Y-67430560D01*
X81077022Y-67490841D01*
X81178832Y-67565650D01*
X81301451Y-67652195D01*
X81441179Y-67747688D01*
X81441440Y-67747863D01*
X81602385Y-67858677D01*
X81752205Y-67967598D01*
X81893669Y-68077617D01*
X82029550Y-68191726D01*
X82162617Y-68312916D01*
X82295642Y-68444177D01*
X82431394Y-68588502D01*
X82572646Y-68748881D01*
X82722167Y-68928305D01*
X82882729Y-69129765D01*
X83057102Y-69356253D01*
X83248058Y-69610760D01*
X83458366Y-69896277D01*
X83557690Y-70032422D01*
X83760298Y-70306884D01*
X83946682Y-70550661D01*
X84121799Y-70769720D01*
X84290602Y-70970031D01*
X84458049Y-71157560D01*
X84629094Y-71338278D01*
X84710635Y-71421052D01*
X84896763Y-71602844D01*
X85063339Y-71754051D01*
X85215674Y-71878352D01*
X85359079Y-71979426D01*
X85498865Y-72060951D01*
X85640343Y-72126605D01*
X85788825Y-72180066D01*
X85820769Y-72189901D01*
X85903750Y-72217067D01*
X85976416Y-72244859D01*
X86024243Y-72267675D01*
X86027144Y-72269497D01*
X86068468Y-72318361D01*
X86072678Y-72384602D01*
X86039915Y-72465495D01*
X86015069Y-72503313D01*
X85940479Y-72589788D01*
X85832004Y-72692131D01*
X85693828Y-72807686D01*
X85530134Y-72933799D01*
X85345103Y-73067814D01*
X85142918Y-73207076D01*
X84927762Y-73348930D01*
X84703817Y-73490722D01*
X84475266Y-73629797D01*
X84246291Y-73763499D01*
X84021074Y-73889174D01*
X83803799Y-74004167D01*
X83598648Y-74105822D01*
X83409802Y-74191486D01*
X83261773Y-74251032D01*
X82911321Y-74362667D01*
X82528294Y-74448876D01*
X82114210Y-74509331D01*
X82025138Y-74518560D01*
X81907062Y-74527029D01*
X81755598Y-74533401D01*
X81579642Y-74537675D01*
X81388089Y-74539855D01*
X81189831Y-74539940D01*
X80993765Y-74537932D01*
X80808785Y-74533832D01*
X80643784Y-74527641D01*
X80507658Y-74519361D01*
X80495384Y-74518368D01*
X79832052Y-74445374D01*
X79153659Y-74336232D01*
X78464666Y-74192359D01*
X77769530Y-74015172D01*
X77072711Y-73806088D01*
X76378667Y-73566523D01*
X75691858Y-73297895D01*
X75016742Y-73001620D01*
X74357779Y-72679116D01*
X73853190Y-72407643D01*
X73665719Y-72302793D01*
X73511890Y-72217399D01*
X73388632Y-72149835D01*
X73292875Y-72098476D01*
X73221551Y-72061697D01*
X73171589Y-72037871D01*
X73139919Y-72025375D01*
X73125719Y-72022442D01*
X73118059Y-72031288D01*
X73129329Y-72059240D01*
X73160734Y-72107808D01*
X73213478Y-72178500D01*
X73288767Y-72272825D01*
X73387805Y-72392293D01*
X73511799Y-72538412D01*
X73661954Y-72712691D01*
X73839473Y-72916641D01*
X73843870Y-72921672D01*
X74183735Y-73317510D01*
X74491816Y-73691496D01*
X74770273Y-74047081D01*
X75021261Y-74387714D01*
X75246938Y-74716844D01*
X75449462Y-75037921D01*
X75630990Y-75354395D01*
X75793680Y-75669716D01*
X75939689Y-75987333D01*
X76071174Y-76310696D01*
X76190293Y-76643255D01*
X76211736Y-76707858D01*
X76327295Y-77092527D01*
X76417281Y-77467338D01*
X76482955Y-77841488D01*
X76525579Y-78224174D01*
X76546415Y-78624592D01*
X76546724Y-79051938D01*
X76544650Y-79134088D01*
X76534326Y-79404529D01*
X76519361Y-79641796D01*
X76498572Y-79854906D01*
X76470772Y-80052877D01*
X76434776Y-80244727D01*
X76389401Y-80439473D01*
X76356985Y-80562174D01*
X76305211Y-80737524D01*
X76255737Y-80874338D01*
X76206239Y-80976158D01*
X76154396Y-81046528D01*
X76097885Y-81088992D01*
X76034382Y-81107093D01*
X75999152Y-81108110D01*
X75960275Y-81104284D01*
X75919671Y-81094054D01*
X75871788Y-81074518D01*
X75811075Y-81042773D01*
X75731982Y-80995919D01*
X75628956Y-80931054D01*
X75497121Y-80845717D01*
X75340263Y-80747204D01*
X75180015Y-80654625D01*
X75011657Y-80565905D01*
X74830467Y-80478969D01*
X74631728Y-80391744D01*
X74410719Y-80302155D01*
X74162720Y-80208127D01*
X73883012Y-80107587D01*
X73578342Y-80002355D01*
X73224477Y-79880317D01*
X72906873Y-79766875D01*
X72620825Y-79659954D01*
X72361626Y-79557483D01*
X72124570Y-79457387D01*
X71904952Y-79357595D01*
X71698065Y-79256031D01*
X71499205Y-79150625D01*
X71303664Y-79039301D01*
X71106737Y-78919987D01*
X71071607Y-78898021D01*
X70820974Y-78732287D01*
X70570179Y-78549127D01*
X70314073Y-78344360D01*
X70047511Y-78113804D01*
X69765346Y-77853280D01*
X69653323Y-77745902D01*
X69380565Y-77475563D01*
X69139752Y-77222815D01*
X68926757Y-76983101D01*
X68737447Y-76751863D01*
X68654919Y-76644064D01*
X68553011Y-76510231D01*
X68469156Y-76406922D01*
X68397864Y-76329481D01*
X68333642Y-76273250D01*
X68270998Y-76233574D01*
X68204442Y-76205795D01*
X68128481Y-76185257D01*
X68108862Y-76181017D01*
X67985883Y-76153909D01*
X67873090Y-76125349D01*
X67764880Y-76093019D01*
X67655652Y-76054602D01*
X67539803Y-76007781D01*
X67411730Y-75950238D01*
X67265833Y-75879654D01*
X67096508Y-75793713D01*
X66898153Y-75690097D01*
X66811736Y-75644406D01*
X66703317Y-75589112D01*
X66593762Y-75537013D01*
X66491230Y-75491612D01*
X66403878Y-75456417D01*
X66339864Y-75434933D01*
X66312610Y-75429922D01*
X66319752Y-75445675D01*
X66352508Y-75491425D01*
X66409084Y-75564908D01*
X66487682Y-75663859D01*
X66586510Y-75786014D01*
X66703769Y-75929109D01*
X66816102Y-76064922D01*
X67312130Y-76692912D01*
X67771537Y-77337551D01*
X68193523Y-77997412D01*
X68577291Y-78671072D01*
X68922040Y-79357106D01*
X69226973Y-80054089D01*
X69491289Y-80760597D01*
X69552660Y-80943838D01*
X69666186Y-81308179D01*
X69761512Y-81653906D01*
X69839658Y-81988402D01*
X69901642Y-82319054D01*
X69948484Y-82653245D01*
X69981203Y-82998361D01*
X70000818Y-83361786D01*
X70008347Y-83750905D01*
X70004811Y-84173103D01*
X70003961Y-84214088D01*
X69992624Y-84571369D01*
X69974843Y-84902158D01*
X69950906Y-85203853D01*
X69921099Y-85473848D01*
X69885709Y-85709539D01*
X69845022Y-85908322D01*
X69800209Y-86065039D01*
X69763234Y-86164691D01*
X69730489Y-86230026D01*
X69696197Y-86267861D01*
X69654583Y-86285011D01*
X69610934Y-86288422D01*
X69568456Y-86284771D01*
X69519971Y-86272315D01*
X69461252Y-86248796D01*
X69388070Y-86211954D01*
X69296196Y-86159533D01*
X69181404Y-86089274D01*
X69039464Y-85998919D01*
X68903401Y-85910567D01*
X68539621Y-85681268D01*
X68183739Y-85474725D01*
X67824707Y-85285260D01*
X67451473Y-85107197D01*
X67052988Y-84934859D01*
X66825022Y-84842813D01*
X66675113Y-84784187D01*
X66533774Y-84730352D01*
X66395727Y-84679567D01*
X66255696Y-84630089D01*
X66108402Y-84580179D01*
X65948568Y-84528094D01*
X65770915Y-84472094D01*
X65570167Y-84410439D01*
X65341046Y-84341386D01*
X65078273Y-84263195D01*
X64978977Y-84233820D01*
X64584654Y-84116779D01*
X64228406Y-84009705D01*
X63907467Y-83911429D01*
X63619068Y-83820786D01*
X63360443Y-83736607D01*
X63128825Y-83657725D01*
X62921445Y-83582972D01*
X62735537Y-83511182D01*
X62568333Y-83441186D01*
X62417067Y-83371817D01*
X62278969Y-83301908D01*
X62151275Y-83230292D01*
X62031215Y-83155800D01*
X61916022Y-83077266D01*
X61802931Y-82993522D01*
X61689172Y-82903400D01*
X61571979Y-82805734D01*
X61550593Y-82787508D01*
X61408240Y-82660451D01*
X61271542Y-82528289D01*
X61144747Y-82395933D01*
X61032105Y-82268293D01*
X60937864Y-82150281D01*
X60866273Y-82046805D01*
X60821581Y-81962778D01*
X60811570Y-81933380D01*
X60796002Y-81896355D01*
X60783074Y-81885755D01*
X60769536Y-81904378D01*
X60746234Y-81954518D01*
X60716941Y-82027581D01*
X60697097Y-82081547D01*
X60594745Y-82351003D01*
X60484846Y-82602541D01*
X60364549Y-82839657D01*
X60231001Y-83065846D01*
X60081351Y-83284607D01*
X59912747Y-83499436D01*
X59722338Y-83713828D01*
X59507271Y-83931282D01*
X59264695Y-84155294D01*
X58991759Y-84389360D01*
X58685609Y-84636977D01*
X58486218Y-84792407D01*
X58224693Y-84996583D01*
X57996100Y-85181245D01*
X57797502Y-85349366D01*
X57625966Y-85503918D01*
X57478555Y-85647873D01*
X57352335Y-85784206D01*
X57244369Y-85915889D01*
X57151723Y-86045895D01*
X57071462Y-86177196D01*
X57016129Y-86281299D01*
X56943237Y-86444388D01*
X56889702Y-86607452D01*
X56854341Y-86778475D01*
X56835970Y-86965443D01*
X56833402Y-87176339D01*
X56845454Y-87419149D01*
X56846076Y-87427646D01*
X56854333Y-87547687D01*
X56860547Y-87654640D01*
X56864352Y-87740635D01*
X56865379Y-87797804D01*
X56864252Y-87816444D01*
X56844905Y-87824087D01*
X56799409Y-87805854D01*
X56732205Y-87765131D01*
X56647733Y-87705304D01*
X56550435Y-87629761D01*
X56444752Y-87541888D01*
X56335124Y-87445072D01*
X56225992Y-87342700D01*
X56167972Y-87285437D01*
X55866364Y-86961537D01*
X55579217Y-86613038D01*
X55311643Y-86247385D01*
X55068754Y-85872023D01*
X54855662Y-85494398D01*
X54677480Y-85121953D01*
X54669360Y-85103088D01*
X54515913Y-84709778D01*
X54379145Y-84289205D01*
X54262311Y-83854036D01*
X54168667Y-83416940D01*
X54101469Y-82990583D01*
X54081848Y-82817088D01*
X54074598Y-82752960D01*
X54067328Y-82713445D01*
X54059343Y-82700938D01*
X54049952Y-82717836D01*
X54038459Y-82766535D01*
X54024173Y-82849431D01*
X54006401Y-82968921D01*
X53984447Y-83127400D01*
X53977749Y-83176922D01*
X53915222Y-83621433D01*
X53852330Y-84027539D01*
X53788061Y-84399162D01*
X53721399Y-84740224D01*
X53651330Y-85054648D01*
X53576839Y-85346357D01*
X53496912Y-85619272D01*
X53410534Y-85877317D01*
X53316691Y-86124415D01*
X53214369Y-86364486D01*
X53102553Y-86601455D01*
X53080743Y-86645271D01*
X52885762Y-87009408D01*
X52662692Y-87379441D01*
X52429650Y-87730309D01*
X52310613Y-87897904D01*
X52180880Y-88072489D01*
X52043278Y-88250862D01*
X51900632Y-88429820D01*
X51755770Y-88606162D01*
X51611518Y-88776686D01*
X51470702Y-88938189D01*
X51336148Y-89087468D01*
X51210683Y-89221322D01*
X51097132Y-89336549D01*
X50998323Y-89429946D01*
X50917082Y-89498311D01*
X50856234Y-89538442D01*
X50825249Y-89548088D01*
X50799710Y-89533793D01*
X50754799Y-89496124D01*
X50699760Y-89442906D01*
X50693990Y-89436963D01*
X50641274Y-89378492D01*
X50571662Y-89295810D01*
X50493290Y-89198846D01*
X50414295Y-89097527D01*
X50394766Y-89071838D01*
X50310948Y-88962723D01*
X50210535Y-88835336D01*
X50091814Y-88687582D01*
X49953073Y-88517366D01*
X49792598Y-88322594D01*
X49608677Y-88101171D01*
X49399597Y-87851002D01*
X49278457Y-87706588D01*
X48951487Y-87309193D01*
X48652126Y-86927576D01*
X48373872Y-86552445D01*
X48110222Y-86174508D01*
X47854675Y-85784475D01*
X47600727Y-85373053D01*
X47368393Y-84977200D01*
X47292808Y-84845769D01*
X47224282Y-84726814D01*
X47165592Y-84625140D01*
X47119515Y-84545551D01*
X47088829Y-84492851D01*
X47076310Y-84471847D01*
X47076218Y-84471723D01*
X47065363Y-84487459D01*
X47038464Y-84535402D01*
X46998520Y-84609950D01*
X46948524Y-84705501D01*
X46891475Y-84816451D01*
X46883824Y-84831465D01*
X46627084Y-85292715D01*
X46333584Y-85739560D01*
X46001965Y-86173839D01*
X45630866Y-86597391D01*
X45406503Y-86829376D01*
X45200915Y-87029577D01*
X45014417Y-87199412D01*
X44841784Y-87343168D01*
X44677788Y-87465133D01*
X44517204Y-87569593D01*
X44470575Y-87597197D01*
X44369547Y-87654381D01*
X44297240Y-87691126D01*
X44246710Y-87709799D01*
X44211014Y-87712768D01*
X44183208Y-87702399D01*
X44176113Y-87697591D01*
X44157477Y-87680871D01*
X44150470Y-87659326D01*
X44155608Y-87622621D01*
X44173405Y-87560419D01*
X44184741Y-87524323D01*
X44218540Y-87389670D01*
X44246646Y-87222476D01*
X44268576Y-87032209D01*
X44283844Y-86828338D01*
X44291966Y-86620334D01*
X44292458Y-86417666D01*
X44284834Y-86229804D01*
X44268611Y-86066217D01*
X44261658Y-86021319D01*
X44219507Y-85816294D01*
X44163242Y-85615076D01*
X44091014Y-85414643D01*
X44000978Y-85211973D01*
X43891286Y-85004047D01*
X43760092Y-84787842D01*
X43605548Y-84560338D01*
X43425809Y-84318513D01*
X43219026Y-84059346D01*
X42983354Y-83779816D01*
X42716946Y-83476903D01*
X42683399Y-83439478D01*
X42414652Y-83132195D01*
X42171702Y-82837859D01*
X41955959Y-82558450D01*
X41768834Y-82295951D01*
X41611738Y-82052340D01*
X41486084Y-81829598D01*
X41393281Y-81629705D01*
X41392653Y-81628150D01*
X41325252Y-81460944D01*
X41274825Y-81610692D01*
X41168520Y-81873431D01*
X41025800Y-82143310D01*
X40850807Y-82415346D01*
X40647689Y-82684558D01*
X40420588Y-82945964D01*
X40173650Y-83194582D01*
X39911020Y-83425429D01*
X39636843Y-83633525D01*
X39533662Y-83703519D01*
X39269693Y-83866499D01*
X38995549Y-84014684D01*
X38707448Y-84149312D01*
X38401608Y-84271623D01*
X38074245Y-84382855D01*
X37721578Y-84484248D01*
X37339824Y-84577039D01*
X36925201Y-84662468D01*
X36473926Y-84741773D01*
X36261190Y-84775289D01*
X35896098Y-84833732D01*
X35568259Y-84892629D01*
X35272610Y-84953692D01*
X35004089Y-85018634D01*
X34757633Y-85089169D01*
X34528180Y-85167010D01*
X34310668Y-85253870D01*
X34100035Y-85351462D01*
X33891218Y-85461498D01*
X33679155Y-85585694D01*
X33465442Y-85721391D01*
X33316110Y-85818597D01*
X33197550Y-85892886D01*
X33105471Y-85945059D01*
X33035582Y-85975921D01*
X32983592Y-85986273D01*
X32945210Y-85976918D01*
X32916144Y-85948659D01*
X32892103Y-85902299D01*
X32868797Y-85838640D01*
X32867008Y-85833338D01*
X32835379Y-85731631D01*
X32797374Y-85597142D01*
X32755129Y-85438560D01*
X32710780Y-85264570D01*
X32666463Y-85083861D01*
X32624314Y-84905120D01*
X32586469Y-84737034D01*
X32555064Y-84588290D01*
X32534797Y-84482243D01*
X32455948Y-83948830D01*
X32403906Y-83395506D01*
X32378953Y-82833106D01*
X32381370Y-82272463D01*
X32411439Y-81724413D01*
X32452724Y-81324838D01*
X32559239Y-80644682D01*
X32706238Y-79974358D01*
X32894059Y-79312759D01*
X33123043Y-78658780D01*
X33393528Y-78011317D01*
X33608197Y-77560467D01*
X33726688Y-77331240D01*
X33857063Y-77092453D01*
X33995800Y-76849729D01*
X34139379Y-76608687D01*
X34284280Y-76374949D01*
X34426982Y-76154135D01*
X34563963Y-75951867D01*
X34691703Y-75773765D01*
X34806682Y-75625450D01*
X34859335Y-75563020D01*
X34907901Y-75505926D01*
X34942079Y-75462659D01*
X34955408Y-75441459D01*
X34955219Y-75440699D01*
X34931809Y-75440379D01*
X34873526Y-75445070D01*
X34787417Y-75453891D01*
X34680530Y-75465962D01*
X34559913Y-75480403D01*
X34432614Y-75496332D01*
X34305682Y-75512869D01*
X34186163Y-75529135D01*
X34081105Y-75544248D01*
X33997558Y-75557327D01*
X33945716Y-75566815D01*
X33833809Y-75593874D01*
X33736010Y-75626676D01*
X33647893Y-75669147D01*
X33565035Y-75725213D01*
X33483010Y-75798803D01*
X33397394Y-75893841D01*
X33303762Y-76014255D01*
X33197689Y-76163972D01*
X33086279Y-76329505D01*
X32868122Y-76651497D01*
X32661584Y-76940859D01*
X32461657Y-77203896D01*
X32263334Y-77446909D01*
X32061606Y-77676200D01*
X31851466Y-77898073D01*
X31792725Y-77957435D01*
X31393467Y-78331115D01*
X30981775Y-78664797D01*
X30557915Y-78958318D01*
X30122152Y-79211515D01*
X29674753Y-79424224D01*
X29215983Y-79596283D01*
X29025632Y-79654760D01*
X28678785Y-79746204D01*
X28358837Y-79812223D01*
X28059332Y-79853452D01*
X27773810Y-79870530D01*
X27495815Y-79864096D01*
X27218888Y-79834786D01*
X27212440Y-79833841D01*
X27024098Y-79803835D01*
X26852144Y-79772018D01*
X26701319Y-79739542D01*
X26576366Y-79707557D01*
X26482027Y-79677212D01*
X26423045Y-79649660D01*
X26409902Y-79639140D01*
X26371216Y-79577106D01*
X26332799Y-79476454D01*
X26295160Y-79340901D01*
X26258810Y-79174160D01*
X26224258Y-78979949D01*
X26192013Y-78761981D01*
X26162586Y-78523972D01*
X26136487Y-78269638D01*
X26114223Y-78002693D01*
X26096307Y-77726854D01*
X26083246Y-77445835D01*
X26076389Y-77207922D01*
X26073201Y-76800103D01*
X26081943Y-76426212D01*
X26103911Y-76079203D01*
X26140401Y-75752028D01*
X26192708Y-75437640D01*
X26262127Y-75128992D01*
X26349953Y-74819036D01*
X26457483Y-74500726D01*
X26586012Y-74167014D01*
X26674366Y-73955015D01*
X26841961Y-73577688D01*
X27007876Y-73235526D01*
X27175731Y-72921690D01*
X27349144Y-72629344D01*
X27493526Y-72407502D01*
X27548975Y-72324050D01*
X27593508Y-72253965D01*
X27622867Y-72204183D01*
X27632791Y-72181635D01*
X27632577Y-72181170D01*
X27612429Y-72188457D01*
X27560303Y-72213444D01*
X27481348Y-72253489D01*
X27380713Y-72305949D01*
X27263544Y-72368183D01*
X27169552Y-72418796D01*
X26501123Y-72761184D01*
X25834257Y-73062946D01*
X25164710Y-73325391D01*
X24488240Y-73549825D01*
X23800603Y-73737557D01*
X23097555Y-73889895D01*
X22374853Y-74008145D01*
X21783190Y-74078730D01*
X21641396Y-74089666D01*
X21465337Y-74097923D01*
X21262991Y-74103539D01*
X21042338Y-74106556D01*
X20811358Y-74107012D01*
X20578031Y-74104948D01*
X20350336Y-74100404D01*
X20136252Y-74093421D01*
X19943761Y-74084037D01*
X19780841Y-74072293D01*
X19740606Y-74068486D01*
X19459381Y-74037900D01*
X19213621Y-74006623D01*
X19004418Y-73974868D01*
X18832868Y-73942845D01*
X18700064Y-73910764D01*
X18607101Y-73878837D01*
X18555072Y-73847274D01*
X18548109Y-73838722D01*
X18541925Y-73814626D01*
X18546299Y-73775110D01*
X18562515Y-73716844D01*
X18591857Y-73636499D01*
X18635607Y-73530746D01*
X18695049Y-73396254D01*
X18771467Y-73229695D01*
X18836328Y-73091005D01*
X18931093Y-72887056D01*
X19014934Y-72700314D01*
X19089753Y-72525082D01*
X19157453Y-72355666D01*
X19219933Y-72186369D01*
X19279098Y-72011498D01*
X19336847Y-71825356D01*
X19395084Y-71622248D01*
X19455710Y-71396480D01*
X19520627Y-71142355D01*
X19591737Y-70854178D01*
X19614328Y-70761198D01*
X19717586Y-70343494D01*
X19815766Y-69964603D01*
X19909950Y-69621456D01*
X20001214Y-69310984D01*
X20090638Y-69030115D01*
X20179301Y-68775782D01*
X20268282Y-68544913D01*
X20358658Y-68334439D01*
X20451510Y-68141291D01*
X20547915Y-67962399D01*
X20648953Y-67794692D01*
X20666335Y-67767588D01*
X20744084Y-67651386D01*
X20824576Y-67540096D01*
X20913185Y-67427169D01*
X21015286Y-67306059D01*
X21136252Y-67170215D01*
X21281458Y-67013091D01*
X21314157Y-66978241D01*
X21402605Y-66883492D01*
X21479643Y-66799656D01*
X21541081Y-66731402D01*
X21582731Y-66683396D01*
X21600404Y-66660308D01*
X21600621Y-66659000D01*
X21577688Y-66654606D01*
X21521178Y-66647215D01*
X21439654Y-66637867D01*
X21343975Y-66627832D01*
X21112233Y-66598331D01*
X20909452Y-66557743D01*
X20722904Y-66502350D01*
X20539863Y-66428430D01*
X20365283Y-66341751D01*
X20244741Y-66274027D01*
X20123743Y-66198550D01*
X19999069Y-66112648D01*
X19867500Y-66013649D01*
X19725817Y-65898883D01*
X19570802Y-65765677D01*
X19399234Y-65611362D01*
X19207895Y-65433265D01*
X18993566Y-65228715D01*
X18813057Y-65053667D01*
X18581945Y-64829460D01*
X18377072Y-64633421D01*
X18195463Y-64463080D01*
X18034144Y-64315966D01*
X17890142Y-64189607D01*
X17760481Y-64081533D01*
X17642188Y-63989273D01*
X17532289Y-63910357D01*
X17427810Y-63842313D01*
X17325777Y-63782670D01*
X17223215Y-63728958D01*
X17211709Y-63723274D01*
X17058812Y-63653077D01*
X16922139Y-63603034D01*
X16785464Y-63568692D01*
X16632564Y-63545597D01*
X16526931Y-63535340D01*
X16225629Y-63526832D01*
X15921435Y-63552094D01*
X15608497Y-63611985D01*
X15280962Y-63707369D01*
X15223345Y-63727198D01*
X15119319Y-63763026D01*
X15030252Y-63792315D01*
X14963345Y-63812804D01*
X14925797Y-63822235D01*
X14920386Y-63822257D01*
X14926209Y-63800923D01*
X14949630Y-63750132D01*
X14986797Y-63676925D01*
X15033861Y-63588343D01*
X15086969Y-63491428D01*
X15142273Y-63393221D01*
X15195921Y-63300763D01*
X15244063Y-63221094D01*
X15277876Y-63168546D01*
X15489145Y-62871930D01*
X15724768Y-62570397D01*
X15978612Y-62270506D01*
X16244545Y-61978816D01*
X16516433Y-61701889D01*
X16788146Y-61446284D01*
X17053549Y-61218561D01*
X17228255Y-61082262D01*
X17314121Y-61018189D01*
X17386915Y-60963714D01*
X17440361Y-60923546D01*
X17468185Y-60902394D01*
X17470672Y-60900391D01*
X17452800Y-60893862D01*
X17399718Y-60878573D01*
X17317267Y-60856107D01*
X17211286Y-60828045D01*
X17087618Y-60795966D01*
X17036755Y-60782939D01*
X16558031Y-60649958D01*
X16115036Y-60503890D01*
X15702567Y-60342459D01*
X15315422Y-60163385D01*
X14948401Y-59964391D01*
X14596300Y-59743200D01*
X14480690Y-59663679D01*
X14294386Y-59524302D01*
X14089685Y-59356207D01*
X13872637Y-59165234D01*
X13649294Y-58957227D01*
X13425704Y-58738026D01*
X13207918Y-58513474D01*
X13001987Y-58289414D01*
X12813960Y-58071686D01*
X12745853Y-57988588D01*
X12669174Y-57891095D01*
X12586925Y-57782490D01*
X12503021Y-57668387D01*
X12421378Y-57554401D01*
X12345911Y-57446146D01*
X12280535Y-57349238D01*
X12229167Y-57269291D01*
X12195721Y-57211919D01*
X12184106Y-57183064D01*
X12193807Y-57154802D01*
X12220189Y-57098016D01*
X12259169Y-57021074D01*
X12304434Y-56936413D01*
X12421000Y-56747009D01*
X12570285Y-56542229D01*
X12747654Y-56326618D01*
X12948474Y-56104722D01*
X13168110Y-55881086D01*
X13401929Y-55660257D01*
X13645296Y-55446779D01*
X13893577Y-55245198D01*
X14142138Y-55060060D01*
X14381549Y-54898950D01*
X14648045Y-54736149D01*
X14909897Y-54589704D01*
X15173089Y-54457234D01*
X15443608Y-54336360D01*
X15727439Y-54224703D01*
X16030568Y-54119883D01*
X16358981Y-54019521D01*
X16718662Y-53921237D01*
X17048542Y-53838736D01*
X17179371Y-53806845D01*
X17294696Y-53778140D01*
X17388743Y-53754108D01*
X17455739Y-53736234D01*
X17489909Y-53726006D01*
X17493042Y-53724297D01*
X17472118Y-53716371D01*
X17415945Y-53696496D01*
X17329357Y-53666346D01*
X17217189Y-53627594D01*
X17084273Y-53581911D01*
X16935445Y-53530970D01*
X16851356Y-53502272D01*
X16465250Y-53367676D01*
X16103612Y-53235635D01*
X15768974Y-53107196D01*
X15463868Y-52983407D01*
X15190824Y-52865314D01*
X14952375Y-52753963D01*
X14751052Y-52650403D01*
X14644324Y-52589573D01*
X14411904Y-52440282D01*
X14183790Y-52272021D01*
X13953123Y-52079258D01*
X13713042Y-51856459D01*
X13611707Y-51756558D01*
X13439349Y-51580438D01*
X13283769Y-51412996D01*
X13140239Y-51248026D01*
X13004030Y-51079319D01*
X12870412Y-50900668D01*
X12734657Y-50705864D01*
X12592036Y-50488700D01*
X12437818Y-50242968D01*
X12352790Y-50104005D01*
X12203907Y-49861152D01*
X12070420Y-49648347D01*
X11947612Y-49458386D01*
X11830762Y-49284069D01*
X11715151Y-49118194D01*
X11622362Y-48989442D01*
X11554603Y-48895777D01*
X11496697Y-48814006D01*
X11452857Y-48750221D01*
X11427299Y-48710510D01*
X11422480Y-48700566D01*
X11439315Y-48684036D01*
X11485029Y-48649488D01*
X11552881Y-48601783D01*
X11636133Y-48545781D01*
X11646739Y-48538799D01*
X11751160Y-48468149D01*
X11857114Y-48391921D01*
X11967777Y-48307388D01*
X12086325Y-48211822D01*
X12215936Y-48102495D01*
X12359784Y-47976679D01*
X12521047Y-47831646D01*
X12702901Y-47664667D01*
X12908521Y-47473015D01*
X13125231Y-47268950D01*
X13411532Y-47001199D01*
X13671346Y-46764200D01*
X13904331Y-46558256D01*
X14110150Y-46383665D01*
X14269023Y-46255814D01*
X14580049Y-46029996D01*
X14909575Y-45821628D01*
X15247375Y-45636488D01*
X15583224Y-45480351D01*
X15777148Y-45403870D01*
X15864825Y-45370572D01*
X15935519Y-45341456D01*
X15981121Y-45320013D01*
X15994106Y-45310540D01*
X15977018Y-45294602D01*
X15931094Y-45263133D01*
X15864346Y-45221441D01*
X15819481Y-45194804D01*
X15721155Y-45137433D01*
X15605289Y-45069800D01*
X15490891Y-45003002D01*
X15443773Y-44975480D01*
X14966640Y-44673514D01*
X14519968Y-44342543D01*
X14102174Y-43981156D01*
X13711678Y-43587944D01*
X13346900Y-43161496D01*
X13207930Y-42981422D01*
X13111510Y-42848317D01*
X12999210Y-42685691D01*
X12875888Y-42500932D01*
X12746399Y-42301426D01*
X12615602Y-42094559D01*
X12488351Y-41887719D01*
X12482732Y-41878440D01*
X12308398Y-41590375D01*
X12428758Y-41391607D01*
X12507069Y-41266776D01*
X12583478Y-41156055D01*
X12664673Y-41051373D01*
X12757339Y-40944656D01*
X12868163Y-40827833D01*
X13003830Y-40692832D01*
X13023137Y-40674015D01*
X13322981Y-40395678D01*
X13616474Y-40151998D01*
X13911634Y-39937814D01*
X14216481Y-39747963D01*
X14539033Y-39577284D01*
X14887310Y-39420614D01*
X15105106Y-39333806D01*
X15508813Y-39191228D01*
X15913708Y-39072723D01*
X16332233Y-38975068D01*
X16776827Y-38895039D01*
X16830190Y-38886820D01*
X16955109Y-38867880D01*
X17071128Y-38850268D01*
X17169331Y-38835340D01*
X17240807Y-38824449D01*
X17270085Y-38819965D01*
X17350147Y-38807635D01*
X17100752Y-38637914D01*
X16703635Y-38343943D01*
X16317603Y-38010492D01*
X15944386Y-37639367D01*
X15585714Y-37232374D01*
X15243318Y-36791320D01*
X15006389Y-36451505D01*
X14901963Y-36293266D01*
X14822558Y-36167177D01*
X14768799Y-36070787D01*
X14741314Y-36001648D01*
X14740727Y-35957309D01*
X14767666Y-35935322D01*
X14822757Y-35933238D01*
X14906626Y-35948606D01*
X15019899Y-35978978D01*
X15119626Y-36008643D01*
X15318206Y-36063703D01*
X15491217Y-36099373D01*
X15649987Y-36117020D01*
X15805843Y-36118011D01*
X15938241Y-36107487D01*
X16223226Y-36056889D01*
X16501962Y-35968769D01*
X16778405Y-35841610D01*
X17040520Y-35684586D01*
X17164946Y-35595588D01*
X17296838Y-35488531D01*
X17438437Y-35361120D01*
X17591988Y-35211061D01*
X17759733Y-35036059D01*
X17943914Y-34833820D01*
X18146776Y-34602049D01*
X18370561Y-34338452D01*
X18453131Y-34239588D01*
X18566550Y-34106940D01*
X18695360Y-33962315D01*
X18829088Y-33817087D01*
X18957265Y-33682634D01*
X19066832Y-33572838D01*
X19301165Y-33355650D01*
X19524764Y-33171218D01*
X19746027Y-33014538D01*
X19973356Y-32880604D01*
X20215150Y-32764413D01*
X20479810Y-32660959D01*
X20739969Y-32575974D01*
X20851202Y-32541578D01*
X20948322Y-32510227D01*
X21023988Y-32484393D01*
X21070858Y-32466551D01*
X21082163Y-32460658D01*
X21075664Y-32439524D01*
X21044864Y-32393457D01*
X20994300Y-32328518D01*
X20928510Y-32250767D01*
X20905663Y-32224932D01*
X20664555Y-31941338D01*
X20458050Y-31667085D01*
X20281967Y-31394546D01*
X20132125Y-31116093D01*
X20004343Y-30824098D01*
X19894439Y-30510935D01*
X19815641Y-30236478D01*
X19772501Y-30063667D01*
X19733688Y-29888124D01*
X19698565Y-29705151D01*
X19666498Y-29510048D01*
X19636852Y-29298114D01*
X19608991Y-29064652D01*
X19582280Y-28804961D01*
X19556083Y-28514342D01*
X19529766Y-28188095D01*
X19518408Y-28037755D01*
X19496587Y-27750520D01*
X19476430Y-27500933D01*
X19457374Y-27284366D01*
X19438852Y-27096192D01*
X19420302Y-26931784D01*
X19401157Y-26786515D01*
X19380853Y-26655757D01*
X19358826Y-26534884D01*
X19334511Y-26419267D01*
X19307344Y-26304281D01*
X19306405Y-26300498D01*
X19239900Y-26069246D01*
X19159129Y-25861826D01*
X19057852Y-25665379D01*
X18929829Y-25467043D01*
X18847420Y-25354686D01*
X18757871Y-25235699D01*
X18691928Y-25144658D01*
X18646660Y-25076528D01*
X18619135Y-25026272D01*
X18606422Y-24988855D01*
X18605589Y-24959240D01*
X18608953Y-24945016D01*
X18616588Y-24926042D01*
X18630033Y-24913591D01*
X18656532Y-24906830D01*
X18703327Y-24904928D01*
X18777665Y-24907050D01*
X18886788Y-24912365D01*
X18891070Y-24912586D01*
X18994668Y-24918664D01*
X19129369Y-24927675D01*
X19284109Y-24938818D01*
X19447824Y-24951288D01*
X19609448Y-24964285D01*
X19645356Y-24967281D01*
X19825544Y-24982176D01*
X19985836Y-24994741D01*
X20133584Y-25005363D01*
X20276144Y-25014427D01*
X20420868Y-25022318D01*
X20575110Y-25029424D01*
X20746224Y-25036130D01*
X20941563Y-25042821D01*
X21168481Y-25049885D01*
X21285773Y-25053373D01*
X21525603Y-25061008D01*
X21730813Y-25068990D01*
X21909115Y-25077876D01*
X22068223Y-25088219D01*
X22215849Y-25100575D01*
X22359706Y-25115499D01*
X22507506Y-25133545D01*
X22629856Y-25150056D01*
X23261244Y-25258685D01*
X23876774Y-25406336D01*
X24475968Y-25592851D01*
X25058347Y-25818068D01*
X25623435Y-26081827D01*
X25984773Y-26275860D01*
X26312801Y-26469851D01*
X26630731Y-26675574D01*
X26944051Y-26897224D01*
X27258248Y-27138995D01*
X27578810Y-27405083D01*
X27911225Y-27699683D01*
X28202125Y-27970820D01*
X28592364Y-28341878D01*
X28370789Y-27898775D01*
X28178011Y-27502898D01*
X28009346Y-27133403D01*
X27862340Y-26783711D01*
X27734540Y-26447243D01*
X27623494Y-26117421D01*
X27526748Y-25787666D01*
X27441848Y-25451399D01*
X27416262Y-25339005D01*
X27346458Y-24997304D01*
X27292686Y-24669448D01*
X27253720Y-24343701D01*
X27228335Y-24008324D01*
X27215305Y-23651578D01*
X27212876Y-23391672D01*
X27213797Y-23188252D01*
X27216996Y-23007551D01*
X27223131Y-22840247D01*
X27232861Y-22677017D01*
X27246841Y-22508539D01*
X27265731Y-22325490D01*
X27290186Y-22118547D01*
X27318117Y-21899422D01*
X27346921Y-21676791D01*
X27370393Y-21490185D01*
X27389069Y-21333700D01*
X27403485Y-21201435D01*
X27414178Y-21087490D01*
X27421682Y-20985963D01*
X27426534Y-20890951D01*
X27429270Y-20796555D01*
X27430426Y-20696872D01*
X27430553Y-20661172D01*
X27428321Y-20498377D01*
X27418989Y-20367388D01*
X27399734Y-20257894D01*
X27367728Y-20159583D01*
X27320145Y-20062145D01*
X27254161Y-19955268D01*
X27225384Y-19912534D01*
X27166275Y-19822477D01*
X27130065Y-19757047D01*
X27112901Y-19708063D01*
X27110744Y-19669118D01*
X27118980Y-19629601D01*
X27140992Y-19601770D01*
X27186863Y-19576442D01*
X27233606Y-19557224D01*
X27373173Y-19513695D01*
X27553911Y-19476208D01*
X27775077Y-19444849D01*
X28035931Y-19419704D01*
X28335731Y-19400859D01*
X28673735Y-19388401D01*
X28694106Y-19387886D01*
X29215305Y-19387323D01*
X29708133Y-19412803D01*
X30178303Y-19465263D01*
X30631529Y-19545641D01*
X31073524Y-19654873D01*
X31510001Y-19793896D01*
X31773856Y-19892886D01*
X32153270Y-20057724D01*
X32543748Y-20254689D01*
X32936823Y-20478348D01*
X33324027Y-20723269D01*
X33696895Y-20984020D01*
X34046958Y-21255169D01*
X34365751Y-21531283D01*
X34448287Y-21608774D01*
X34530627Y-21686564D01*
X34601910Y-21751999D01*
X34656784Y-21800319D01*
X34689900Y-21826764D01*
X34697115Y-21830135D01*
X34690482Y-21809641D01*
X34667449Y-21756153D01*
X34630320Y-21674651D01*
X34581403Y-21570119D01*
X34523001Y-21447536D01*
X34457422Y-21311884D01*
X34454007Y-21304871D01*
X34378106Y-21146768D01*
X34300582Y-20981226D01*
X34225869Y-20818006D01*
X34158401Y-20666865D01*
X34102611Y-20537563D01*
X34075038Y-20470672D01*
X33847017Y-19850097D01*
X33654546Y-19216181D01*
X33498011Y-18572417D01*
X33377801Y-17922301D01*
X33294300Y-17269327D01*
X33247896Y-16616992D01*
X33238974Y-15968791D01*
X33267923Y-15328218D01*
X33335127Y-14698768D01*
X33395073Y-14321755D01*
X33438830Y-14094777D01*
X33484941Y-13886430D01*
X33532113Y-13701401D01*
X33579055Y-13544377D01*
X33624476Y-13420048D01*
X33667085Y-13333100D01*
X33667629Y-13332213D01*
X33702433Y-13287956D01*
X33740587Y-13266821D01*
X33784599Y-13270773D01*
X33836975Y-13301778D01*
X33900222Y-13361801D01*
X33976846Y-13452807D01*
X34069354Y-13576761D01*
X34178016Y-13732355D01*
X34284936Y-13878943D01*
X34409110Y-14033617D01*
X34535152Y-14177503D01*
X34578011Y-14223015D01*
X34756629Y-14397061D01*
X34946515Y-14559235D01*
X35150623Y-14710928D01*
X35371910Y-14853528D01*
X35613330Y-14988428D01*
X35877837Y-15117016D01*
X36168386Y-15240683D01*
X36487934Y-15360818D01*
X36839434Y-15478813D01*
X37225841Y-15596057D01*
X37650111Y-15713940D01*
X37869856Y-15771618D01*
X38275745Y-15880073D01*
X38643022Y-15986327D01*
X38975251Y-16091807D01*
X39275997Y-16197941D01*
X39548825Y-16306154D01*
X39797300Y-16417875D01*
X40024987Y-16534530D01*
X40235451Y-16657547D01*
X40432256Y-16788351D01*
X40460889Y-16808782D01*
X40531895Y-16863378D01*
X40624297Y-16939510D01*
X40728966Y-17029384D01*
X40836771Y-17125204D01*
X40907575Y-17190120D01*
X40998388Y-17274020D01*
X41078492Y-17346940D01*
X41142800Y-17404337D01*
X41186228Y-17441672D01*
X41203564Y-17454422D01*
X41211366Y-17434952D01*
X41222501Y-17382706D01*
X41235149Y-17306922D01*
X41241924Y-17259770D01*
X41287692Y-17032134D01*
X41364667Y-16784760D01*
X41470503Y-16523725D01*
X41602855Y-16255103D01*
X41689524Y-16100473D01*
X41731798Y-16031289D01*
X41776756Y-15965001D01*
X41827605Y-15898336D01*
X41887554Y-15828018D01*
X41959811Y-15750773D01*
X42047582Y-15663328D01*
X42154075Y-15562407D01*
X42282499Y-15444737D01*
X42436061Y-15307044D01*
X42617967Y-15146052D01*
X42665602Y-15104108D01*
X42898254Y-14898926D01*
X43101377Y-14718374D01*
X43277601Y-14559553D01*
X43429558Y-14419563D01*
X43559879Y-14295506D01*
X43671194Y-14184482D01*
X43766134Y-14083592D01*
X43847331Y-13989937D01*
X43917415Y-13900618D01*
X43979016Y-13812736D01*
X44034767Y-13723392D01*
X44087298Y-13629686D01*
X44139239Y-13528720D01*
X44190051Y-13424238D01*
X44253843Y-13287400D01*
X44304234Y-13168550D01*
X44342213Y-13060418D01*
X44368769Y-12955732D01*
X44384890Y-12847220D01*
X44391564Y-12727610D01*
X44389780Y-12589631D01*
X44380525Y-12426010D01*
X44364788Y-12229477D01*
X44359944Y-12174207D01*
X44348046Y-12035539D01*
X44338146Y-11911545D01*
X44330663Y-11808240D01*
X44326016Y-11731639D01*
X44324625Y-11687756D01*
X44325445Y-11679693D01*
X44347479Y-11685153D01*
X44400915Y-11708684D01*
X44480378Y-11747390D01*
X44580494Y-11798376D01*
X44695889Y-11858745D01*
X44821189Y-11925601D01*
X44951019Y-11996048D01*
X45080005Y-12067190D01*
X45202774Y-12136130D01*
X45313950Y-12199972D01*
X45408160Y-12255820D01*
X45480029Y-12300778D01*
X45489237Y-12306862D01*
X45830071Y-12551474D01*
X46157161Y-12819861D01*
X46464742Y-13106329D01*
X46747051Y-13405188D01*
X46998321Y-13710745D01*
X47197633Y-13993672D01*
X47268738Y-14103191D01*
X47320492Y-14178114D01*
X47356868Y-14219170D01*
X47381843Y-14227090D01*
X47399390Y-14202602D01*
X47413484Y-14146437D01*
X47428102Y-14059325D01*
X47431692Y-14036650D01*
X47459377Y-13900291D01*
X47503359Y-13732272D01*
X47561373Y-13538977D01*
X47631154Y-13326794D01*
X47710436Y-13102108D01*
X47796955Y-12871306D01*
X47888446Y-12640772D01*
X47982643Y-12416894D01*
X48077281Y-12206058D01*
X48092606Y-12173338D01*
X48242470Y-11887834D01*
X48427830Y-11589631D01*
X48645255Y-11282670D01*
X48891315Y-10970890D01*
X49162579Y-10658234D01*
X49455617Y-10348642D01*
X49766999Y-10046053D01*
X50093295Y-9754409D01*
X50431073Y-9477650D01*
X50456656Y-9457695D01*
X50471509Y-9451912D01*
X50494358Y-9455190D01*
G37*
%TD*%
M02*
