%TF.GenerationSoftware,KiCad,Pcbnew,7.0.1*%
%TF.CreationDate,2023-06-01T23:18:07-07:00*%
%TF.ProjectId,set_02,7365745f-3032-42e6-9b69-6361645f7063,rev?*%
%TF.SameCoordinates,Original*%
%TF.FileFunction,Legend,Top*%
%TF.FilePolarity,Positive*%
%FSLAX46Y46*%
G04 Gerber Fmt 4.6, Leading zero omitted, Abs format (unit mm)*
G04 Created by KiCad (PCBNEW 7.0.1) date 2023-06-01 23:18:07*
%MOMM*%
%LPD*%
G01*
G04 APERTURE LIST*
%ADD10C,0.150000*%
G04 APERTURE END LIST*
D10*
X45023809Y-94877619D02*
X45023809Y-95591904D01*
X45023809Y-95591904D02*
X44976190Y-95734761D01*
X44976190Y-95734761D02*
X44880952Y-95830000D01*
X44880952Y-95830000D02*
X44738095Y-95877619D01*
X44738095Y-95877619D02*
X44642857Y-95877619D01*
X45976190Y-95877619D02*
X45500000Y-95877619D01*
X45500000Y-95877619D02*
X45500000Y-94877619D01*
X46880952Y-95782380D02*
X46833333Y-95830000D01*
X46833333Y-95830000D02*
X46690476Y-95877619D01*
X46690476Y-95877619D02*
X46595238Y-95877619D01*
X46595238Y-95877619D02*
X46452381Y-95830000D01*
X46452381Y-95830000D02*
X46357143Y-95734761D01*
X46357143Y-95734761D02*
X46309524Y-95639523D01*
X46309524Y-95639523D02*
X46261905Y-95449047D01*
X46261905Y-95449047D02*
X46261905Y-95306190D01*
X46261905Y-95306190D02*
X46309524Y-95115714D01*
X46309524Y-95115714D02*
X46357143Y-95020476D01*
X46357143Y-95020476D02*
X46452381Y-94925238D01*
X46452381Y-94925238D02*
X46595238Y-94877619D01*
X46595238Y-94877619D02*
X46690476Y-94877619D01*
X46690476Y-94877619D02*
X46833333Y-94925238D01*
X46833333Y-94925238D02*
X46880952Y-94972857D01*
X47595238Y-94877619D02*
X47595238Y-95591904D01*
X47595238Y-95591904D02*
X47547619Y-95734761D01*
X47547619Y-95734761D02*
X47452381Y-95830000D01*
X47452381Y-95830000D02*
X47309524Y-95877619D01*
X47309524Y-95877619D02*
X47214286Y-95877619D01*
X48547619Y-95877619D02*
X48071429Y-95877619D01*
X48071429Y-95877619D02*
X48071429Y-94877619D01*
X49452381Y-95782380D02*
X49404762Y-95830000D01*
X49404762Y-95830000D02*
X49261905Y-95877619D01*
X49261905Y-95877619D02*
X49166667Y-95877619D01*
X49166667Y-95877619D02*
X49023810Y-95830000D01*
X49023810Y-95830000D02*
X48928572Y-95734761D01*
X48928572Y-95734761D02*
X48880953Y-95639523D01*
X48880953Y-95639523D02*
X48833334Y-95449047D01*
X48833334Y-95449047D02*
X48833334Y-95306190D01*
X48833334Y-95306190D02*
X48880953Y-95115714D01*
X48880953Y-95115714D02*
X48928572Y-95020476D01*
X48928572Y-95020476D02*
X49023810Y-94925238D01*
X49023810Y-94925238D02*
X49166667Y-94877619D01*
X49166667Y-94877619D02*
X49261905Y-94877619D01*
X49261905Y-94877619D02*
X49404762Y-94925238D01*
X49404762Y-94925238D02*
X49452381Y-94972857D01*
X50166667Y-94877619D02*
X50166667Y-95591904D01*
X50166667Y-95591904D02*
X50119048Y-95734761D01*
X50119048Y-95734761D02*
X50023810Y-95830000D01*
X50023810Y-95830000D02*
X49880953Y-95877619D01*
X49880953Y-95877619D02*
X49785715Y-95877619D01*
X51119048Y-95877619D02*
X50642858Y-95877619D01*
X50642858Y-95877619D02*
X50642858Y-94877619D01*
X52023810Y-95782380D02*
X51976191Y-95830000D01*
X51976191Y-95830000D02*
X51833334Y-95877619D01*
X51833334Y-95877619D02*
X51738096Y-95877619D01*
X51738096Y-95877619D02*
X51595239Y-95830000D01*
X51595239Y-95830000D02*
X51500001Y-95734761D01*
X51500001Y-95734761D02*
X51452382Y-95639523D01*
X51452382Y-95639523D02*
X51404763Y-95449047D01*
X51404763Y-95449047D02*
X51404763Y-95306190D01*
X51404763Y-95306190D02*
X51452382Y-95115714D01*
X51452382Y-95115714D02*
X51500001Y-95020476D01*
X51500001Y-95020476D02*
X51595239Y-94925238D01*
X51595239Y-94925238D02*
X51738096Y-94877619D01*
X51738096Y-94877619D02*
X51833334Y-94877619D01*
X51833334Y-94877619D02*
X51976191Y-94925238D01*
X51976191Y-94925238D02*
X52023810Y-94972857D01*
X52738096Y-94877619D02*
X52738096Y-95591904D01*
X52738096Y-95591904D02*
X52690477Y-95734761D01*
X52690477Y-95734761D02*
X52595239Y-95830000D01*
X52595239Y-95830000D02*
X52452382Y-95877619D01*
X52452382Y-95877619D02*
X52357144Y-95877619D01*
X53690477Y-95877619D02*
X53214287Y-95877619D01*
X53214287Y-95877619D02*
X53214287Y-94877619D01*
X54595239Y-95782380D02*
X54547620Y-95830000D01*
X54547620Y-95830000D02*
X54404763Y-95877619D01*
X54404763Y-95877619D02*
X54309525Y-95877619D01*
X54309525Y-95877619D02*
X54166668Y-95830000D01*
X54166668Y-95830000D02*
X54071430Y-95734761D01*
X54071430Y-95734761D02*
X54023811Y-95639523D01*
X54023811Y-95639523D02*
X53976192Y-95449047D01*
X53976192Y-95449047D02*
X53976192Y-95306190D01*
X53976192Y-95306190D02*
X54023811Y-95115714D01*
X54023811Y-95115714D02*
X54071430Y-95020476D01*
X54071430Y-95020476D02*
X54166668Y-94925238D01*
X54166668Y-94925238D02*
X54309525Y-94877619D01*
X54309525Y-94877619D02*
X54404763Y-94877619D01*
X54404763Y-94877619D02*
X54547620Y-94925238D01*
X54547620Y-94925238D02*
X54595239Y-94972857D01*
M02*
