%TF.GenerationSoftware,KiCad,Pcbnew,7.0.1*%
%TF.CreationDate,2023-05-31T21:00:48-07:00*%
%TF.ProjectId,flower_02,666c6f77-6572-45f3-9032-2e6b69636164,rev?*%
%TF.SameCoordinates,Original*%
%TF.FileFunction,Legend,Top*%
%TF.FilePolarity,Positive*%
%FSLAX46Y46*%
G04 Gerber Fmt 4.6, Leading zero omitted, Abs format (unit mm)*
G04 Created by KiCad (PCBNEW 7.0.1) date 2023-05-31 21:00:48*
%MOMM*%
%LPD*%
G01*
G04 APERTURE LIST*
%ADD10C,0.150000*%
G04 APERTURE END LIST*
D10*
X47023809Y-93877619D02*
X47023809Y-94591904D01*
X47023809Y-94591904D02*
X46976190Y-94734761D01*
X46976190Y-94734761D02*
X46880952Y-94830000D01*
X46880952Y-94830000D02*
X46738095Y-94877619D01*
X46738095Y-94877619D02*
X46642857Y-94877619D01*
X47976190Y-94877619D02*
X47500000Y-94877619D01*
X47500000Y-94877619D02*
X47500000Y-93877619D01*
X48880952Y-94782380D02*
X48833333Y-94830000D01*
X48833333Y-94830000D02*
X48690476Y-94877619D01*
X48690476Y-94877619D02*
X48595238Y-94877619D01*
X48595238Y-94877619D02*
X48452381Y-94830000D01*
X48452381Y-94830000D02*
X48357143Y-94734761D01*
X48357143Y-94734761D02*
X48309524Y-94639523D01*
X48309524Y-94639523D02*
X48261905Y-94449047D01*
X48261905Y-94449047D02*
X48261905Y-94306190D01*
X48261905Y-94306190D02*
X48309524Y-94115714D01*
X48309524Y-94115714D02*
X48357143Y-94020476D01*
X48357143Y-94020476D02*
X48452381Y-93925238D01*
X48452381Y-93925238D02*
X48595238Y-93877619D01*
X48595238Y-93877619D02*
X48690476Y-93877619D01*
X48690476Y-93877619D02*
X48833333Y-93925238D01*
X48833333Y-93925238D02*
X48880952Y-93972857D01*
X49595238Y-93877619D02*
X49595238Y-94591904D01*
X49595238Y-94591904D02*
X49547619Y-94734761D01*
X49547619Y-94734761D02*
X49452381Y-94830000D01*
X49452381Y-94830000D02*
X49309524Y-94877619D01*
X49309524Y-94877619D02*
X49214286Y-94877619D01*
X50547619Y-94877619D02*
X50071429Y-94877619D01*
X50071429Y-94877619D02*
X50071429Y-93877619D01*
X51452381Y-94782380D02*
X51404762Y-94830000D01*
X51404762Y-94830000D02*
X51261905Y-94877619D01*
X51261905Y-94877619D02*
X51166667Y-94877619D01*
X51166667Y-94877619D02*
X51023810Y-94830000D01*
X51023810Y-94830000D02*
X50928572Y-94734761D01*
X50928572Y-94734761D02*
X50880953Y-94639523D01*
X50880953Y-94639523D02*
X50833334Y-94449047D01*
X50833334Y-94449047D02*
X50833334Y-94306190D01*
X50833334Y-94306190D02*
X50880953Y-94115714D01*
X50880953Y-94115714D02*
X50928572Y-94020476D01*
X50928572Y-94020476D02*
X51023810Y-93925238D01*
X51023810Y-93925238D02*
X51166667Y-93877619D01*
X51166667Y-93877619D02*
X51261905Y-93877619D01*
X51261905Y-93877619D02*
X51404762Y-93925238D01*
X51404762Y-93925238D02*
X51452381Y-93972857D01*
X52166667Y-93877619D02*
X52166667Y-94591904D01*
X52166667Y-94591904D02*
X52119048Y-94734761D01*
X52119048Y-94734761D02*
X52023810Y-94830000D01*
X52023810Y-94830000D02*
X51880953Y-94877619D01*
X51880953Y-94877619D02*
X51785715Y-94877619D01*
X53119048Y-94877619D02*
X52642858Y-94877619D01*
X52642858Y-94877619D02*
X52642858Y-93877619D01*
X54023810Y-94782380D02*
X53976191Y-94830000D01*
X53976191Y-94830000D02*
X53833334Y-94877619D01*
X53833334Y-94877619D02*
X53738096Y-94877619D01*
X53738096Y-94877619D02*
X53595239Y-94830000D01*
X53595239Y-94830000D02*
X53500001Y-94734761D01*
X53500001Y-94734761D02*
X53452382Y-94639523D01*
X53452382Y-94639523D02*
X53404763Y-94449047D01*
X53404763Y-94449047D02*
X53404763Y-94306190D01*
X53404763Y-94306190D02*
X53452382Y-94115714D01*
X53452382Y-94115714D02*
X53500001Y-94020476D01*
X53500001Y-94020476D02*
X53595239Y-93925238D01*
X53595239Y-93925238D02*
X53738096Y-93877619D01*
X53738096Y-93877619D02*
X53833334Y-93877619D01*
X53833334Y-93877619D02*
X53976191Y-93925238D01*
X53976191Y-93925238D02*
X54023810Y-93972857D01*
X54738096Y-93877619D02*
X54738096Y-94591904D01*
X54738096Y-94591904D02*
X54690477Y-94734761D01*
X54690477Y-94734761D02*
X54595239Y-94830000D01*
X54595239Y-94830000D02*
X54452382Y-94877619D01*
X54452382Y-94877619D02*
X54357144Y-94877619D01*
X55690477Y-94877619D02*
X55214287Y-94877619D01*
X55214287Y-94877619D02*
X55214287Y-93877619D01*
X56595239Y-94782380D02*
X56547620Y-94830000D01*
X56547620Y-94830000D02*
X56404763Y-94877619D01*
X56404763Y-94877619D02*
X56309525Y-94877619D01*
X56309525Y-94877619D02*
X56166668Y-94830000D01*
X56166668Y-94830000D02*
X56071430Y-94734761D01*
X56071430Y-94734761D02*
X56023811Y-94639523D01*
X56023811Y-94639523D02*
X55976192Y-94449047D01*
X55976192Y-94449047D02*
X55976192Y-94306190D01*
X55976192Y-94306190D02*
X56023811Y-94115714D01*
X56023811Y-94115714D02*
X56071430Y-94020476D01*
X56071430Y-94020476D02*
X56166668Y-93925238D01*
X56166668Y-93925238D02*
X56309525Y-93877619D01*
X56309525Y-93877619D02*
X56404763Y-93877619D01*
X56404763Y-93877619D02*
X56547620Y-93925238D01*
X56547620Y-93925238D02*
X56595239Y-93972857D01*
M02*
